<?xml version="1.0" encoding="utf-8" standalone="no"?>
<!DOCTYPE svg PUBLIC "-//W3C//DTD SVG 1.1//EN"
  "http://www.w3.org/Graphics/SVG/1.1/DTD/svg11.dtd">
<!-- Created with matplotlib (http://matplotlib.org/) -->
<svg height="267pt" version="1.1" viewBox="0 0 623 267" width="623pt" xmlns="http://www.w3.org/2000/svg" xmlns:xlink="http://www.w3.org/1999/xlink">
 <defs>
  <style type="text/css">
*{stroke-linecap:butt;stroke-linejoin:round;}
  </style>
 </defs>
 <g id="figure_1">
  <g id="patch_1">
   <path d="M 0 267.631875 
L 623.96375 267.631875 
L 623.96375 0 
L 0 0 
z
" style="fill:#ffffff;"/>
  </g>
  <g id="axes_1">
   <g id="patch_2">
    <path d="M 55.26375 228.14 
L 308.900114 228.14 
L 308.900114 10.7 
L 55.26375 10.7 
z
" style="fill:#e5e5e5;"/>
   </g>
   <g id="matplotlib.axis_1">
    <g id="xtick_1">
     <g id="line2d_1">
      <path clip-path="url(#pf3a4ec75d4)" d="M 107.929438 228.14 
L 107.929438 10.7 
" style="fill:none;stroke:#ffffff;stroke-linecap:square;stroke-width:0.8;"/>
     </g>
     <g id="line2d_2">
      <defs>
       <path d="M 0 0 
L 0 3.5 
" id="m7b5ef34a79" style="stroke:#555555;stroke-width:0.8;"/>
      </defs>
      <g>
       <use style="fill:#555555;stroke:#555555;stroke-width:0.8;" x="107.929438" xlink:href="#m7b5ef34a79" y="228.14"/>
      </g>
     </g>
     <g id="text_1">
      <!-- 2 -->
      <defs>
       <path d="M 19.1875 8.296875 
L 53.609375 8.296875 
L 53.609375 0 
L 7.328125 0 
L 7.328125 8.296875 
Q 12.9375 14.109375 22.625 23.890625 
Q 32.328125 33.6875 34.8125 36.53125 
Q 39.546875 41.84375 41.421875 45.53125 
Q 43.3125 49.21875 43.3125 52.78125 
Q 43.3125 58.59375 39.234375 62.25 
Q 35.15625 65.921875 28.609375 65.921875 
Q 23.96875 65.921875 18.8125 64.3125 
Q 13.671875 62.703125 7.8125 59.421875 
L 7.8125 69.390625 
Q 13.765625 71.78125 18.9375 73 
Q 24.125 74.21875 28.421875 74.21875 
Q 39.75 74.21875 46.484375 68.546875 
Q 53.21875 62.890625 53.21875 53.421875 
Q 53.21875 48.921875 51.53125 44.890625 
Q 49.859375 40.875 45.40625 35.40625 
Q 44.1875 33.984375 37.640625 27.21875 
Q 31.109375 20.453125 19.1875 8.296875 
z
" id="DejaVuSans-32"/>
      </defs>
      <g style="fill:#555555;" transform="translate(104.748188 242.738437)scale(0.1 -0.1)">
       <use xlink:href="#DejaVuSans-32"/>
      </g>
     </g>
    </g>
    <g id="xtick_2">
     <g id="line2d_3">
      <path clip-path="url(#pf3a4ec75d4)" d="M 171.216764 228.14 
L 171.216764 10.7 
" style="fill:none;stroke:#ffffff;stroke-linecap:square;stroke-width:0.8;"/>
     </g>
     <g id="line2d_4">
      <g>
       <use style="fill:#555555;stroke:#555555;stroke-width:0.8;" x="171.216764" xlink:href="#m7b5ef34a79" y="228.14"/>
      </g>
     </g>
     <g id="text_2">
      <!-- 3 -->
      <defs>
       <path d="M 40.578125 39.3125 
Q 47.65625 37.796875 51.625 33 
Q 55.609375 28.21875 55.609375 21.1875 
Q 55.609375 10.40625 48.1875 4.484375 
Q 40.765625 -1.421875 27.09375 -1.421875 
Q 22.515625 -1.421875 17.65625 -0.515625 
Q 12.796875 0.390625 7.625 2.203125 
L 7.625 11.71875 
Q 11.71875 9.328125 16.59375 8.109375 
Q 21.484375 6.890625 26.8125 6.890625 
Q 36.078125 6.890625 40.9375 10.546875 
Q 45.796875 14.203125 45.796875 21.1875 
Q 45.796875 27.640625 41.28125 31.265625 
Q 36.765625 34.90625 28.71875 34.90625 
L 20.21875 34.90625 
L 20.21875 43.015625 
L 29.109375 43.015625 
Q 36.375 43.015625 40.234375 45.921875 
Q 44.09375 48.828125 44.09375 54.296875 
Q 44.09375 59.90625 40.109375 62.90625 
Q 36.140625 65.921875 28.71875 65.921875 
Q 24.65625 65.921875 20.015625 65.03125 
Q 15.375 64.15625 9.8125 62.3125 
L 9.8125 71.09375 
Q 15.4375 72.65625 20.34375 73.4375 
Q 25.25 74.21875 29.59375 74.21875 
Q 40.828125 74.21875 47.359375 69.109375 
Q 53.90625 64.015625 53.90625 55.328125 
Q 53.90625 49.265625 50.4375 45.09375 
Q 46.96875 40.921875 40.578125 39.3125 
z
" id="DejaVuSans-33"/>
      </defs>
      <g style="fill:#555555;" transform="translate(168.035514 242.738437)scale(0.1 -0.1)">
       <use xlink:href="#DejaVuSans-33"/>
      </g>
     </g>
    </g>
    <g id="xtick_3">
     <g id="line2d_5">
      <path clip-path="url(#pf3a4ec75d4)" d="M 234.50409 228.14 
L 234.50409 10.7 
" style="fill:none;stroke:#ffffff;stroke-linecap:square;stroke-width:0.8;"/>
     </g>
     <g id="line2d_6">
      <g>
       <use style="fill:#555555;stroke:#555555;stroke-width:0.8;" x="234.50409" xlink:href="#m7b5ef34a79" y="228.14"/>
      </g>
     </g>
     <g id="text_3">
      <!-- 4 -->
      <defs>
       <path d="M 37.796875 64.3125 
L 12.890625 25.390625 
L 37.796875 25.390625 
z
M 35.203125 72.90625 
L 47.609375 72.90625 
L 47.609375 25.390625 
L 58.015625 25.390625 
L 58.015625 17.1875 
L 47.609375 17.1875 
L 47.609375 0 
L 37.796875 0 
L 37.796875 17.1875 
L 4.890625 17.1875 
L 4.890625 26.703125 
z
" id="DejaVuSans-34"/>
      </defs>
      <g style="fill:#555555;" transform="translate(231.32284 242.738437)scale(0.1 -0.1)">
       <use xlink:href="#DejaVuSans-34"/>
      </g>
     </g>
    </g>
    <g id="xtick_4">
     <g id="line2d_7">
      <path clip-path="url(#pf3a4ec75d4)" d="M 297.791416 228.14 
L 297.791416 10.7 
" style="fill:none;stroke:#ffffff;stroke-linecap:square;stroke-width:0.8;"/>
     </g>
     <g id="line2d_8">
      <g>
       <use style="fill:#555555;stroke:#555555;stroke-width:0.8;" x="297.791416" xlink:href="#m7b5ef34a79" y="228.14"/>
      </g>
     </g>
     <g id="text_4">
      <!-- 5 -->
      <defs>
       <path d="M 10.796875 72.90625 
L 49.515625 72.90625 
L 49.515625 64.59375 
L 19.828125 64.59375 
L 19.828125 46.734375 
Q 21.96875 47.46875 24.109375 47.828125 
Q 26.265625 48.1875 28.421875 48.1875 
Q 40.625 48.1875 47.75 41.5 
Q 54.890625 34.8125 54.890625 23.390625 
Q 54.890625 11.625 47.5625 5.09375 
Q 40.234375 -1.421875 26.90625 -1.421875 
Q 22.3125 -1.421875 17.546875 -0.640625 
Q 12.796875 0.140625 7.71875 1.703125 
L 7.71875 11.625 
Q 12.109375 9.234375 16.796875 8.0625 
Q 21.484375 6.890625 26.703125 6.890625 
Q 35.15625 6.890625 40.078125 11.328125 
Q 45.015625 15.765625 45.015625 23.390625 
Q 45.015625 31 40.078125 35.4375 
Q 35.15625 39.890625 26.703125 39.890625 
Q 22.75 39.890625 18.8125 39.015625 
Q 14.890625 38.140625 10.796875 36.28125 
z
" id="DejaVuSans-35"/>
      </defs>
      <g style="fill:#555555;" transform="translate(294.610166 242.738437)scale(0.1 -0.1)">
       <use xlink:href="#DejaVuSans-35"/>
      </g>
     </g>
    </g>
    <g id="text_5">
     <!-- Review Sentiment -->
     <defs>
      <path d="M 44.390625 34.1875 
Q 47.5625 33.109375 50.5625 29.59375 
Q 53.5625 26.078125 56.59375 19.921875 
L 66.609375 0 
L 56 0 
L 46.6875 18.703125 
Q 43.0625 26.03125 39.671875 28.421875 
Q 36.28125 30.8125 30.421875 30.8125 
L 19.671875 30.8125 
L 19.671875 0 
L 9.8125 0 
L 9.8125 72.90625 
L 32.078125 72.90625 
Q 44.578125 72.90625 50.734375 67.671875 
Q 56.890625 62.453125 56.890625 51.90625 
Q 56.890625 45.015625 53.6875 40.46875 
Q 50.484375 35.9375 44.390625 34.1875 
z
M 19.671875 64.796875 
L 19.671875 38.921875 
L 32.078125 38.921875 
Q 39.203125 38.921875 42.84375 42.21875 
Q 46.484375 45.515625 46.484375 51.90625 
Q 46.484375 58.296875 42.84375 61.546875 
Q 39.203125 64.796875 32.078125 64.796875 
z
" id="DejaVuSans-52"/>
      <path d="M 56.203125 29.59375 
L 56.203125 25.203125 
L 14.890625 25.203125 
Q 15.484375 15.921875 20.484375 11.0625 
Q 25.484375 6.203125 34.421875 6.203125 
Q 39.59375 6.203125 44.453125 7.46875 
Q 49.3125 8.734375 54.109375 11.28125 
L 54.109375 2.78125 
Q 49.265625 0.734375 44.1875 -0.34375 
Q 39.109375 -1.421875 33.890625 -1.421875 
Q 20.796875 -1.421875 13.15625 6.1875 
Q 5.515625 13.8125 5.515625 26.8125 
Q 5.515625 40.234375 12.765625 48.109375 
Q 20.015625 56 32.328125 56 
Q 43.359375 56 49.78125 48.890625 
Q 56.203125 41.796875 56.203125 29.59375 
z
M 47.21875 32.234375 
Q 47.125 39.59375 43.09375 43.984375 
Q 39.0625 48.390625 32.421875 48.390625 
Q 24.90625 48.390625 20.390625 44.140625 
Q 15.875 39.890625 15.1875 32.171875 
z
" id="DejaVuSans-65"/>
      <path d="M 2.984375 54.6875 
L 12.5 54.6875 
L 29.59375 8.796875 
L 46.6875 54.6875 
L 56.203125 54.6875 
L 35.6875 0 
L 23.484375 0 
z
" id="DejaVuSans-76"/>
      <path d="M 9.421875 54.6875 
L 18.40625 54.6875 
L 18.40625 0 
L 9.421875 0 
z
M 9.421875 75.984375 
L 18.40625 75.984375 
L 18.40625 64.59375 
L 9.421875 64.59375 
z
" id="DejaVuSans-69"/>
      <path d="M 4.203125 54.6875 
L 13.1875 54.6875 
L 24.421875 12.015625 
L 35.59375 54.6875 
L 46.1875 54.6875 
L 57.421875 12.015625 
L 68.609375 54.6875 
L 77.59375 54.6875 
L 63.28125 0 
L 52.6875 0 
L 40.921875 44.828125 
L 29.109375 0 
L 18.5 0 
z
" id="DejaVuSans-77"/>
      <path id="DejaVuSans-20"/>
      <path d="M 53.515625 70.515625 
L 53.515625 60.890625 
Q 47.90625 63.578125 42.921875 64.890625 
Q 37.9375 66.21875 33.296875 66.21875 
Q 25.25 66.21875 20.875 63.09375 
Q 16.5 59.96875 16.5 54.203125 
Q 16.5 49.359375 19.40625 46.890625 
Q 22.3125 44.4375 30.421875 42.921875 
L 36.375 41.703125 
Q 47.40625 39.59375 52.65625 34.296875 
Q 57.90625 29 57.90625 20.125 
Q 57.90625 9.515625 50.796875 4.046875 
Q 43.703125 -1.421875 29.984375 -1.421875 
Q 24.8125 -1.421875 18.96875 -0.25 
Q 13.140625 0.921875 6.890625 3.21875 
L 6.890625 13.375 
Q 12.890625 10.015625 18.65625 8.296875 
Q 24.421875 6.59375 29.984375 6.59375 
Q 38.421875 6.59375 43.015625 9.90625 
Q 47.609375 13.234375 47.609375 19.390625 
Q 47.609375 24.75 44.3125 27.78125 
Q 41.015625 30.8125 33.5 32.328125 
L 27.484375 33.5 
Q 16.453125 35.6875 11.515625 40.375 
Q 6.59375 45.0625 6.59375 53.421875 
Q 6.59375 63.09375 13.40625 68.65625 
Q 20.21875 74.21875 32.171875 74.21875 
Q 37.3125 74.21875 42.625 73.28125 
Q 47.953125 72.359375 53.515625 70.515625 
z
" id="DejaVuSans-53"/>
      <path d="M 54.890625 33.015625 
L 54.890625 0 
L 45.90625 0 
L 45.90625 32.71875 
Q 45.90625 40.484375 42.875 44.328125 
Q 39.84375 48.1875 33.796875 48.1875 
Q 26.515625 48.1875 22.3125 43.546875 
Q 18.109375 38.921875 18.109375 30.90625 
L 18.109375 0 
L 9.078125 0 
L 9.078125 54.6875 
L 18.109375 54.6875 
L 18.109375 46.1875 
Q 21.34375 51.125 25.703125 53.5625 
Q 30.078125 56 35.796875 56 
Q 45.21875 56 50.046875 50.171875 
Q 54.890625 44.34375 54.890625 33.015625 
z
" id="DejaVuSans-6e"/>
      <path d="M 18.3125 70.21875 
L 18.3125 54.6875 
L 36.8125 54.6875 
L 36.8125 47.703125 
L 18.3125 47.703125 
L 18.3125 18.015625 
Q 18.3125 11.328125 20.140625 9.421875 
Q 21.96875 7.515625 27.59375 7.515625 
L 36.8125 7.515625 
L 36.8125 0 
L 27.59375 0 
Q 17.1875 0 13.234375 3.875 
Q 9.28125 7.765625 9.28125 18.015625 
L 9.28125 47.703125 
L 2.6875 47.703125 
L 2.6875 54.6875 
L 9.28125 54.6875 
L 9.28125 70.21875 
z
" id="DejaVuSans-74"/>
      <path d="M 52 44.1875 
Q 55.375 50.25 60.0625 53.125 
Q 64.75 56 71.09375 56 
Q 79.640625 56 84.28125 50.015625 
Q 88.921875 44.046875 88.921875 33.015625 
L 88.921875 0 
L 79.890625 0 
L 79.890625 32.71875 
Q 79.890625 40.578125 77.09375 44.375 
Q 74.3125 48.1875 68.609375 48.1875 
Q 61.625 48.1875 57.5625 43.546875 
Q 53.515625 38.921875 53.515625 30.90625 
L 53.515625 0 
L 44.484375 0 
L 44.484375 32.71875 
Q 44.484375 40.625 41.703125 44.40625 
Q 38.921875 48.1875 33.109375 48.1875 
Q 26.21875 48.1875 22.15625 43.53125 
Q 18.109375 38.875 18.109375 30.90625 
L 18.109375 0 
L 9.078125 0 
L 9.078125 54.6875 
L 18.109375 54.6875 
L 18.109375 46.1875 
Q 21.1875 51.21875 25.484375 53.609375 
Q 29.78125 56 35.6875 56 
Q 41.65625 56 45.828125 52.96875 
Q 50 49.953125 52 44.1875 
z
" id="DejaVuSans-6d"/>
     </defs>
     <g style="fill:#555555;" transform="translate(127.487557 257.93625)scale(0.12 -0.12)">
      <use xlink:href="#DejaVuSans-52"/>
      <use x="69.419922" xlink:href="#DejaVuSans-65"/>
      <use x="130.943359" xlink:href="#DejaVuSans-76"/>
      <use x="190.123047" xlink:href="#DejaVuSans-69"/>
      <use x="217.90625" xlink:href="#DejaVuSans-65"/>
      <use x="279.429688" xlink:href="#DejaVuSans-77"/>
      <use x="361.216797" xlink:href="#DejaVuSans-20"/>
      <use x="393.003906" xlink:href="#DejaVuSans-53"/>
      <use x="456.480469" xlink:href="#DejaVuSans-65"/>
      <use x="518.003906" xlink:href="#DejaVuSans-6e"/>
      <use x="581.382812" xlink:href="#DejaVuSans-74"/>
      <use x="620.591797" xlink:href="#DejaVuSans-69"/>
      <use x="648.375" xlink:href="#DejaVuSans-6d"/>
      <use x="745.787109" xlink:href="#DejaVuSans-65"/>
      <use x="807.310547" xlink:href="#DejaVuSans-6e"/>
      <use x="870.689453" xlink:href="#DejaVuSans-74"/>
     </g>
    </g>
   </g>
   <g id="matplotlib.axis_2">
    <g id="ytick_1">
     <g id="line2d_9">
      <path clip-path="url(#pf3a4ec75d4)" d="M 55.26375 228.14 
L 308.900114 228.14 
" style="fill:none;stroke:#ffffff;stroke-linecap:square;stroke-width:0.8;"/>
     </g>
     <g id="line2d_10">
      <defs>
       <path d="M 0 0 
L -3.5 0 
" id="m5170ccdcd3" style="stroke:#555555;stroke-width:0.8;"/>
      </defs>
      <g>
       <use style="fill:#555555;stroke:#555555;stroke-width:0.8;" x="55.26375" xlink:href="#m5170ccdcd3" y="228.14"/>
      </g>
     </g>
     <g id="text_6">
      <!-- 0 -->
      <defs>
       <path d="M 31.78125 66.40625 
Q 24.171875 66.40625 20.328125 58.90625 
Q 16.5 51.421875 16.5 36.375 
Q 16.5 21.390625 20.328125 13.890625 
Q 24.171875 6.390625 31.78125 6.390625 
Q 39.453125 6.390625 43.28125 13.890625 
Q 47.125 21.390625 47.125 36.375 
Q 47.125 51.421875 43.28125 58.90625 
Q 39.453125 66.40625 31.78125 66.40625 
z
M 31.78125 74.21875 
Q 44.046875 74.21875 50.515625 64.515625 
Q 56.984375 54.828125 56.984375 36.375 
Q 56.984375 17.96875 50.515625 8.265625 
Q 44.046875 -1.421875 31.78125 -1.421875 
Q 19.53125 -1.421875 13.0625 8.265625 
Q 6.59375 17.96875 6.59375 36.375 
Q 6.59375 54.828125 13.0625 64.515625 
Q 19.53125 74.21875 31.78125 74.21875 
z
" id="DejaVuSans-30"/>
      </defs>
      <g style="fill:#555555;" transform="translate(41.90125 231.939219)scale(0.1 -0.1)">
       <use xlink:href="#DejaVuSans-30"/>
      </g>
     </g>
    </g>
    <g id="ytick_2">
     <g id="line2d_11">
      <path clip-path="url(#pf3a4ec75d4)" d="M 55.26375 180.686812 
L 308.900114 180.686812 
" style="fill:none;stroke:#ffffff;stroke-linecap:square;stroke-width:0.8;"/>
     </g>
     <g id="line2d_12">
      <g>
       <use style="fill:#555555;stroke:#555555;stroke-width:0.8;" x="55.26375" xlink:href="#m5170ccdcd3" y="180.686812"/>
      </g>
     </g>
     <g id="text_7">
      <!-- 1000 -->
      <defs>
       <path d="M 12.40625 8.296875 
L 28.515625 8.296875 
L 28.515625 63.921875 
L 10.984375 60.40625 
L 10.984375 69.390625 
L 28.421875 72.90625 
L 38.28125 72.90625 
L 38.28125 8.296875 
L 54.390625 8.296875 
L 54.390625 0 
L 12.40625 0 
z
" id="DejaVuSans-31"/>
      </defs>
      <g style="fill:#555555;" transform="translate(22.81375 184.48603)scale(0.1 -0.1)">
       <use xlink:href="#DejaVuSans-31"/>
       <use x="63.623047" xlink:href="#DejaVuSans-30"/>
       <use x="127.246094" xlink:href="#DejaVuSans-30"/>
       <use x="190.869141" xlink:href="#DejaVuSans-30"/>
      </g>
     </g>
    </g>
    <g id="ytick_3">
     <g id="line2d_13">
      <path clip-path="url(#pf3a4ec75d4)" d="M 55.26375 133.233623 
L 308.900114 133.233623 
" style="fill:none;stroke:#ffffff;stroke-linecap:square;stroke-width:0.8;"/>
     </g>
     <g id="line2d_14">
      <g>
       <use style="fill:#555555;stroke:#555555;stroke-width:0.8;" x="55.26375" xlink:href="#m5170ccdcd3" y="133.233623"/>
      </g>
     </g>
     <g id="text_8">
      <!-- 2000 -->
      <g style="fill:#555555;" transform="translate(22.81375 137.032842)scale(0.1 -0.1)">
       <use xlink:href="#DejaVuSans-32"/>
       <use x="63.623047" xlink:href="#DejaVuSans-30"/>
       <use x="127.246094" xlink:href="#DejaVuSans-30"/>
       <use x="190.869141" xlink:href="#DejaVuSans-30"/>
      </g>
     </g>
    </g>
    <g id="ytick_4">
     <g id="line2d_15">
      <path clip-path="url(#pf3a4ec75d4)" d="M 55.26375 85.780435 
L 308.900114 85.780435 
" style="fill:none;stroke:#ffffff;stroke-linecap:square;stroke-width:0.8;"/>
     </g>
     <g id="line2d_16">
      <g>
       <use style="fill:#555555;stroke:#555555;stroke-width:0.8;" x="55.26375" xlink:href="#m5170ccdcd3" y="85.780435"/>
      </g>
     </g>
     <g id="text_9">
      <!-- 3000 -->
      <g style="fill:#555555;" transform="translate(22.81375 89.579653)scale(0.1 -0.1)">
       <use xlink:href="#DejaVuSans-33"/>
       <use x="63.623047" xlink:href="#DejaVuSans-30"/>
       <use x="127.246094" xlink:href="#DejaVuSans-30"/>
       <use x="190.869141" xlink:href="#DejaVuSans-30"/>
      </g>
     </g>
    </g>
    <g id="ytick_5">
     <g id="line2d_17">
      <path clip-path="url(#pf3a4ec75d4)" d="M 55.26375 38.327246 
L 308.900114 38.327246 
" style="fill:none;stroke:#ffffff;stroke-linecap:square;stroke-width:0.8;"/>
     </g>
     <g id="line2d_18">
      <g>
       <use style="fill:#555555;stroke:#555555;stroke-width:0.8;" x="55.26375" xlink:href="#m5170ccdcd3" y="38.327246"/>
      </g>
     </g>
     <g id="text_10">
      <!-- 4000 -->
      <g style="fill:#555555;" transform="translate(22.81375 42.126465)scale(0.1 -0.1)">
       <use xlink:href="#DejaVuSans-34"/>
       <use x="63.623047" xlink:href="#DejaVuSans-30"/>
       <use x="127.246094" xlink:href="#DejaVuSans-30"/>
       <use x="190.869141" xlink:href="#DejaVuSans-30"/>
      </g>
     </g>
    </g>
    <g id="text_11">
     <!-- Count -->
     <defs>
      <path d="M 64.40625 67.28125 
L 64.40625 56.890625 
Q 59.421875 61.53125 53.78125 63.8125 
Q 48.140625 66.109375 41.796875 66.109375 
Q 29.296875 66.109375 22.65625 58.46875 
Q 16.015625 50.828125 16.015625 36.375 
Q 16.015625 21.96875 22.65625 14.328125 
Q 29.296875 6.6875 41.796875 6.6875 
Q 48.140625 6.6875 53.78125 8.984375 
Q 59.421875 11.28125 64.40625 15.921875 
L 64.40625 5.609375 
Q 59.234375 2.09375 53.4375 0.328125 
Q 47.65625 -1.421875 41.21875 -1.421875 
Q 24.65625 -1.421875 15.125 8.703125 
Q 5.609375 18.84375 5.609375 36.375 
Q 5.609375 53.953125 15.125 64.078125 
Q 24.65625 74.21875 41.21875 74.21875 
Q 47.75 74.21875 53.53125 72.484375 
Q 59.328125 70.75 64.40625 67.28125 
z
" id="DejaVuSans-43"/>
      <path d="M 30.609375 48.390625 
Q 23.390625 48.390625 19.1875 42.75 
Q 14.984375 37.109375 14.984375 27.296875 
Q 14.984375 17.484375 19.15625 11.84375 
Q 23.34375 6.203125 30.609375 6.203125 
Q 37.796875 6.203125 41.984375 11.859375 
Q 46.1875 17.53125 46.1875 27.296875 
Q 46.1875 37.015625 41.984375 42.703125 
Q 37.796875 48.390625 30.609375 48.390625 
z
M 30.609375 56 
Q 42.328125 56 49.015625 48.375 
Q 55.71875 40.765625 55.71875 27.296875 
Q 55.71875 13.875 49.015625 6.21875 
Q 42.328125 -1.421875 30.609375 -1.421875 
Q 18.84375 -1.421875 12.171875 6.21875 
Q 5.515625 13.875 5.515625 27.296875 
Q 5.515625 40.765625 12.171875 48.375 
Q 18.84375 56 30.609375 56 
z
" id="DejaVuSans-6f"/>
      <path d="M 8.5 21.578125 
L 8.5 54.6875 
L 17.484375 54.6875 
L 17.484375 21.921875 
Q 17.484375 14.15625 20.5 10.265625 
Q 23.53125 6.390625 29.59375 6.390625 
Q 36.859375 6.390625 41.078125 11.03125 
Q 45.3125 15.671875 45.3125 23.6875 
L 45.3125 54.6875 
L 54.296875 54.6875 
L 54.296875 0 
L 45.3125 0 
L 45.3125 8.40625 
Q 42.046875 3.421875 37.71875 1 
Q 33.40625 -1.421875 27.6875 -1.421875 
Q 18.265625 -1.421875 13.375 4.4375 
Q 8.5 10.296875 8.5 21.578125 
z
M 31.109375 56 
z
" id="DejaVuSans-75"/>
     </defs>
     <g style="fill:#555555;" transform="translate(16.318125 137.238125)rotate(-90)scale(0.12 -0.12)">
      <use xlink:href="#DejaVuSans-43"/>
      <use x="69.824219" xlink:href="#DejaVuSans-6f"/>
      <use x="131.005859" xlink:href="#DejaVuSans-75"/>
      <use x="194.384766" xlink:href="#DejaVuSans-6e"/>
      <use x="257.763672" xlink:href="#DejaVuSans-74"/>
     </g>
    </g>
   </g>
   <g id="patch_3">
    <path clip-path="url(#pf3a4ec75d4)" d="M 66.792676 228.14 
L 71.404246 228.14 
L 71.404246 228.092547 
L 66.792676 228.092547 
z
" style="fill:#f08080;opacity:0.4;"/>
   </g>
   <g id="patch_4">
    <path clip-path="url(#pf3a4ec75d4)" d="M 71.404246 228.14 
L 76.015816 228.14 
L 76.015816 228.14 
L 71.404246 228.14 
z
" style="fill:#f08080;opacity:0.4;"/>
   </g>
   <g id="patch_5">
    <path clip-path="url(#pf3a4ec75d4)" d="M 76.015816 228.14 
L 80.627386 228.14 
L 80.627386 228.092547 
L 76.015816 228.092547 
z
" style="fill:#f08080;opacity:0.4;"/>
   </g>
   <g id="patch_6">
    <path clip-path="url(#pf3a4ec75d4)" d="M 80.627386 228.14 
L 85.238957 228.14 
L 85.238957 228.14 
L 80.627386 228.14 
z
" style="fill:#f08080;opacity:0.4;"/>
   </g>
   <g id="patch_7">
    <path clip-path="url(#pf3a4ec75d4)" d="M 85.238957 228.14 
L 89.850527 228.14 
L 89.850527 228.14 
L 85.238957 228.14 
z
" style="fill:#f08080;opacity:0.4;"/>
   </g>
   <g id="patch_8">
    <path clip-path="url(#pf3a4ec75d4)" d="M 89.850527 228.14 
L 94.462097 228.14 
L 94.462097 228.14 
L 89.850527 228.14 
z
" style="fill:#f08080;opacity:0.4;"/>
   </g>
   <g id="patch_9">
    <path clip-path="url(#pf3a4ec75d4)" d="M 94.462097 228.14 
L 99.073667 228.14 
L 99.073667 228.14 
L 94.462097 228.14 
z
" style="fill:#f08080;opacity:0.4;"/>
   </g>
   <g id="patch_10">
    <path clip-path="url(#pf3a4ec75d4)" d="M 99.073667 228.14 
L 103.685238 228.14 
L 103.685238 228.092547 
L 99.073667 228.092547 
z
" style="fill:#f08080;opacity:0.4;"/>
   </g>
   <g id="patch_11">
    <path clip-path="url(#pf3a4ec75d4)" d="M 103.685238 228.14 
L 108.296808 228.14 
L 108.296808 227.902734 
L 103.685238 227.902734 
z
" style="fill:#f08080;opacity:0.4;"/>
   </g>
   <g id="patch_12">
    <path clip-path="url(#pf3a4ec75d4)" d="M 108.296808 228.14 
L 112.908378 228.14 
L 112.908378 227.950187 
L 108.296808 227.950187 
z
" style="fill:#f08080;opacity:0.4;"/>
   </g>
   <g id="patch_13">
    <path clip-path="url(#pf3a4ec75d4)" d="M 112.908378 228.14 
L 117.519948 228.14 
L 117.519948 227.99764 
L 112.908378 227.99764 
z
" style="fill:#f08080;opacity:0.4;"/>
   </g>
   <g id="patch_14">
    <path clip-path="url(#pf3a4ec75d4)" d="M 117.519948 228.14 
L 122.131519 228.14 
L 122.131519 227.760374 
L 117.519948 227.760374 
z
" style="fill:#f08080;opacity:0.4;"/>
   </g>
   <g id="patch_15">
    <path clip-path="url(#pf3a4ec75d4)" d="M 122.131519 228.14 
L 126.743089 228.14 
L 126.743089 227.665468 
L 122.131519 227.665468 
z
" style="fill:#f08080;opacity:0.4;"/>
   </g>
   <g id="patch_16">
    <path clip-path="url(#pf3a4ec75d4)" d="M 126.743089 228.14 
L 131.354659 228.14 
L 131.354659 227.380749 
L 126.743089 227.380749 
z
" style="fill:#f08080;opacity:0.4;"/>
   </g>
   <g id="patch_17">
    <path clip-path="url(#pf3a4ec75d4)" d="M 131.354659 228.14 
L 135.966229 228.14 
L 135.966229 227.190936 
L 131.354659 227.190936 
z
" style="fill:#f08080;opacity:0.4;"/>
   </g>
   <g id="patch_18">
    <path clip-path="url(#pf3a4ec75d4)" d="M 135.966229 228.14 
L 140.5778 228.14 
L 140.5778 226.716404 
L 135.966229 226.716404 
z
" style="fill:#f08080;opacity:0.4;"/>
   </g>
   <g id="patch_19">
    <path clip-path="url(#pf3a4ec75d4)" d="M 140.5778 228.14 
L 145.18937 228.14 
L 145.18937 226.336779 
L 140.5778 226.336779 
z
" style="fill:#f08080;opacity:0.4;"/>
   </g>
   <g id="patch_20">
    <path clip-path="url(#pf3a4ec75d4)" d="M 145.18937 228.14 
L 149.80094 228.14 
L 149.80094 225.482621 
L 145.18937 225.482621 
z
" style="fill:#f08080;opacity:0.4;"/>
   </g>
   <g id="patch_21">
    <path clip-path="url(#pf3a4ec75d4)" d="M 149.80094 228.14 
L 154.41251 228.14 
L 154.41251 223.631947 
L 149.80094 223.631947 
z
" style="fill:#f08080;opacity:0.4;"/>
   </g>
   <g id="patch_22">
    <path clip-path="url(#pf3a4ec75d4)" d="M 154.41251 228.14 
L 159.024081 228.14 
L 159.024081 222.967602 
L 154.41251 222.967602 
z
" style="fill:#f08080;opacity:0.4;"/>
   </g>
   <g id="patch_23">
    <path clip-path="url(#pf3a4ec75d4)" d="M 159.024081 228.14 
L 163.635651 228.14 
L 163.635651 222.208351 
L 159.024081 222.208351 
z
" style="fill:#f08080;opacity:0.4;"/>
   </g>
   <g id="patch_24">
    <path clip-path="url(#pf3a4ec75d4)" d="M 163.635651 228.14 
L 168.247221 228.14 
L 168.247221 220.40513 
L 163.635651 220.40513 
z
" style="fill:#f08080;opacity:0.4;"/>
   </g>
   <g id="patch_25">
    <path clip-path="url(#pf3a4ec75d4)" d="M 168.247221 228.14 
L 172.858791 228.14 
L 172.858791 217.368126 
L 168.247221 217.368126 
z
" style="fill:#f08080;opacity:0.4;"/>
   </g>
   <g id="patch_26">
    <path clip-path="url(#pf3a4ec75d4)" d="M 172.858791 228.14 
L 177.470362 228.14 
L 177.470362 215.137826 
L 172.858791 215.137826 
z
" style="fill:#f08080;opacity:0.4;"/>
   </g>
   <g id="patch_27">
    <path clip-path="url(#pf3a4ec75d4)" d="M 177.470362 228.14 
L 182.081932 228.14 
L 182.081932 208.49438 
L 177.470362 208.49438 
z
" style="fill:#f08080;opacity:0.4;"/>
   </g>
   <g id="patch_28">
    <path clip-path="url(#pf3a4ec75d4)" d="M 182.081932 228.14 
L 186.693502 228.14 
L 186.693502 203.511795 
L 182.081932 203.511795 
z
" style="fill:#f08080;opacity:0.4;"/>
   </g>
   <g id="patch_29">
    <path clip-path="url(#pf3a4ec75d4)" d="M 186.693502 228.14 
L 191.305072 228.14 
L 191.305072 195.966738 
L 186.693502 195.966738 
z
" style="fill:#f08080;opacity:0.4;"/>
   </g>
   <g id="patch_30">
    <path clip-path="url(#pf3a4ec75d4)" d="M 191.305072 228.14 
L 195.916643 228.14 
L 195.916643 189.323292 
L 191.305072 189.323292 
z
" style="fill:#f08080;opacity:0.4;"/>
   </g>
   <g id="patch_31">
    <path clip-path="url(#pf3a4ec75d4)" d="M 195.916643 228.14 
L 200.528213 228.14 
L 200.528213 176.653291 
L 195.916643 176.653291 
z
" style="fill:#f08080;opacity:0.4;"/>
   </g>
   <g id="patch_32">
    <path clip-path="url(#pf3a4ec75d4)" d="M 200.528213 228.14 
L 205.139783 228.14 
L 205.139783 163.556211 
L 200.528213 163.556211 
z
" style="fill:#f08080;opacity:0.4;"/>
   </g>
   <g id="patch_33">
    <path clip-path="url(#pf3a4ec75d4)" d="M 205.139783 228.14 
L 209.751353 228.14 
L 209.751353 147.32722 
L 205.139783 147.32722 
z
" style="fill:#f08080;opacity:0.4;"/>
   </g>
   <g id="patch_34">
    <path clip-path="url(#pf3a4ec75d4)" d="M 209.751353 228.14 
L 214.362924 228.14 
L 214.362924 130.338979 
L 209.751353 130.338979 
z
" style="fill:#f08080;opacity:0.4;"/>
   </g>
   <g id="patch_35">
    <path clip-path="url(#pf3a4ec75d4)" d="M 214.362924 228.14 
L 218.974494 228.14 
L 218.974494 112.828752 
L 214.362924 112.828752 
z
" style="fill:#f08080;opacity:0.4;"/>
   </g>
   <g id="patch_36">
    <path clip-path="url(#pf3a4ec75d4)" d="M 218.974494 228.14 
L 223.586064 228.14 
L 223.586064 84.926277 
L 218.974494 84.926277 
z
" style="fill:#f08080;opacity:0.4;"/>
   </g>
   <g id="patch_37">
    <path clip-path="url(#pf3a4ec75d4)" d="M 223.586064 228.14 
L 228.197634 228.14 
L 228.197634 64.141781 
L 223.586064 64.141781 
z
" style="fill:#f08080;opacity:0.4;"/>
   </g>
   <g id="patch_38">
    <path clip-path="url(#pf3a4ec75d4)" d="M 228.197634 228.14 
L 232.809205 228.14 
L 232.809205 47.533165 
L 228.197634 47.533165 
z
" style="fill:#f08080;opacity:0.4;"/>
   </g>
   <g id="patch_39">
    <path clip-path="url(#pf3a4ec75d4)" d="M 232.809205 228.14 
L 237.420775 228.14 
L 237.420775 41.648969 
L 232.809205 41.648969 
z
" style="fill:#f08080;opacity:0.4;"/>
   </g>
   <g id="patch_40">
    <path clip-path="url(#pf3a4ec75d4)" d="M 237.420775 228.14 
L 242.032345 228.14 
L 242.032345 32.253238 
L 237.420775 32.253238 
z
" style="fill:#f08080;opacity:0.4;"/>
   </g>
   <g id="patch_41">
    <path clip-path="url(#pf3a4ec75d4)" d="M 242.032345 228.14 
L 246.643915 228.14 
L 246.643915 28.551889 
L 242.032345 28.551889 
z
" style="fill:#f08080;opacity:0.4;"/>
   </g>
   <g id="patch_42">
    <path clip-path="url(#pf3a4ec75d4)" d="M 246.643915 228.14 
L 251.255486 228.14 
L 251.255486 28.314624 
L 246.643915 28.314624 
z
" style="fill:#f08080;opacity:0.4;"/>
   </g>
   <g id="patch_43">
    <path clip-path="url(#pf3a4ec75d4)" d="M 251.255486 228.14 
L 255.867056 228.14 
L 255.867056 21.054286 
L 251.255486 21.054286 
z
" style="fill:#f08080;opacity:0.4;"/>
   </g>
   <g id="patch_44">
    <path clip-path="url(#pf3a4ec75d4)" d="M 255.867056 228.14 
L 260.478626 228.14 
L 260.478626 41.174438 
L 255.867056 41.174438 
z
" style="fill:#f08080;opacity:0.4;"/>
   </g>
   <g id="patch_45">
    <path clip-path="url(#pf3a4ec75d4)" d="M 260.478626 228.14 
L 265.090196 228.14 
L 265.090196 59.728634 
L 260.478626 59.728634 
z
" style="fill:#f08080;opacity:0.4;"/>
   </g>
   <g id="patch_46">
    <path clip-path="url(#pf3a4ec75d4)" d="M 265.090196 228.14 
L 269.701767 228.14 
L 269.701767 79.61152 
L 265.090196 79.61152 
z
" style="fill:#f08080;opacity:0.4;"/>
   </g>
   <g id="patch_47">
    <path clip-path="url(#pf3a4ec75d4)" d="M 269.701767 228.14 
L 274.313337 228.14 
L 274.313337 102.578863 
L 269.701767 102.578863 
z
" style="fill:#f08080;opacity:0.4;"/>
   </g>
   <g id="patch_48">
    <path clip-path="url(#pf3a4ec75d4)" d="M 274.313337 228.14 
L 278.924907 228.14 
L 278.924907 125.119128 
L 274.313337 125.119128 
z
" style="fill:#f08080;opacity:0.4;"/>
   </g>
   <g id="patch_49">
    <path clip-path="url(#pf3a4ec75d4)" d="M 278.924907 228.14 
L 283.536477 228.14 
L 283.536477 146.805235 
L 278.924907 146.805235 
z
" style="fill:#f08080;opacity:0.4;"/>
   </g>
   <g id="patch_50">
    <path clip-path="url(#pf3a4ec75d4)" d="M 283.536477 228.14 
L 288.148048 228.14 
L 288.148048 166.783027 
L 283.536477 166.783027 
z
" style="fill:#f08080;opacity:0.4;"/>
   </g>
   <g id="patch_51">
    <path clip-path="url(#pf3a4ec75d4)" d="M 288.148048 228.14 
L 292.759618 228.14 
L 292.759618 188.611494 
L 288.148048 188.611494 
z
" style="fill:#f08080;opacity:0.4;"/>
   </g>
   <g id="patch_52">
    <path clip-path="url(#pf3a4ec75d4)" d="M 292.759618 228.14 
L 297.371188 228.14 
L 297.371188 211.483931 
L 292.759618 211.483931 
z
" style="fill:#f08080;opacity:0.4;"/>
   </g>
   <g id="patch_53">
    <path d="M 55.26375 228.14 
L 55.26375 10.7 
" style="fill:none;stroke:#ffffff;stroke-linecap:square;stroke-linejoin:miter;"/>
   </g>
   <g id="patch_54">
    <path d="M 308.900114 228.14 
L 308.900114 10.7 
" style="fill:none;stroke:#ffffff;stroke-linecap:square;stroke-linejoin:miter;"/>
   </g>
   <g id="patch_55">
    <path d="M 55.26375 228.14 
L 308.900114 228.14 
" style="fill:none;stroke:#ffffff;stroke-linecap:square;stroke-linejoin:miter;"/>
   </g>
   <g id="patch_56">
    <path d="M 55.26375 10.7 
L 308.900114 10.7 
" style="fill:none;stroke:#ffffff;stroke-linecap:square;stroke-linejoin:miter;"/>
   </g>
  </g>
  <g id="axes_2">
   <g id="patch_57">
    <path d="M 359.627386 228.14 
L 613.26375 228.14 
L 613.26375 10.7 
L 359.627386 10.7 
z
" style="fill:#e5e5e5;"/>
   </g>
   <g id="matplotlib.axis_3">
    <g id="xtick_5">
     <g id="line2d_19">
      <path clip-path="url(#paa94ce1d25)" d="M 371.156312 228.14 
L 371.156312 10.7 
" style="fill:none;stroke:#ffffff;stroke-linecap:square;stroke-width:0.8;"/>
     </g>
     <g id="line2d_20">
      <g>
       <use style="fill:#555555;stroke:#555555;stroke-width:0.8;" x="371.156312" xlink:href="#m7b5ef34a79" y="228.14"/>
      </g>
     </g>
     <g id="text_12">
      <!-- 1 -->
      <g style="fill:#555555;" transform="translate(367.975062 242.738437)scale(0.1 -0.1)">
       <use xlink:href="#DejaVuSans-31"/>
      </g>
     </g>
    </g>
    <g id="xtick_6">
     <g id="line2d_21">
      <path clip-path="url(#paa94ce1d25)" d="M 428.80094 228.14 
L 428.80094 10.7 
" style="fill:none;stroke:#ffffff;stroke-linecap:square;stroke-width:0.8;"/>
     </g>
     <g id="line2d_22">
      <g>
       <use style="fill:#555555;stroke:#555555;stroke-width:0.8;" x="428.80094" xlink:href="#m7b5ef34a79" y="228.14"/>
      </g>
     </g>
     <g id="text_13">
      <!-- 2 -->
      <g style="fill:#555555;" transform="translate(425.61969 242.738437)scale(0.1 -0.1)">
       <use xlink:href="#DejaVuSans-32"/>
      </g>
     </g>
    </g>
    <g id="xtick_7">
     <g id="line2d_23">
      <path clip-path="url(#paa94ce1d25)" d="M 486.445568 228.14 
L 486.445568 10.7 
" style="fill:none;stroke:#ffffff;stroke-linecap:square;stroke-width:0.8;"/>
     </g>
     <g id="line2d_24">
      <g>
       <use style="fill:#555555;stroke:#555555;stroke-width:0.8;" x="486.445568" xlink:href="#m7b5ef34a79" y="228.14"/>
      </g>
     </g>
     <g id="text_14">
      <!-- 3 -->
      <g style="fill:#555555;" transform="translate(483.264318 242.738437)scale(0.1 -0.1)">
       <use xlink:href="#DejaVuSans-33"/>
      </g>
     </g>
    </g>
    <g id="xtick_8">
     <g id="line2d_25">
      <path clip-path="url(#paa94ce1d25)" d="M 544.090196 228.14 
L 544.090196 10.7 
" style="fill:none;stroke:#ffffff;stroke-linecap:square;stroke-width:0.8;"/>
     </g>
     <g id="line2d_26">
      <g>
       <use style="fill:#555555;stroke:#555555;stroke-width:0.8;" x="544.090196" xlink:href="#m7b5ef34a79" y="228.14"/>
      </g>
     </g>
     <g id="text_15">
      <!-- 4 -->
      <g style="fill:#555555;" transform="translate(540.908946 242.738437)scale(0.1 -0.1)">
       <use xlink:href="#DejaVuSans-34"/>
      </g>
     </g>
    </g>
    <g id="xtick_9">
     <g id="line2d_27">
      <path clip-path="url(#paa94ce1d25)" d="M 601.734824 228.14 
L 601.734824 10.7 
" style="fill:none;stroke:#ffffff;stroke-linecap:square;stroke-width:0.8;"/>
     </g>
     <g id="line2d_28">
      <g>
       <use style="fill:#555555;stroke:#555555;stroke-width:0.8;" x="601.734824" xlink:href="#m7b5ef34a79" y="228.14"/>
      </g>
     </g>
     <g id="text_16">
      <!-- 5 -->
      <g style="fill:#555555;" transform="translate(598.553574 242.738437)scale(0.1 -0.1)">
       <use xlink:href="#DejaVuSans-35"/>
      </g>
     </g>
    </g>
    <g id="text_17">
     <!-- Review Rating -->
     <defs>
      <path d="M 34.28125 27.484375 
Q 23.390625 27.484375 19.1875 25 
Q 14.984375 22.515625 14.984375 16.5 
Q 14.984375 11.71875 18.140625 8.90625 
Q 21.296875 6.109375 26.703125 6.109375 
Q 34.1875 6.109375 38.703125 11.40625 
Q 43.21875 16.703125 43.21875 25.484375 
L 43.21875 27.484375 
z
M 52.203125 31.203125 
L 52.203125 0 
L 43.21875 0 
L 43.21875 8.296875 
Q 40.140625 3.328125 35.546875 0.953125 
Q 30.953125 -1.421875 24.3125 -1.421875 
Q 15.921875 -1.421875 10.953125 3.296875 
Q 6 8.015625 6 15.921875 
Q 6 25.140625 12.171875 29.828125 
Q 18.359375 34.515625 30.609375 34.515625 
L 43.21875 34.515625 
L 43.21875 35.40625 
Q 43.21875 41.609375 39.140625 45 
Q 35.0625 48.390625 27.6875 48.390625 
Q 23 48.390625 18.546875 47.265625 
Q 14.109375 46.140625 10.015625 43.890625 
L 10.015625 52.203125 
Q 14.9375 54.109375 19.578125 55.046875 
Q 24.21875 56 28.609375 56 
Q 40.484375 56 46.34375 49.84375 
Q 52.203125 43.703125 52.203125 31.203125 
z
" id="DejaVuSans-61"/>
      <path d="M 45.40625 27.984375 
Q 45.40625 37.75 41.375 43.109375 
Q 37.359375 48.484375 30.078125 48.484375 
Q 22.859375 48.484375 18.828125 43.109375 
Q 14.796875 37.75 14.796875 27.984375 
Q 14.796875 18.265625 18.828125 12.890625 
Q 22.859375 7.515625 30.078125 7.515625 
Q 37.359375 7.515625 41.375 12.890625 
Q 45.40625 18.265625 45.40625 27.984375 
z
M 54.390625 6.78125 
Q 54.390625 -7.171875 48.1875 -13.984375 
Q 42 -20.796875 29.203125 -20.796875 
Q 24.46875 -20.796875 20.265625 -20.09375 
Q 16.0625 -19.390625 12.109375 -17.921875 
L 12.109375 -9.1875 
Q 16.0625 -11.328125 19.921875 -12.34375 
Q 23.78125 -13.375 27.78125 -13.375 
Q 36.625 -13.375 41.015625 -8.765625 
Q 45.40625 -4.15625 45.40625 5.171875 
L 45.40625 9.625 
Q 42.625 4.78125 38.28125 2.390625 
Q 33.9375 0 27.875 0 
Q 17.828125 0 11.671875 7.65625 
Q 5.515625 15.328125 5.515625 27.984375 
Q 5.515625 40.671875 11.671875 48.328125 
Q 17.828125 56 27.875 56 
Q 33.9375 56 38.28125 53.609375 
Q 42.625 51.21875 45.40625 46.390625 
L 45.40625 54.6875 
L 54.390625 54.6875 
z
" id="DejaVuSans-67"/>
     </defs>
     <g style="fill:#555555;" transform="translate(443.389943 257.93625)scale(0.12 -0.12)">
      <use xlink:href="#DejaVuSans-52"/>
      <use x="69.419922" xlink:href="#DejaVuSans-65"/>
      <use x="130.943359" xlink:href="#DejaVuSans-76"/>
      <use x="190.123047" xlink:href="#DejaVuSans-69"/>
      <use x="217.90625" xlink:href="#DejaVuSans-65"/>
      <use x="279.429688" xlink:href="#DejaVuSans-77"/>
      <use x="361.216797" xlink:href="#DejaVuSans-20"/>
      <use x="393.003906" xlink:href="#DejaVuSans-52"/>
      <use x="462.455078" xlink:href="#DejaVuSans-61"/>
      <use x="523.734375" xlink:href="#DejaVuSans-74"/>
      <use x="562.943359" xlink:href="#DejaVuSans-69"/>
      <use x="590.726562" xlink:href="#DejaVuSans-6e"/>
      <use x="654.105469" xlink:href="#DejaVuSans-67"/>
     </g>
    </g>
   </g>
   <g id="matplotlib.axis_4">
    <g id="ytick_6">
     <g id="line2d_29">
      <path clip-path="url(#paa94ce1d25)" d="M 359.627386 228.14 
L 613.26375 228.14 
" style="fill:none;stroke:#ffffff;stroke-linecap:square;stroke-width:0.8;"/>
     </g>
     <g id="line2d_30">
      <g>
       <use style="fill:#555555;stroke:#555555;stroke-width:0.8;" x="359.627386" xlink:href="#m5170ccdcd3" y="228.14"/>
      </g>
     </g>
     <g id="text_18">
      <!-- 0 -->
      <g style="fill:#555555;" transform="translate(346.264886 231.939219)scale(0.1 -0.1)">
       <use xlink:href="#DejaVuSans-30"/>
      </g>
     </g>
    </g>
    <g id="ytick_7">
     <g id="line2d_31">
      <path clip-path="url(#paa94ce1d25)" d="M 359.627386 182.243343 
L 613.26375 182.243343 
" style="fill:none;stroke:#ffffff;stroke-linecap:square;stroke-width:0.8;"/>
     </g>
     <g id="line2d_32">
      <g>
       <use style="fill:#555555;stroke:#555555;stroke-width:0.8;" x="359.627386" xlink:href="#m5170ccdcd3" y="182.243343"/>
      </g>
     </g>
     <g id="text_19">
      <!-- 1000 -->
      <g style="fill:#555555;" transform="translate(327.177386 186.042562)scale(0.1 -0.1)">
       <use xlink:href="#DejaVuSans-31"/>
       <use x="63.623047" xlink:href="#DejaVuSans-30"/>
       <use x="127.246094" xlink:href="#DejaVuSans-30"/>
       <use x="190.869141" xlink:href="#DejaVuSans-30"/>
      </g>
     </g>
    </g>
    <g id="ytick_8">
     <g id="line2d_33">
      <path clip-path="url(#paa94ce1d25)" d="M 359.627386 136.346687 
L 613.26375 136.346687 
" style="fill:none;stroke:#ffffff;stroke-linecap:square;stroke-width:0.8;"/>
     </g>
     <g id="line2d_34">
      <g>
       <use style="fill:#555555;stroke:#555555;stroke-width:0.8;" x="359.627386" xlink:href="#m5170ccdcd3" y="136.346687"/>
      </g>
     </g>
     <g id="text_20">
      <!-- 2000 -->
      <g style="fill:#555555;" transform="translate(327.177386 140.145906)scale(0.1 -0.1)">
       <use xlink:href="#DejaVuSans-32"/>
       <use x="63.623047" xlink:href="#DejaVuSans-30"/>
       <use x="127.246094" xlink:href="#DejaVuSans-30"/>
       <use x="190.869141" xlink:href="#DejaVuSans-30"/>
      </g>
     </g>
    </g>
    <g id="ytick_9">
     <g id="line2d_35">
      <path clip-path="url(#paa94ce1d25)" d="M 359.627386 90.45003 
L 613.26375 90.45003 
" style="fill:none;stroke:#ffffff;stroke-linecap:square;stroke-width:0.8;"/>
     </g>
     <g id="line2d_36">
      <g>
       <use style="fill:#555555;stroke:#555555;stroke-width:0.8;" x="359.627386" xlink:href="#m5170ccdcd3" y="90.45003"/>
      </g>
     </g>
     <g id="text_21">
      <!-- 3000 -->
      <g style="fill:#555555;" transform="translate(327.177386 94.249249)scale(0.1 -0.1)">
       <use xlink:href="#DejaVuSans-33"/>
       <use x="63.623047" xlink:href="#DejaVuSans-30"/>
       <use x="127.246094" xlink:href="#DejaVuSans-30"/>
       <use x="190.869141" xlink:href="#DejaVuSans-30"/>
      </g>
     </g>
    </g>
    <g id="ytick_10">
     <g id="line2d_37">
      <path clip-path="url(#paa94ce1d25)" d="M 359.627386 44.553374 
L 613.26375 44.553374 
" style="fill:none;stroke:#ffffff;stroke-linecap:square;stroke-width:0.8;"/>
     </g>
     <g id="line2d_38">
      <g>
       <use style="fill:#555555;stroke:#555555;stroke-width:0.8;" x="359.627386" xlink:href="#m5170ccdcd3" y="44.553374"/>
      </g>
     </g>
     <g id="text_22">
      <!-- 4000 -->
      <g style="fill:#555555;" transform="translate(327.177386 48.352593)scale(0.1 -0.1)">
       <use xlink:href="#DejaVuSans-34"/>
       <use x="63.623047" xlink:href="#DejaVuSans-30"/>
       <use x="127.246094" xlink:href="#DejaVuSans-30"/>
       <use x="190.869141" xlink:href="#DejaVuSans-30"/>
      </g>
     </g>
    </g>
    <g id="text_23">
     <!-- Count -->
     <g style="fill:#555555;" transform="translate(320.681761 137.238125)rotate(-90)scale(0.12 -0.12)">
      <use xlink:href="#DejaVuSans-43"/>
      <use x="69.824219" xlink:href="#DejaVuSans-6f"/>
      <use x="131.005859" xlink:href="#DejaVuSans-75"/>
      <use x="194.384766" xlink:href="#DejaVuSans-6e"/>
      <use x="257.763672" xlink:href="#DejaVuSans-74"/>
     </g>
    </g>
   </g>
   <g id="patch_58">
    <path clip-path="url(#paa94ce1d25)" d="M 371.156312 228.14 
L 375.767882 228.14 
L 375.767882 227.635137 
L 371.156312 227.635137 
z
" style="fill:#f08080;opacity:0.4;"/>
   </g>
   <g id="patch_59">
    <path clip-path="url(#paa94ce1d25)" d="M 375.767882 228.14 
L 380.379452 228.14 
L 380.379452 228.094103 
L 375.767882 228.094103 
z
" style="fill:#f08080;opacity:0.4;"/>
   </g>
   <g id="patch_60">
    <path clip-path="url(#paa94ce1d25)" d="M 380.379452 228.14 
L 384.991023 228.14 
L 384.991023 227.910517 
L 380.379452 227.910517 
z
" style="fill:#f08080;opacity:0.4;"/>
   </g>
   <g id="patch_61">
    <path clip-path="url(#paa94ce1d25)" d="M 384.991023 228.14 
L 389.602593 228.14 
L 389.602593 228.00231 
L 384.991023 228.00231 
z
" style="fill:#f08080;opacity:0.4;"/>
   </g>
   <g id="patch_62">
    <path clip-path="url(#paa94ce1d25)" d="M 389.602593 228.14 
L 394.214163 228.14 
L 394.214163 227.910517 
L 389.602593 227.910517 
z
" style="fill:#f08080;opacity:0.4;"/>
   </g>
   <g id="patch_63">
    <path clip-path="url(#paa94ce1d25)" d="M 394.214163 228.14 
L 398.825733 228.14 
L 398.825733 227.635137 
L 394.214163 227.635137 
z
" style="fill:#f08080;opacity:0.4;"/>
   </g>
   <g id="patch_64">
    <path clip-path="url(#paa94ce1d25)" d="M 398.825733 228.14 
L 403.437304 228.14 
L 403.437304 227.58924 
L 398.825733 227.58924 
z
" style="fill:#f08080;opacity:0.4;"/>
   </g>
   <g id="patch_65">
    <path clip-path="url(#paa94ce1d25)" d="M 403.437304 228.14 
L 408.048874 228.14 
L 408.048874 226.90079 
L 403.437304 226.90079 
z
" style="fill:#f08080;opacity:0.4;"/>
   </g>
   <g id="patch_66">
    <path clip-path="url(#paa94ce1d25)" d="M 408.048874 228.14 
L 412.660444 228.14 
L 412.660444 227.17617 
L 408.048874 227.17617 
z
" style="fill:#f08080;opacity:0.4;"/>
   </g>
   <g id="patch_67">
    <path clip-path="url(#paa94ce1d25)" d="M 412.660444 228.14 
L 417.272014 228.14 
L 417.272014 227.772827 
L 412.660444 227.772827 
z
" style="fill:#f08080;opacity:0.4;"/>
   </g>
   <g id="patch_68">
    <path clip-path="url(#paa94ce1d25)" d="M 417.272014 228.14 
L 421.883585 228.14 
L 421.883585 225.110821 
L 417.272014 225.110821 
z
" style="fill:#f08080;opacity:0.4;"/>
   </g>
   <g id="patch_69">
    <path clip-path="url(#paa94ce1d25)" d="M 421.883585 228.14 
L 426.495155 228.14 
L 426.495155 227.497447 
L 421.883585 227.497447 
z
" style="fill:#f08080;opacity:0.4;"/>
   </g>
   <g id="patch_70">
    <path clip-path="url(#paa94ce1d25)" d="M 426.495155 228.14 
L 431.106725 228.14 
L 431.106725 223.412644 
L 426.495155 223.412644 
z
" style="fill:#f08080;opacity:0.4;"/>
   </g>
   <g id="patch_71">
    <path clip-path="url(#paa94ce1d25)" d="M 431.106725 228.14 
L 435.718295 228.14 
L 435.718295 227.222067 
L 431.106725 227.222067 
z
" style="fill:#f08080;opacity:0.4;"/>
   </g>
   <g id="patch_72">
    <path clip-path="url(#paa94ce1d25)" d="M 435.718295 228.14 
L 440.329866 228.14 
L 440.329866 224.284681 
L 435.718295 224.284681 
z
" style="fill:#f08080;opacity:0.4;"/>
   </g>
   <g id="patch_73">
    <path clip-path="url(#paa94ce1d25)" d="M 440.329866 228.14 
L 444.941436 228.14 
L 444.941436 222.035745 
L 440.329866 222.035745 
z
" style="fill:#f08080;opacity:0.4;"/>
   </g>
   <g id="patch_74">
    <path clip-path="url(#paa94ce1d25)" d="M 444.941436 228.14 
L 449.553006 228.14 
L 449.553006 222.953678 
L 444.941436 222.953678 
z
" style="fill:#f08080;opacity:0.4;"/>
   </g>
   <g id="patch_75">
    <path clip-path="url(#paa94ce1d25)" d="M 449.553006 228.14 
L 454.164576 228.14 
L 454.164576 218.455805 
L 449.553006 218.455805 
z
" style="fill:#f08080;opacity:0.4;"/>
   </g>
   <g id="patch_76">
    <path clip-path="url(#paa94ce1d25)" d="M 454.164576 228.14 
L 458.776147 228.14 
L 458.776147 221.530881 
L 454.164576 221.530881 
z
" style="fill:#f08080;opacity:0.4;"/>
   </g>
   <g id="patch_77">
    <path clip-path="url(#paa94ce1d25)" d="M 458.776147 228.14 
L 463.387717 228.14 
L 463.387717 223.045471 
L 458.776147 223.045471 
z
" style="fill:#f08080;opacity:0.4;"/>
   </g>
   <g id="patch_78">
    <path clip-path="url(#paa94ce1d25)" d="M 463.387717 228.14 
L 467.999287 228.14 
L 467.999287 211.617204 
L 463.387717 211.617204 
z
" style="fill:#f08080;opacity:0.4;"/>
   </g>
   <g id="patch_79">
    <path clip-path="url(#paa94ce1d25)" d="M 467.999287 228.14 
L 472.610857 228.14 
L 472.610857 218.868875 
L 467.999287 218.868875 
z
" style="fill:#f08080;opacity:0.4;"/>
   </g>
   <g id="patch_80">
    <path clip-path="url(#paa94ce1d25)" d="M 472.610857 228.14 
L 477.222428 228.14 
L 477.222428 204.732705 
L 472.610857 204.732705 
z
" style="fill:#f08080;opacity:0.4;"/>
   </g>
   <g id="patch_81">
    <path clip-path="url(#paa94ce1d25)" d="M 477.222428 228.14 
L 481.833998 228.14 
L 481.833998 211.52541 
L 477.222428 211.52541 
z
" style="fill:#f08080;opacity:0.4;"/>
   </g>
   <g id="patch_82">
    <path clip-path="url(#paa94ce1d25)" d="M 481.833998 228.14 
L 486.445568 228.14 
L 486.445568 224.101094 
L 481.833998 224.101094 
z
" style="fill:#f08080;opacity:0.4;"/>
   </g>
   <g id="patch_83">
    <path clip-path="url(#paa94ce1d25)" d="M 486.445568 228.14 
L 491.057138 228.14 
L 491.057138 186.236353 
L 486.445568 186.236353 
z
" style="fill:#f08080;opacity:0.4;"/>
   </g>
   <g id="patch_84">
    <path clip-path="url(#paa94ce1d25)" d="M 491.057138 228.14 
L 495.668709 228.14 
L 495.668709 201.106869 
L 491.057138 201.106869 
z
" style="fill:#f08080;opacity:0.4;"/>
   </g>
   <g id="patch_85">
    <path clip-path="url(#paa94ce1d25)" d="M 495.668709 228.14 
L 500.280279 228.14 
L 500.280279 183.069483 
L 495.668709 183.069483 
z
" style="fill:#f08080;opacity:0.4;"/>
   </g>
   <g id="patch_86">
    <path clip-path="url(#paa94ce1d25)" d="M 500.280279 228.14 
L 504.891849 228.14 
L 504.891849 195.140304 
L 500.280279 195.140304 
z
" style="fill:#f08080;opacity:0.4;"/>
   </g>
   <g id="patch_87">
    <path clip-path="url(#paa94ce1d25)" d="M 504.891849 228.14 
L 509.503419 228.14 
L 509.503419 186.878906 
L 504.891849 186.878906 
z
" style="fill:#f08080;opacity:0.4;"/>
   </g>
   <g id="patch_88">
    <path clip-path="url(#paa94ce1d25)" d="M 509.503419 228.14 
L 514.11499 228.14 
L 514.11499 165.077994 
L 509.503419 165.077994 
z
" style="fill:#f08080;opacity:0.4;"/>
   </g>
   <g id="patch_89">
    <path clip-path="url(#paa94ce1d25)" d="M 514.11499 228.14 
L 518.72656 228.14 
L 518.72656 167.74 
L 514.11499 167.74 
z
" style="fill:#f08080;opacity:0.4;"/>
   </g>
   <g id="patch_90">
    <path clip-path="url(#paa94ce1d25)" d="M 518.72656 228.14 
L 523.33813 228.14 
L 523.33813 143.736049 
L 518.72656 143.736049 
z
" style="fill:#f08080;opacity:0.4;"/>
   </g>
   <g id="patch_91">
    <path clip-path="url(#paa94ce1d25)" d="M 523.33813 228.14 
L 527.9497 228.14 
L 527.9497 141.211733 
L 523.33813 141.211733 
z
" style="fill:#f08080;opacity:0.4;"/>
   </g>
   <g id="patch_92">
    <path clip-path="url(#paa94ce1d25)" d="M 527.9497 228.14 
L 532.561271 228.14 
L 532.561271 123.587416 
L 527.9497 123.587416 
z
" style="fill:#f08080;opacity:0.4;"/>
   </g>
   <g id="patch_93">
    <path clip-path="url(#paa94ce1d25)" d="M 532.561271 228.14 
L 537.172841 228.14 
L 537.172841 126.708389 
L 532.561271 126.708389 
z
" style="fill:#f08080;opacity:0.4;"/>
   </g>
   <g id="patch_94">
    <path clip-path="url(#paa94ce1d25)" d="M 537.172841 228.14 
L 541.784411 228.14 
L 541.784411 145.112948 
L 537.172841 145.112948 
z
" style="fill:#f08080;opacity:0.4;"/>
   </g>
   <g id="patch_95">
    <path clip-path="url(#paa94ce1d25)" d="M 541.784411 228.14 
L 546.395981 228.14 
L 546.395981 45.792584 
L 541.784411 45.792584 
z
" style="fill:#f08080;opacity:0.4;"/>
   </g>
   <g id="patch_96">
    <path clip-path="url(#paa94ce1d25)" d="M 546.395981 228.14 
L 551.007552 228.14 
L 551.007552 119.319027 
L 546.395981 119.319027 
z
" style="fill:#f08080;opacity:0.4;"/>
   </g>
   <g id="patch_97">
    <path clip-path="url(#paa94ce1d25)" d="M 551.007552 228.14 
L 555.619122 228.14 
L 555.619122 76.772827 
L 551.007552 76.772827 
z
" style="fill:#f08080;opacity:0.4;"/>
   </g>
   <g id="patch_98">
    <path clip-path="url(#paa94ce1d25)" d="M 555.619122 228.14 
L 560.230692 228.14 
L 560.230692 43.451854 
L 555.619122 43.451854 
z
" style="fill:#f08080;opacity:0.4;"/>
   </g>
   <g id="patch_99">
    <path clip-path="url(#paa94ce1d25)" d="M 560.230692 228.14 
L 564.842262 228.14 
L 564.842262 50.978906 
L 560.230692 50.978906 
z
" style="fill:#f08080;opacity:0.4;"/>
   </g>
   <g id="patch_100">
    <path clip-path="url(#paa94ce1d25)" d="M 564.842262 228.14 
L 569.453833 228.14 
L 569.453833 21.100182 
L 564.842262 21.100182 
z
" style="fill:#f08080;opacity:0.4;"/>
   </g>
   <g id="patch_101">
    <path clip-path="url(#paa94ce1d25)" d="M 569.453833 228.14 
L 574.065403 228.14 
L 574.065403 50.290456 
L 569.453833 50.290456 
z
" style="fill:#f08080;opacity:0.4;"/>
   </g>
   <g id="patch_102">
    <path clip-path="url(#paa94ce1d25)" d="M 574.065403 228.14 
L 578.676973 228.14 
L 578.676973 91.41386 
L 574.065403 91.41386 
z
" style="fill:#f08080;opacity:0.4;"/>
   </g>
   <g id="patch_103">
    <path clip-path="url(#paa94ce1d25)" d="M 578.676973 228.14 
L 583.288543 228.14 
L 583.288543 21.054286 
L 578.676973 21.054286 
z
" style="fill:#f08080;opacity:0.4;"/>
   </g>
   <g id="patch_104">
    <path clip-path="url(#paa94ce1d25)" d="M 583.288543 228.14 
L 587.900114 228.14 
L 587.900114 105.871307 
L 583.288543 105.871307 
z
" style="fill:#f08080;opacity:0.4;"/>
   </g>
   <g id="patch_105">
    <path clip-path="url(#paa94ce1d25)" d="M 587.900114 228.14 
L 592.511684 228.14 
L 592.511684 73.743647 
L 587.900114 73.743647 
z
" style="fill:#f08080;opacity:0.4;"/>
   </g>
   <g id="patch_106">
    <path clip-path="url(#paa94ce1d25)" d="M 592.511684 228.14 
L 597.123254 228.14 
L 597.123254 149.702614 
L 592.511684 149.702614 
z
" style="fill:#f08080;opacity:0.4;"/>
   </g>
   <g id="patch_107">
    <path clip-path="url(#paa94ce1d25)" d="M 597.123254 228.14 
L 601.734824 228.14 
L 601.734824 117.345471 
L 597.123254 117.345471 
z
" style="fill:#f08080;opacity:0.4;"/>
   </g>
   <g id="patch_108">
    <path d="M 359.627386 228.14 
L 359.627386 10.7 
" style="fill:none;stroke:#ffffff;stroke-linecap:square;stroke-linejoin:miter;"/>
   </g>
   <g id="patch_109">
    <path d="M 613.26375 228.14 
L 613.26375 10.7 
" style="fill:none;stroke:#ffffff;stroke-linecap:square;stroke-linejoin:miter;"/>
   </g>
   <g id="patch_110">
    <path d="M 359.627386 228.14 
L 613.26375 228.14 
" style="fill:none;stroke:#ffffff;stroke-linecap:square;stroke-linejoin:miter;"/>
   </g>
   <g id="patch_111">
    <path d="M 359.627386 10.7 
L 613.26375 10.7 
" style="fill:none;stroke:#ffffff;stroke-linecap:square;stroke-linejoin:miter;"/>
   </g>
  </g>
 </g>
 <defs>
  <clipPath id="pf3a4ec75d4">
   <rect height="217.44" width="253.636364" x="55.26375" y="10.7"/>
  </clipPath>
  <clipPath id="paa94ce1d25">
   <rect height="217.44" width="253.636364" x="359.627386" y="10.7"/>
  </clipPath>
 </defs>
</svg>
