<?xml version="1.0" encoding="utf-8" standalone="no"?>
<!DOCTYPE svg PUBLIC "-//W3C//DTD SVG 1.1//EN"
  "http://www.w3.org/Graphics/SVG/1.1/DTD/svg11.dtd">
<!-- Created with matplotlib (http://matplotlib.org/) -->
<svg height="389pt" version="1.1" viewBox="0 0 707 389" width="707pt" xmlns="http://www.w3.org/2000/svg" xmlns:xlink="http://www.w3.org/1999/xlink">
 <defs>
  <style type="text/css">
*{stroke-linecap:butt;stroke-linejoin:round;}
  </style>
 </defs>
 <g id="figure_1">
  <g id="patch_1">
   <path d="M 0 389.793625 
L 707.706 389.793625 
L 707.706 0 
L 0 0 
z
" style="fill:#ffffff;"/>
  </g>
  <g id="axes_1">
   <g id="patch_2">
    <path d="M 74.853 350.30175 
L 632.853 350.30175 
L 632.853 24.14175 
L 74.853 24.14175 
z
" style="fill:#e5e5e5;"/>
   </g>
   <g id="matplotlib.axis_1">
    <g id="xtick_1">
     <g id="line2d_1">
      <path clip-path="url(#p6be6a279bd)" d="M 121.101454 350.30175 
L 121.101454 24.14175 
" style="fill:none;stroke:#ffffff;stroke-linecap:square;stroke-width:0.8;"/>
     </g>
     <g id="line2d_2">
      <defs>
       <path d="M 0 0 
L 0 3.5 
" id="m661b3be73d" style="stroke:#555555;stroke-width:0.8;"/>
      </defs>
      <g>
       <use style="fill:#555555;stroke:#555555;stroke-width:0.8;" x="121.101454" xlink:href="#m661b3be73d" y="350.30175"/>
      </g>
     </g>
     <g id="text_1">
      <!-- 1.5 -->
      <defs>
       <path d="M 12.40625 8.296875 
L 28.515625 8.296875 
L 28.515625 63.921875 
L 10.984375 60.40625 
L 10.984375 69.390625 
L 28.421875 72.90625 
L 38.28125 72.90625 
L 38.28125 8.296875 
L 54.390625 8.296875 
L 54.390625 0 
L 12.40625 0 
z
" id="DejaVuSans-31"/>
       <path d="M 10.6875 12.40625 
L 21 12.40625 
L 21 0 
L 10.6875 0 
z
" id="DejaVuSans-2e"/>
       <path d="M 10.796875 72.90625 
L 49.515625 72.90625 
L 49.515625 64.59375 
L 19.828125 64.59375 
L 19.828125 46.734375 
Q 21.96875 47.46875 24.109375 47.828125 
Q 26.265625 48.1875 28.421875 48.1875 
Q 40.625 48.1875 47.75 41.5 
Q 54.890625 34.8125 54.890625 23.390625 
Q 54.890625 11.625 47.5625 5.09375 
Q 40.234375 -1.421875 26.90625 -1.421875 
Q 22.3125 -1.421875 17.546875 -0.640625 
Q 12.796875 0.140625 7.71875 1.703125 
L 7.71875 11.625 
Q 12.109375 9.234375 16.796875 8.0625 
Q 21.484375 6.890625 26.703125 6.890625 
Q 35.15625 6.890625 40.078125 11.328125 
Q 45.015625 15.765625 45.015625 23.390625 
Q 45.015625 31 40.078125 35.4375 
Q 35.15625 39.890625 26.703125 39.890625 
Q 22.75 39.890625 18.8125 39.015625 
Q 14.890625 38.140625 10.796875 36.28125 
z
" id="DejaVuSans-35"/>
      </defs>
      <g style="fill:#555555;" transform="translate(113.149891 364.900187)scale(0.1 -0.1)">
       <use xlink:href="#DejaVuSans-31"/>
       <use x="63.623047" xlink:href="#DejaVuSans-2e"/>
       <use x="95.410156" xlink:href="#DejaVuSans-35"/>
      </g>
     </g>
    </g>
    <g id="xtick_2">
     <g id="line2d_3">
      <path clip-path="url(#p6be6a279bd)" d="M 190.717513 350.30175 
L 190.717513 24.14175 
" style="fill:none;stroke:#ffffff;stroke-linecap:square;stroke-width:0.8;"/>
     </g>
     <g id="line2d_4">
      <g>
       <use style="fill:#555555;stroke:#555555;stroke-width:0.8;" x="190.717513" xlink:href="#m661b3be73d" y="350.30175"/>
      </g>
     </g>
     <g id="text_2">
      <!-- 2.0 -->
      <defs>
       <path d="M 19.1875 8.296875 
L 53.609375 8.296875 
L 53.609375 0 
L 7.328125 0 
L 7.328125 8.296875 
Q 12.9375 14.109375 22.625 23.890625 
Q 32.328125 33.6875 34.8125 36.53125 
Q 39.546875 41.84375 41.421875 45.53125 
Q 43.3125 49.21875 43.3125 52.78125 
Q 43.3125 58.59375 39.234375 62.25 
Q 35.15625 65.921875 28.609375 65.921875 
Q 23.96875 65.921875 18.8125 64.3125 
Q 13.671875 62.703125 7.8125 59.421875 
L 7.8125 69.390625 
Q 13.765625 71.78125 18.9375 73 
Q 24.125 74.21875 28.421875 74.21875 
Q 39.75 74.21875 46.484375 68.546875 
Q 53.21875 62.890625 53.21875 53.421875 
Q 53.21875 48.921875 51.53125 44.890625 
Q 49.859375 40.875 45.40625 35.40625 
Q 44.1875 33.984375 37.640625 27.21875 
Q 31.109375 20.453125 19.1875 8.296875 
z
" id="DejaVuSans-32"/>
       <path d="M 31.78125 66.40625 
Q 24.171875 66.40625 20.328125 58.90625 
Q 16.5 51.421875 16.5 36.375 
Q 16.5 21.390625 20.328125 13.890625 
Q 24.171875 6.390625 31.78125 6.390625 
Q 39.453125 6.390625 43.28125 13.890625 
Q 47.125 21.390625 47.125 36.375 
Q 47.125 51.421875 43.28125 58.90625 
Q 39.453125 66.40625 31.78125 66.40625 
z
M 31.78125 74.21875 
Q 44.046875 74.21875 50.515625 64.515625 
Q 56.984375 54.828125 56.984375 36.375 
Q 56.984375 17.96875 50.515625 8.265625 
Q 44.046875 -1.421875 31.78125 -1.421875 
Q 19.53125 -1.421875 13.0625 8.265625 
Q 6.59375 17.96875 6.59375 36.375 
Q 6.59375 54.828125 13.0625 64.515625 
Q 19.53125 74.21875 31.78125 74.21875 
z
" id="DejaVuSans-30"/>
      </defs>
      <g style="fill:#555555;" transform="translate(182.76595 364.900187)scale(0.1 -0.1)">
       <use xlink:href="#DejaVuSans-32"/>
       <use x="63.623047" xlink:href="#DejaVuSans-2e"/>
       <use x="95.410156" xlink:href="#DejaVuSans-30"/>
      </g>
     </g>
    </g>
    <g id="xtick_3">
     <g id="line2d_5">
      <path clip-path="url(#p6be6a279bd)" d="M 260.333571 350.30175 
L 260.333571 24.14175 
" style="fill:none;stroke:#ffffff;stroke-linecap:square;stroke-width:0.8;"/>
     </g>
     <g id="line2d_6">
      <g>
       <use style="fill:#555555;stroke:#555555;stroke-width:0.8;" x="260.333571" xlink:href="#m661b3be73d" y="350.30175"/>
      </g>
     </g>
     <g id="text_3">
      <!-- 2.5 -->
      <g style="fill:#555555;" transform="translate(252.382009 364.900187)scale(0.1 -0.1)">
       <use xlink:href="#DejaVuSans-32"/>
       <use x="63.623047" xlink:href="#DejaVuSans-2e"/>
       <use x="95.410156" xlink:href="#DejaVuSans-35"/>
      </g>
     </g>
    </g>
    <g id="xtick_4">
     <g id="line2d_7">
      <path clip-path="url(#p6be6a279bd)" d="M 329.94963 350.30175 
L 329.94963 24.14175 
" style="fill:none;stroke:#ffffff;stroke-linecap:square;stroke-width:0.8;"/>
     </g>
     <g id="line2d_8">
      <g>
       <use style="fill:#555555;stroke:#555555;stroke-width:0.8;" x="329.94963" xlink:href="#m661b3be73d" y="350.30175"/>
      </g>
     </g>
     <g id="text_4">
      <!-- 3.0 -->
      <defs>
       <path d="M 40.578125 39.3125 
Q 47.65625 37.796875 51.625 33 
Q 55.609375 28.21875 55.609375 21.1875 
Q 55.609375 10.40625 48.1875 4.484375 
Q 40.765625 -1.421875 27.09375 -1.421875 
Q 22.515625 -1.421875 17.65625 -0.515625 
Q 12.796875 0.390625 7.625 2.203125 
L 7.625 11.71875 
Q 11.71875 9.328125 16.59375 8.109375 
Q 21.484375 6.890625 26.8125 6.890625 
Q 36.078125 6.890625 40.9375 10.546875 
Q 45.796875 14.203125 45.796875 21.1875 
Q 45.796875 27.640625 41.28125 31.265625 
Q 36.765625 34.90625 28.71875 34.90625 
L 20.21875 34.90625 
L 20.21875 43.015625 
L 29.109375 43.015625 
Q 36.375 43.015625 40.234375 45.921875 
Q 44.09375 48.828125 44.09375 54.296875 
Q 44.09375 59.90625 40.109375 62.90625 
Q 36.140625 65.921875 28.71875 65.921875 
Q 24.65625 65.921875 20.015625 65.03125 
Q 15.375 64.15625 9.8125 62.3125 
L 9.8125 71.09375 
Q 15.4375 72.65625 20.34375 73.4375 
Q 25.25 74.21875 29.59375 74.21875 
Q 40.828125 74.21875 47.359375 69.109375 
Q 53.90625 64.015625 53.90625 55.328125 
Q 53.90625 49.265625 50.4375 45.09375 
Q 46.96875 40.921875 40.578125 39.3125 
z
" id="DejaVuSans-33"/>
      </defs>
      <g style="fill:#555555;" transform="translate(321.998068 364.900187)scale(0.1 -0.1)">
       <use xlink:href="#DejaVuSans-33"/>
       <use x="63.623047" xlink:href="#DejaVuSans-2e"/>
       <use x="95.410156" xlink:href="#DejaVuSans-30"/>
      </g>
     </g>
    </g>
    <g id="xtick_5">
     <g id="line2d_9">
      <path clip-path="url(#p6be6a279bd)" d="M 399.565689 350.30175 
L 399.565689 24.14175 
" style="fill:none;stroke:#ffffff;stroke-linecap:square;stroke-width:0.8;"/>
     </g>
     <g id="line2d_10">
      <g>
       <use style="fill:#555555;stroke:#555555;stroke-width:0.8;" x="399.565689" xlink:href="#m661b3be73d" y="350.30175"/>
      </g>
     </g>
     <g id="text_5">
      <!-- 3.5 -->
      <g style="fill:#555555;" transform="translate(391.614126 364.900187)scale(0.1 -0.1)">
       <use xlink:href="#DejaVuSans-33"/>
       <use x="63.623047" xlink:href="#DejaVuSans-2e"/>
       <use x="95.410156" xlink:href="#DejaVuSans-35"/>
      </g>
     </g>
    </g>
    <g id="xtick_6">
     <g id="line2d_11">
      <path clip-path="url(#p6be6a279bd)" d="M 469.181747 350.30175 
L 469.181747 24.14175 
" style="fill:none;stroke:#ffffff;stroke-linecap:square;stroke-width:0.8;"/>
     </g>
     <g id="line2d_12">
      <g>
       <use style="fill:#555555;stroke:#555555;stroke-width:0.8;" x="469.181747" xlink:href="#m661b3be73d" y="350.30175"/>
      </g>
     </g>
     <g id="text_6">
      <!-- 4.0 -->
      <defs>
       <path d="M 37.796875 64.3125 
L 12.890625 25.390625 
L 37.796875 25.390625 
z
M 35.203125 72.90625 
L 47.609375 72.90625 
L 47.609375 25.390625 
L 58.015625 25.390625 
L 58.015625 17.1875 
L 47.609375 17.1875 
L 47.609375 0 
L 37.796875 0 
L 37.796875 17.1875 
L 4.890625 17.1875 
L 4.890625 26.703125 
z
" id="DejaVuSans-34"/>
      </defs>
      <g style="fill:#555555;" transform="translate(461.230185 364.900187)scale(0.1 -0.1)">
       <use xlink:href="#DejaVuSans-34"/>
       <use x="63.623047" xlink:href="#DejaVuSans-2e"/>
       <use x="95.410156" xlink:href="#DejaVuSans-30"/>
      </g>
     </g>
    </g>
    <g id="xtick_7">
     <g id="line2d_13">
      <path clip-path="url(#p6be6a279bd)" d="M 538.797806 350.30175 
L 538.797806 24.14175 
" style="fill:none;stroke:#ffffff;stroke-linecap:square;stroke-width:0.8;"/>
     </g>
     <g id="line2d_14">
      <g>
       <use style="fill:#555555;stroke:#555555;stroke-width:0.8;" x="538.797806" xlink:href="#m661b3be73d" y="350.30175"/>
      </g>
     </g>
     <g id="text_7">
      <!-- 4.5 -->
      <g style="fill:#555555;" transform="translate(530.846244 364.900187)scale(0.1 -0.1)">
       <use xlink:href="#DejaVuSans-34"/>
       <use x="63.623047" xlink:href="#DejaVuSans-2e"/>
       <use x="95.410156" xlink:href="#DejaVuSans-35"/>
      </g>
     </g>
    </g>
    <g id="xtick_8">
     <g id="line2d_15">
      <path clip-path="url(#p6be6a279bd)" d="M 608.413865 350.30175 
L 608.413865 24.14175 
" style="fill:none;stroke:#ffffff;stroke-linecap:square;stroke-width:0.8;"/>
     </g>
     <g id="line2d_16">
      <g>
       <use style="fill:#555555;stroke:#555555;stroke-width:0.8;" x="608.413865" xlink:href="#m661b3be73d" y="350.30175"/>
      </g>
     </g>
     <g id="text_8">
      <!-- 5.0 -->
      <g style="fill:#555555;" transform="translate(600.462302 364.900187)scale(0.1 -0.1)">
       <use xlink:href="#DejaVuSans-35"/>
       <use x="63.623047" xlink:href="#DejaVuSans-2e"/>
       <use x="95.410156" xlink:href="#DejaVuSans-30"/>
      </g>
     </g>
    </g>
    <g id="text_9">
     <!-- Review Sentiment -->
     <defs>
      <path d="M 44.390625 34.1875 
Q 47.5625 33.109375 50.5625 29.59375 
Q 53.5625 26.078125 56.59375 19.921875 
L 66.609375 0 
L 56 0 
L 46.6875 18.703125 
Q 43.0625 26.03125 39.671875 28.421875 
Q 36.28125 30.8125 30.421875 30.8125 
L 19.671875 30.8125 
L 19.671875 0 
L 9.8125 0 
L 9.8125 72.90625 
L 32.078125 72.90625 
Q 44.578125 72.90625 50.734375 67.671875 
Q 56.890625 62.453125 56.890625 51.90625 
Q 56.890625 45.015625 53.6875 40.46875 
Q 50.484375 35.9375 44.390625 34.1875 
z
M 19.671875 64.796875 
L 19.671875 38.921875 
L 32.078125 38.921875 
Q 39.203125 38.921875 42.84375 42.21875 
Q 46.484375 45.515625 46.484375 51.90625 
Q 46.484375 58.296875 42.84375 61.546875 
Q 39.203125 64.796875 32.078125 64.796875 
z
" id="DejaVuSans-52"/>
      <path d="M 56.203125 29.59375 
L 56.203125 25.203125 
L 14.890625 25.203125 
Q 15.484375 15.921875 20.484375 11.0625 
Q 25.484375 6.203125 34.421875 6.203125 
Q 39.59375 6.203125 44.453125 7.46875 
Q 49.3125 8.734375 54.109375 11.28125 
L 54.109375 2.78125 
Q 49.265625 0.734375 44.1875 -0.34375 
Q 39.109375 -1.421875 33.890625 -1.421875 
Q 20.796875 -1.421875 13.15625 6.1875 
Q 5.515625 13.8125 5.515625 26.8125 
Q 5.515625 40.234375 12.765625 48.109375 
Q 20.015625 56 32.328125 56 
Q 43.359375 56 49.78125 48.890625 
Q 56.203125 41.796875 56.203125 29.59375 
z
M 47.21875 32.234375 
Q 47.125 39.59375 43.09375 43.984375 
Q 39.0625 48.390625 32.421875 48.390625 
Q 24.90625 48.390625 20.390625 44.140625 
Q 15.875 39.890625 15.1875 32.171875 
z
" id="DejaVuSans-65"/>
      <path d="M 2.984375 54.6875 
L 12.5 54.6875 
L 29.59375 8.796875 
L 46.6875 54.6875 
L 56.203125 54.6875 
L 35.6875 0 
L 23.484375 0 
z
" id="DejaVuSans-76"/>
      <path d="M 9.421875 54.6875 
L 18.40625 54.6875 
L 18.40625 0 
L 9.421875 0 
z
M 9.421875 75.984375 
L 18.40625 75.984375 
L 18.40625 64.59375 
L 9.421875 64.59375 
z
" id="DejaVuSans-69"/>
      <path d="M 4.203125 54.6875 
L 13.1875 54.6875 
L 24.421875 12.015625 
L 35.59375 54.6875 
L 46.1875 54.6875 
L 57.421875 12.015625 
L 68.609375 54.6875 
L 77.59375 54.6875 
L 63.28125 0 
L 52.6875 0 
L 40.921875 44.828125 
L 29.109375 0 
L 18.5 0 
z
" id="DejaVuSans-77"/>
      <path id="DejaVuSans-20"/>
      <path d="M 53.515625 70.515625 
L 53.515625 60.890625 
Q 47.90625 63.578125 42.921875 64.890625 
Q 37.9375 66.21875 33.296875 66.21875 
Q 25.25 66.21875 20.875 63.09375 
Q 16.5 59.96875 16.5 54.203125 
Q 16.5 49.359375 19.40625 46.890625 
Q 22.3125 44.4375 30.421875 42.921875 
L 36.375 41.703125 
Q 47.40625 39.59375 52.65625 34.296875 
Q 57.90625 29 57.90625 20.125 
Q 57.90625 9.515625 50.796875 4.046875 
Q 43.703125 -1.421875 29.984375 -1.421875 
Q 24.8125 -1.421875 18.96875 -0.25 
Q 13.140625 0.921875 6.890625 3.21875 
L 6.890625 13.375 
Q 12.890625 10.015625 18.65625 8.296875 
Q 24.421875 6.59375 29.984375 6.59375 
Q 38.421875 6.59375 43.015625 9.90625 
Q 47.609375 13.234375 47.609375 19.390625 
Q 47.609375 24.75 44.3125 27.78125 
Q 41.015625 30.8125 33.5 32.328125 
L 27.484375 33.5 
Q 16.453125 35.6875 11.515625 40.375 
Q 6.59375 45.0625 6.59375 53.421875 
Q 6.59375 63.09375 13.40625 68.65625 
Q 20.21875 74.21875 32.171875 74.21875 
Q 37.3125 74.21875 42.625 73.28125 
Q 47.953125 72.359375 53.515625 70.515625 
z
" id="DejaVuSans-53"/>
      <path d="M 54.890625 33.015625 
L 54.890625 0 
L 45.90625 0 
L 45.90625 32.71875 
Q 45.90625 40.484375 42.875 44.328125 
Q 39.84375 48.1875 33.796875 48.1875 
Q 26.515625 48.1875 22.3125 43.546875 
Q 18.109375 38.921875 18.109375 30.90625 
L 18.109375 0 
L 9.078125 0 
L 9.078125 54.6875 
L 18.109375 54.6875 
L 18.109375 46.1875 
Q 21.34375 51.125 25.703125 53.5625 
Q 30.078125 56 35.796875 56 
Q 45.21875 56 50.046875 50.171875 
Q 54.890625 44.34375 54.890625 33.015625 
z
" id="DejaVuSans-6e"/>
      <path d="M 18.3125 70.21875 
L 18.3125 54.6875 
L 36.8125 54.6875 
L 36.8125 47.703125 
L 18.3125 47.703125 
L 18.3125 18.015625 
Q 18.3125 11.328125 20.140625 9.421875 
Q 21.96875 7.515625 27.59375 7.515625 
L 36.8125 7.515625 
L 36.8125 0 
L 27.59375 0 
Q 17.1875 0 13.234375 3.875 
Q 9.28125 7.765625 9.28125 18.015625 
L 9.28125 47.703125 
L 2.6875 47.703125 
L 2.6875 54.6875 
L 9.28125 54.6875 
L 9.28125 70.21875 
z
" id="DejaVuSans-74"/>
      <path d="M 52 44.1875 
Q 55.375 50.25 60.0625 53.125 
Q 64.75 56 71.09375 56 
Q 79.640625 56 84.28125 50.015625 
Q 88.921875 44.046875 88.921875 33.015625 
L 88.921875 0 
L 79.890625 0 
L 79.890625 32.71875 
Q 79.890625 40.578125 77.09375 44.375 
Q 74.3125 48.1875 68.609375 48.1875 
Q 61.625 48.1875 57.5625 43.546875 
Q 53.515625 38.921875 53.515625 30.90625 
L 53.515625 0 
L 44.484375 0 
L 44.484375 32.71875 
Q 44.484375 40.625 41.703125 44.40625 
Q 38.921875 48.1875 33.109375 48.1875 
Q 26.21875 48.1875 22.15625 43.53125 
Q 18.109375 38.875 18.109375 30.90625 
L 18.109375 0 
L 9.078125 0 
L 9.078125 54.6875 
L 18.109375 54.6875 
L 18.109375 46.1875 
Q 21.1875 51.21875 25.484375 53.609375 
Q 29.78125 56 35.6875 56 
Q 41.65625 56 45.828125 52.96875 
Q 50 49.953125 52 44.1875 
z
" id="DejaVuSans-6d"/>
     </defs>
     <g style="fill:#555555;" transform="translate(299.258625 380.098)scale(0.12 -0.12)">
      <use xlink:href="#DejaVuSans-52"/>
      <use x="69.419922" xlink:href="#DejaVuSans-65"/>
      <use x="130.943359" xlink:href="#DejaVuSans-76"/>
      <use x="190.123047" xlink:href="#DejaVuSans-69"/>
      <use x="217.90625" xlink:href="#DejaVuSans-65"/>
      <use x="279.429688" xlink:href="#DejaVuSans-77"/>
      <use x="361.216797" xlink:href="#DejaVuSans-20"/>
      <use x="393.003906" xlink:href="#DejaVuSans-53"/>
      <use x="456.480469" xlink:href="#DejaVuSans-65"/>
      <use x="518.003906" xlink:href="#DejaVuSans-6e"/>
      <use x="581.382812" xlink:href="#DejaVuSans-74"/>
      <use x="620.591797" xlink:href="#DejaVuSans-69"/>
      <use x="648.375" xlink:href="#DejaVuSans-6d"/>
      <use x="745.787109" xlink:href="#DejaVuSans-65"/>
      <use x="807.310547" xlink:href="#DejaVuSans-6e"/>
      <use x="870.689453" xlink:href="#DejaVuSans-74"/>
     </g>
    </g>
   </g>
   <g id="matplotlib.axis_2">
    <g id="ytick_1">
     <g id="line2d_17">
      <path clip-path="url(#p6be6a279bd)" d="M 74.853 350.30175 
L 632.853 350.30175 
" style="fill:none;stroke:#ffffff;stroke-linecap:square;stroke-width:0.8;"/>
     </g>
     <g id="line2d_18">
      <defs>
       <path d="M 0 0 
L -3.5 0 
" id="m8269597f04" style="stroke:#555555;stroke-width:0.8;"/>
      </defs>
      <g>
       <use style="fill:#555555;stroke:#555555;stroke-width:0.8;" x="74.853" xlink:href="#m8269597f04" y="350.30175"/>
      </g>
     </g>
     <g id="text_10">
      <!-- 0 -->
      <g style="fill:#555555;" transform="translate(61.4905 354.100969)scale(0.1 -0.1)">
       <use xlink:href="#DejaVuSans-30"/>
      </g>
     </g>
    </g>
    <g id="ytick_2">
     <g id="line2d_19">
      <path clip-path="url(#p6be6a279bd)" d="M 74.853 279.121967 
L 632.853 279.121967 
" style="fill:none;stroke:#ffffff;stroke-linecap:square;stroke-width:0.8;"/>
     </g>
     <g id="line2d_20">
      <g>
       <use style="fill:#555555;stroke:#555555;stroke-width:0.8;" x="74.853" xlink:href="#m8269597f04" y="279.121967"/>
      </g>
     </g>
     <g id="text_11">
      <!-- 1000 -->
      <g style="fill:#555555;" transform="translate(42.403 282.921186)scale(0.1 -0.1)">
       <use xlink:href="#DejaVuSans-31"/>
       <use x="63.623047" xlink:href="#DejaVuSans-30"/>
       <use x="127.246094" xlink:href="#DejaVuSans-30"/>
       <use x="190.869141" xlink:href="#DejaVuSans-30"/>
      </g>
     </g>
    </g>
    <g id="ytick_3">
     <g id="line2d_21">
      <path clip-path="url(#p6be6a279bd)" d="M 74.853 207.942185 
L 632.853 207.942185 
" style="fill:none;stroke:#ffffff;stroke-linecap:square;stroke-width:0.8;"/>
     </g>
     <g id="line2d_22">
      <g>
       <use style="fill:#555555;stroke:#555555;stroke-width:0.8;" x="74.853" xlink:href="#m8269597f04" y="207.942185"/>
      </g>
     </g>
     <g id="text_12">
      <!-- 2000 -->
      <g style="fill:#555555;" transform="translate(42.403 211.741403)scale(0.1 -0.1)">
       <use xlink:href="#DejaVuSans-32"/>
       <use x="63.623047" xlink:href="#DejaVuSans-30"/>
       <use x="127.246094" xlink:href="#DejaVuSans-30"/>
       <use x="190.869141" xlink:href="#DejaVuSans-30"/>
      </g>
     </g>
    </g>
    <g id="ytick_4">
     <g id="line2d_23">
      <path clip-path="url(#p6be6a279bd)" d="M 74.853 136.762402 
L 632.853 136.762402 
" style="fill:none;stroke:#ffffff;stroke-linecap:square;stroke-width:0.8;"/>
     </g>
     <g id="line2d_24">
      <g>
       <use style="fill:#555555;stroke:#555555;stroke-width:0.8;" x="74.853" xlink:href="#m8269597f04" y="136.762402"/>
      </g>
     </g>
     <g id="text_13">
      <!-- 3000 -->
      <g style="fill:#555555;" transform="translate(42.403 140.561621)scale(0.1 -0.1)">
       <use xlink:href="#DejaVuSans-33"/>
       <use x="63.623047" xlink:href="#DejaVuSans-30"/>
       <use x="127.246094" xlink:href="#DejaVuSans-30"/>
       <use x="190.869141" xlink:href="#DejaVuSans-30"/>
      </g>
     </g>
    </g>
    <g id="ytick_5">
     <g id="line2d_25">
      <path clip-path="url(#p6be6a279bd)" d="M 74.853 65.582619 
L 632.853 65.582619 
" style="fill:none;stroke:#ffffff;stroke-linecap:square;stroke-width:0.8;"/>
     </g>
     <g id="line2d_26">
      <g>
       <use style="fill:#555555;stroke:#555555;stroke-width:0.8;" x="74.853" xlink:href="#m8269597f04" y="65.582619"/>
      </g>
     </g>
     <g id="text_14">
      <!-- 4000 -->
      <g style="fill:#555555;" transform="translate(42.403 69.381838)scale(0.1 -0.1)">
       <use xlink:href="#DejaVuSans-34"/>
       <use x="63.623047" xlink:href="#DejaVuSans-30"/>
       <use x="127.246094" xlink:href="#DejaVuSans-30"/>
       <use x="190.869141" xlink:href="#DejaVuSans-30"/>
      </g>
     </g>
    </g>
    <g id="text_15">
     <!-- Count -->
     <defs>
      <path d="M 64.40625 67.28125 
L 64.40625 56.890625 
Q 59.421875 61.53125 53.78125 63.8125 
Q 48.140625 66.109375 41.796875 66.109375 
Q 29.296875 66.109375 22.65625 58.46875 
Q 16.015625 50.828125 16.015625 36.375 
Q 16.015625 21.96875 22.65625 14.328125 
Q 29.296875 6.6875 41.796875 6.6875 
Q 48.140625 6.6875 53.78125 8.984375 
Q 59.421875 11.28125 64.40625 15.921875 
L 64.40625 5.609375 
Q 59.234375 2.09375 53.4375 0.328125 
Q 47.65625 -1.421875 41.21875 -1.421875 
Q 24.65625 -1.421875 15.125 8.703125 
Q 5.609375 18.84375 5.609375 36.375 
Q 5.609375 53.953125 15.125 64.078125 
Q 24.65625 74.21875 41.21875 74.21875 
Q 47.75 74.21875 53.53125 72.484375 
Q 59.328125 70.75 64.40625 67.28125 
z
" id="DejaVuSans-43"/>
      <path d="M 30.609375 48.390625 
Q 23.390625 48.390625 19.1875 42.75 
Q 14.984375 37.109375 14.984375 27.296875 
Q 14.984375 17.484375 19.15625 11.84375 
Q 23.34375 6.203125 30.609375 6.203125 
Q 37.796875 6.203125 41.984375 11.859375 
Q 46.1875 17.53125 46.1875 27.296875 
Q 46.1875 37.015625 41.984375 42.703125 
Q 37.796875 48.390625 30.609375 48.390625 
z
M 30.609375 56 
Q 42.328125 56 49.015625 48.375 
Q 55.71875 40.765625 55.71875 27.296875 
Q 55.71875 13.875 49.015625 6.21875 
Q 42.328125 -1.421875 30.609375 -1.421875 
Q 18.84375 -1.421875 12.171875 6.21875 
Q 5.515625 13.875 5.515625 27.296875 
Q 5.515625 40.765625 12.171875 48.375 
Q 18.84375 56 30.609375 56 
z
" id="DejaVuSans-6f"/>
      <path d="M 8.5 21.578125 
L 8.5 54.6875 
L 17.484375 54.6875 
L 17.484375 21.921875 
Q 17.484375 14.15625 20.5 10.265625 
Q 23.53125 6.390625 29.59375 6.390625 
Q 36.859375 6.390625 41.078125 11.03125 
Q 45.3125 15.671875 45.3125 23.6875 
L 45.3125 54.6875 
L 54.296875 54.6875 
L 54.296875 0 
L 45.3125 0 
L 45.3125 8.40625 
Q 42.046875 3.421875 37.71875 1 
Q 33.40625 -1.421875 27.6875 -1.421875 
Q 18.265625 -1.421875 13.375 4.4375 
Q 8.5 10.296875 8.5 21.578125 
z
M 31.109375 56 
z
" id="DejaVuSans-75"/>
     </defs>
     <g style="fill:#555555;" transform="translate(35.907375 205.039875)rotate(-90)scale(0.12 -0.12)">
      <use xlink:href="#DejaVuSans-43"/>
      <use x="69.824219" xlink:href="#DejaVuSans-6f"/>
      <use x="131.005859" xlink:href="#DejaVuSans-75"/>
      <use x="194.384766" xlink:href="#DejaVuSans-6e"/>
      <use x="257.763672" xlink:href="#DejaVuSans-74"/>
     </g>
    </g>
   </g>
   <g id="patch_3">
    <path clip-path="url(#p6be6a279bd)" d="M 100.216636 350.30175 
L 110.362091 350.30175 
L 110.362091 350.23057 
L 100.216636 350.23057 
z
" style="fill:#e24a33;opacity:0.4;"/>
   </g>
   <g id="patch_4">
    <path clip-path="url(#p6be6a279bd)" d="M 110.362091 350.30175 
L 120.507545 350.30175 
L 120.507545 350.30175 
L 110.362091 350.30175 
z
" style="fill:#e24a33;opacity:0.4;"/>
   </g>
   <g id="patch_5">
    <path clip-path="url(#p6be6a279bd)" d="M 120.507545 350.30175 
L 130.653 350.30175 
L 130.653 350.23057 
L 120.507545 350.23057 
z
" style="fill:#e24a33;opacity:0.4;"/>
   </g>
   <g id="patch_6">
    <path clip-path="url(#p6be6a279bd)" d="M 130.653 350.30175 
L 140.798455 350.30175 
L 140.798455 350.30175 
L 130.653 350.30175 
z
" style="fill:#e24a33;opacity:0.4;"/>
   </g>
   <g id="patch_7">
    <path clip-path="url(#p6be6a279bd)" d="M 140.798455 350.30175 
L 150.943909 350.30175 
L 150.943909 350.30175 
L 140.798455 350.30175 
z
" style="fill:#e24a33;opacity:0.4;"/>
   </g>
   <g id="patch_8">
    <path clip-path="url(#p6be6a279bd)" d="M 150.943909 350.30175 
L 161.089364 350.30175 
L 161.089364 350.30175 
L 150.943909 350.30175 
z
" style="fill:#e24a33;opacity:0.4;"/>
   </g>
   <g id="patch_9">
    <path clip-path="url(#p6be6a279bd)" d="M 161.089364 350.30175 
L 171.234818 350.30175 
L 171.234818 350.30175 
L 161.089364 350.30175 
z
" style="fill:#e24a33;opacity:0.4;"/>
   </g>
   <g id="patch_10">
    <path clip-path="url(#p6be6a279bd)" d="M 171.234818 350.30175 
L 181.380273 350.30175 
L 181.380273 350.23057 
L 171.234818 350.23057 
z
" style="fill:#e24a33;opacity:0.4;"/>
   </g>
   <g id="patch_11">
    <path clip-path="url(#p6be6a279bd)" d="M 181.380273 350.30175 
L 191.525727 350.30175 
L 191.525727 349.945851 
L 181.380273 349.945851 
z
" style="fill:#e24a33;opacity:0.4;"/>
   </g>
   <g id="patch_12">
    <path clip-path="url(#p6be6a279bd)" d="M 191.525727 350.30175 
L 201.671182 350.30175 
L 201.671182 350.017031 
L 191.525727 350.017031 
z
" style="fill:#e24a33;opacity:0.4;"/>
   </g>
   <g id="patch_13">
    <path clip-path="url(#p6be6a279bd)" d="M 201.671182 350.30175 
L 211.816636 350.30175 
L 211.816636 350.088211 
L 201.671182 350.088211 
z
" style="fill:#e24a33;opacity:0.4;"/>
   </g>
   <g id="patch_14">
    <path clip-path="url(#p6be6a279bd)" d="M 211.816636 350.30175 
L 221.962091 350.30175 
L 221.962091 349.732312 
L 211.816636 349.732312 
z
" style="fill:#e24a33;opacity:0.4;"/>
   </g>
   <g id="patch_15">
    <path clip-path="url(#p6be6a279bd)" d="M 221.962091 350.30175 
L 232.107545 350.30175 
L 232.107545 349.589952 
L 221.962091 349.589952 
z
" style="fill:#e24a33;opacity:0.4;"/>
   </g>
   <g id="patch_16">
    <path clip-path="url(#p6be6a279bd)" d="M 232.107545 350.30175 
L 242.253 350.30175 
L 242.253 349.162873 
L 232.107545 349.162873 
z
" style="fill:#e24a33;opacity:0.4;"/>
   </g>
   <g id="patch_17">
    <path clip-path="url(#p6be6a279bd)" d="M 242.253 350.30175 
L 252.398455 350.30175 
L 252.398455 348.878154 
L 242.253 348.878154 
z
" style="fill:#e24a33;opacity:0.4;"/>
   </g>
   <g id="patch_18">
    <path clip-path="url(#p6be6a279bd)" d="M 252.398455 350.30175 
L 262.543909 350.30175 
L 262.543909 348.166357 
L 252.398455 348.166357 
z
" style="fill:#e24a33;opacity:0.4;"/>
   </g>
   <g id="patch_19">
    <path clip-path="url(#p6be6a279bd)" d="M 262.543909 350.30175 
L 272.689364 350.30175 
L 272.689364 347.596918 
L 262.543909 347.596918 
z
" style="fill:#e24a33;opacity:0.4;"/>
   </g>
   <g id="patch_20">
    <path clip-path="url(#p6be6a279bd)" d="M 272.689364 350.30175 
L 282.834818 350.30175 
L 282.834818 346.315682 
L 272.689364 346.315682 
z
" style="fill:#e24a33;opacity:0.4;"/>
   </g>
   <g id="patch_21">
    <path clip-path="url(#p6be6a279bd)" d="M 282.834818 350.30175 
L 292.980273 350.30175 
L 292.980273 343.539671 
L 282.834818 343.539671 
z
" style="fill:#e24a33;opacity:0.4;"/>
   </g>
   <g id="patch_22">
    <path clip-path="url(#p6be6a279bd)" d="M 292.980273 350.30175 
L 303.125727 350.30175 
L 303.125727 342.543154 
L 292.980273 342.543154 
z
" style="fill:#e24a33;opacity:0.4;"/>
   </g>
   <g id="patch_23">
    <path clip-path="url(#p6be6a279bd)" d="M 303.125727 350.30175 
L 313.271182 350.30175 
L 313.271182 341.404277 
L 303.125727 341.404277 
z
" style="fill:#e24a33;opacity:0.4;"/>
   </g>
   <g id="patch_24">
    <path clip-path="url(#p6be6a279bd)" d="M 313.271182 350.30175 
L 323.416636 350.30175 
L 323.416636 338.699445 
L 313.271182 338.699445 
z
" style="fill:#e24a33;opacity:0.4;"/>
   </g>
   <g id="patch_25">
    <path clip-path="url(#p6be6a279bd)" d="M 323.416636 350.30175 
L 333.562091 350.30175 
L 333.562091 334.143939 
L 323.416636 334.143939 
z
" style="fill:#e24a33;opacity:0.4;"/>
   </g>
   <g id="patch_26">
    <path clip-path="url(#p6be6a279bd)" d="M 333.562091 350.30175 
L 343.707545 350.30175 
L 343.707545 330.79849 
L 333.562091 330.79849 
z
" style="fill:#e24a33;opacity:0.4;"/>
   </g>
   <g id="patch_27">
    <path clip-path="url(#p6be6a279bd)" d="M 343.707545 350.30175 
L 353.853 350.30175 
L 353.853 320.83332 
L 343.707545 320.83332 
z
" style="fill:#e24a33;opacity:0.4;"/>
   </g>
   <g id="patch_28">
    <path clip-path="url(#p6be6a279bd)" d="M 353.853 350.30175 
L 363.998455 350.30175 
L 363.998455 313.359443 
L 353.853 313.359443 
z
" style="fill:#e24a33;opacity:0.4;"/>
   </g>
   <g id="patch_29">
    <path clip-path="url(#p6be6a279bd)" d="M 363.998455 350.30175 
L 374.143909 350.30175 
L 374.143909 302.041857 
L 363.998455 302.041857 
z
" style="fill:#e24a33;opacity:0.4;"/>
   </g>
   <g id="patch_30">
    <path clip-path="url(#p6be6a279bd)" d="M 374.143909 350.30175 
L 384.289364 350.30175 
L 384.289364 292.076688 
L 374.143909 292.076688 
z
" style="fill:#e24a33;opacity:0.4;"/>
   </g>
   <g id="patch_31">
    <path clip-path="url(#p6be6a279bd)" d="M 384.289364 350.30175 
L 394.434818 350.30175 
L 394.434818 273.071686 
L 384.289364 273.071686 
z
" style="fill:#e24a33;opacity:0.4;"/>
   </g>
   <g id="patch_32">
    <path clip-path="url(#p6be6a279bd)" d="M 394.434818 350.30175 
L 404.580273 350.30175 
L 404.580273 253.426066 
L 394.434818 253.426066 
z
" style="fill:#e24a33;opacity:0.4;"/>
   </g>
   <g id="patch_33">
    <path clip-path="url(#p6be6a279bd)" d="M 404.580273 350.30175 
L 414.725727 350.30175 
L 414.725727 229.08258 
L 404.580273 229.08258 
z
" style="fill:#e24a33;opacity:0.4;"/>
   </g>
   <g id="patch_34">
    <path clip-path="url(#p6be6a279bd)" d="M 414.725727 350.30175 
L 424.871182 350.30175 
L 424.871182 203.600218 
L 414.725727 203.600218 
z
" style="fill:#e24a33;opacity:0.4;"/>
   </g>
   <g id="patch_35">
    <path clip-path="url(#p6be6a279bd)" d="M 424.871182 350.30175 
L 435.016636 350.30175 
L 435.016636 177.334878 
L 424.871182 177.334878 
z
" style="fill:#e24a33;opacity:0.4;"/>
   </g>
   <g id="patch_36">
    <path clip-path="url(#p6be6a279bd)" d="M 435.016636 350.30175 
L 445.162091 350.30175 
L 445.162091 135.481166 
L 435.016636 135.481166 
z
" style="fill:#e24a33;opacity:0.4;"/>
   </g>
   <g id="patch_37">
    <path clip-path="url(#p6be6a279bd)" d="M 445.162091 350.30175 
L 455.307545 350.30175 
L 455.307545 104.304421 
L 445.162091 104.304421 
z
" style="fill:#e24a33;opacity:0.4;"/>
   </g>
   <g id="patch_38">
    <path clip-path="url(#p6be6a279bd)" d="M 455.307545 350.30175 
L 465.453 350.30175 
L 465.453 79.391497 
L 455.307545 79.391497 
z
" style="fill:#e24a33;opacity:0.4;"/>
   </g>
   <g id="patch_39">
    <path clip-path="url(#p6be6a279bd)" d="M 465.453 350.30175 
L 475.598455 350.30175 
L 475.598455 70.565204 
L 465.453 70.565204 
z
" style="fill:#e24a33;opacity:0.4;"/>
   </g>
   <g id="patch_40">
    <path clip-path="url(#p6be6a279bd)" d="M 475.598455 350.30175 
L 485.743909 350.30175 
L 485.743909 56.471607 
L 475.598455 56.471607 
z
" style="fill:#e24a33;opacity:0.4;"/>
   </g>
   <g id="patch_41">
    <path clip-path="url(#p6be6a279bd)" d="M 485.743909 350.30175 
L 495.889364 350.30175 
L 495.889364 50.919584 
L 485.743909 50.919584 
z
" style="fill:#e24a33;opacity:0.4;"/>
   </g>
   <g id="patch_42">
    <path clip-path="url(#p6be6a279bd)" d="M 495.889364 350.30175 
L 506.034818 350.30175 
L 506.034818 50.563685 
L 495.889364 50.563685 
z
" style="fill:#e24a33;opacity:0.4;"/>
   </g>
   <g id="patch_43">
    <path clip-path="url(#p6be6a279bd)" d="M 506.034818 350.30175 
L 516.180273 350.30175 
L 516.180273 39.673179 
L 506.034818 39.673179 
z
" style="fill:#e24a33;opacity:0.4;"/>
   </g>
   <g id="patch_44">
    <path clip-path="url(#p6be6a279bd)" d="M 516.180273 350.30175 
L 526.325727 350.30175 
L 526.325727 69.853406 
L 516.180273 69.853406 
z
" style="fill:#e24a33;opacity:0.4;"/>
   </g>
   <g id="patch_45">
    <path clip-path="url(#p6be6a279bd)" d="M 526.325727 350.30175 
L 536.471182 350.30175 
L 536.471182 97.684701 
L 526.325727 97.684701 
z
" style="fill:#e24a33;opacity:0.4;"/>
   </g>
   <g id="patch_46">
    <path clip-path="url(#p6be6a279bd)" d="M 536.471182 350.30175 
L 546.616636 350.30175 
L 546.616636 127.50903 
L 536.471182 127.50903 
z
" style="fill:#e24a33;opacity:0.4;"/>
   </g>
   <g id="patch_47">
    <path clip-path="url(#p6be6a279bd)" d="M 546.616636 350.30175 
L 556.762091 350.30175 
L 556.762091 161.960045 
L 546.616636 161.960045 
z
" style="fill:#e24a33;opacity:0.4;"/>
   </g>
   <g id="patch_48">
    <path clip-path="url(#p6be6a279bd)" d="M 556.762091 350.30175 
L 566.907545 350.30175 
L 566.907545 195.770442 
L 556.762091 195.770442 
z
" style="fill:#e24a33;opacity:0.4;"/>
   </g>
   <g id="patch_49">
    <path clip-path="url(#p6be6a279bd)" d="M 566.907545 350.30175 
L 577.053 350.30175 
L 577.053 228.299603 
L 566.907545 228.299603 
z
" style="fill:#e24a33;opacity:0.4;"/>
   </g>
   <g id="patch_50">
    <path clip-path="url(#p6be6a279bd)" d="M 577.053 350.30175 
L 587.198455 350.30175 
L 587.198455 258.266291 
L 577.053 258.266291 
z
" style="fill:#e24a33;opacity:0.4;"/>
   </g>
   <g id="patch_51">
    <path clip-path="url(#p6be6a279bd)" d="M 587.198455 350.30175 
L 597.343909 350.30175 
L 597.343909 291.008991 
L 587.198455 291.008991 
z
" style="fill:#e24a33;opacity:0.4;"/>
   </g>
   <g id="patch_52">
    <path clip-path="url(#p6be6a279bd)" d="M 597.343909 350.30175 
L 607.489364 350.30175 
L 607.489364 325.317646 
L 597.343909 325.317646 
z
" style="fill:#e24a33;opacity:0.4;"/>
   </g>
   <g id="patch_53">
    <path d="M 74.853 350.30175 
L 74.853 24.14175 
" style="fill:none;stroke:#ffffff;stroke-linecap:square;stroke-linejoin:miter;"/>
   </g>
   <g id="patch_54">
    <path d="M 632.853 350.30175 
L 632.853 24.14175 
" style="fill:none;stroke:#ffffff;stroke-linecap:square;stroke-linejoin:miter;"/>
   </g>
   <g id="patch_55">
    <path d="M 74.853 350.30175 
L 632.853 350.30175 
" style="fill:none;stroke:#ffffff;stroke-linecap:square;stroke-linejoin:miter;"/>
   </g>
   <g id="patch_56">
    <path d="M 74.853 24.14175 
L 632.853 24.14175 
" style="fill:none;stroke:#ffffff;stroke-linecap:square;stroke-linejoin:miter;"/>
   </g>
   <g id="text_16">
    <!-- Distribution of average of the sentiment of the reviews, per product in the "Electronic" category -->
    <defs>
     <path d="M 19.671875 64.796875 
L 19.671875 8.109375 
L 31.59375 8.109375 
Q 46.6875 8.109375 53.6875 14.9375 
Q 60.6875 21.78125 60.6875 36.53125 
Q 60.6875 51.171875 53.6875 57.984375 
Q 46.6875 64.796875 31.59375 64.796875 
z
M 9.8125 72.90625 
L 30.078125 72.90625 
Q 51.265625 72.90625 61.171875 64.09375 
Q 71.09375 55.28125 71.09375 36.53125 
Q 71.09375 17.671875 61.125 8.828125 
Q 51.171875 0 30.078125 0 
L 9.8125 0 
z
" id="DejaVuSans-44"/>
     <path d="M 44.28125 53.078125 
L 44.28125 44.578125 
Q 40.484375 46.53125 36.375 47.5 
Q 32.28125 48.484375 27.875 48.484375 
Q 21.1875 48.484375 17.84375 46.4375 
Q 14.5 44.390625 14.5 40.28125 
Q 14.5 37.15625 16.890625 35.375 
Q 19.28125 33.59375 26.515625 31.984375 
L 29.59375 31.296875 
Q 39.15625 29.25 43.1875 25.515625 
Q 47.21875 21.78125 47.21875 15.09375 
Q 47.21875 7.46875 41.1875 3.015625 
Q 35.15625 -1.421875 24.609375 -1.421875 
Q 20.21875 -1.421875 15.453125 -0.5625 
Q 10.6875 0.296875 5.421875 2 
L 5.421875 11.28125 
Q 10.40625 8.6875 15.234375 7.390625 
Q 20.0625 6.109375 24.8125 6.109375 
Q 31.15625 6.109375 34.5625 8.28125 
Q 37.984375 10.453125 37.984375 14.40625 
Q 37.984375 18.0625 35.515625 20.015625 
Q 33.0625 21.96875 24.703125 23.78125 
L 21.578125 24.515625 
Q 13.234375 26.265625 9.515625 29.90625 
Q 5.8125 33.546875 5.8125 39.890625 
Q 5.8125 47.609375 11.28125 51.796875 
Q 16.75 56 26.8125 56 
Q 31.78125 56 36.171875 55.265625 
Q 40.578125 54.546875 44.28125 53.078125 
z
" id="DejaVuSans-73"/>
     <path d="M 41.109375 46.296875 
Q 39.59375 47.171875 37.8125 47.578125 
Q 36.03125 48 33.890625 48 
Q 26.265625 48 22.1875 43.046875 
Q 18.109375 38.09375 18.109375 28.8125 
L 18.109375 0 
L 9.078125 0 
L 9.078125 54.6875 
L 18.109375 54.6875 
L 18.109375 46.1875 
Q 20.953125 51.171875 25.484375 53.578125 
Q 30.03125 56 36.53125 56 
Q 37.453125 56 38.578125 55.875 
Q 39.703125 55.765625 41.0625 55.515625 
z
" id="DejaVuSans-72"/>
     <path d="M 48.6875 27.296875 
Q 48.6875 37.203125 44.609375 42.84375 
Q 40.53125 48.484375 33.40625 48.484375 
Q 26.265625 48.484375 22.1875 42.84375 
Q 18.109375 37.203125 18.109375 27.296875 
Q 18.109375 17.390625 22.1875 11.75 
Q 26.265625 6.109375 33.40625 6.109375 
Q 40.53125 6.109375 44.609375 11.75 
Q 48.6875 17.390625 48.6875 27.296875 
z
M 18.109375 46.390625 
Q 20.953125 51.265625 25.265625 53.625 
Q 29.59375 56 35.59375 56 
Q 45.5625 56 51.78125 48.09375 
Q 58.015625 40.1875 58.015625 27.296875 
Q 58.015625 14.40625 51.78125 6.484375 
Q 45.5625 -1.421875 35.59375 -1.421875 
Q 29.59375 -1.421875 25.265625 0.953125 
Q 20.953125 3.328125 18.109375 8.203125 
L 18.109375 0 
L 9.078125 0 
L 9.078125 75.984375 
L 18.109375 75.984375 
z
" id="DejaVuSans-62"/>
     <path d="M 37.109375 75.984375 
L 37.109375 68.5 
L 28.515625 68.5 
Q 23.6875 68.5 21.796875 66.546875 
Q 19.921875 64.59375 19.921875 59.515625 
L 19.921875 54.6875 
L 34.71875 54.6875 
L 34.71875 47.703125 
L 19.921875 47.703125 
L 19.921875 0 
L 10.890625 0 
L 10.890625 47.703125 
L 2.296875 47.703125 
L 2.296875 54.6875 
L 10.890625 54.6875 
L 10.890625 58.5 
Q 10.890625 67.625 15.140625 71.796875 
Q 19.390625 75.984375 28.609375 75.984375 
z
" id="DejaVuSans-66"/>
     <path d="M 34.28125 27.484375 
Q 23.390625 27.484375 19.1875 25 
Q 14.984375 22.515625 14.984375 16.5 
Q 14.984375 11.71875 18.140625 8.90625 
Q 21.296875 6.109375 26.703125 6.109375 
Q 34.1875 6.109375 38.703125 11.40625 
Q 43.21875 16.703125 43.21875 25.484375 
L 43.21875 27.484375 
z
M 52.203125 31.203125 
L 52.203125 0 
L 43.21875 0 
L 43.21875 8.296875 
Q 40.140625 3.328125 35.546875 0.953125 
Q 30.953125 -1.421875 24.3125 -1.421875 
Q 15.921875 -1.421875 10.953125 3.296875 
Q 6 8.015625 6 15.921875 
Q 6 25.140625 12.171875 29.828125 
Q 18.359375 34.515625 30.609375 34.515625 
L 43.21875 34.515625 
L 43.21875 35.40625 
Q 43.21875 41.609375 39.140625 45 
Q 35.0625 48.390625 27.6875 48.390625 
Q 23 48.390625 18.546875 47.265625 
Q 14.109375 46.140625 10.015625 43.890625 
L 10.015625 52.203125 
Q 14.9375 54.109375 19.578125 55.046875 
Q 24.21875 56 28.609375 56 
Q 40.484375 56 46.34375 49.84375 
Q 52.203125 43.703125 52.203125 31.203125 
z
" id="DejaVuSans-61"/>
     <path d="M 45.40625 27.984375 
Q 45.40625 37.75 41.375 43.109375 
Q 37.359375 48.484375 30.078125 48.484375 
Q 22.859375 48.484375 18.828125 43.109375 
Q 14.796875 37.75 14.796875 27.984375 
Q 14.796875 18.265625 18.828125 12.890625 
Q 22.859375 7.515625 30.078125 7.515625 
Q 37.359375 7.515625 41.375 12.890625 
Q 45.40625 18.265625 45.40625 27.984375 
z
M 54.390625 6.78125 
Q 54.390625 -7.171875 48.1875 -13.984375 
Q 42 -20.796875 29.203125 -20.796875 
Q 24.46875 -20.796875 20.265625 -20.09375 
Q 16.0625 -19.390625 12.109375 -17.921875 
L 12.109375 -9.1875 
Q 16.0625 -11.328125 19.921875 -12.34375 
Q 23.78125 -13.375 27.78125 -13.375 
Q 36.625 -13.375 41.015625 -8.765625 
Q 45.40625 -4.15625 45.40625 5.171875 
L 45.40625 9.625 
Q 42.625 4.78125 38.28125 2.390625 
Q 33.9375 0 27.875 0 
Q 17.828125 0 11.671875 7.65625 
Q 5.515625 15.328125 5.515625 27.984375 
Q 5.515625 40.671875 11.671875 48.328125 
Q 17.828125 56 27.875 56 
Q 33.9375 56 38.28125 53.609375 
Q 42.625 51.21875 45.40625 46.390625 
L 45.40625 54.6875 
L 54.390625 54.6875 
z
" id="DejaVuSans-67"/>
     <path d="M 54.890625 33.015625 
L 54.890625 0 
L 45.90625 0 
L 45.90625 32.71875 
Q 45.90625 40.484375 42.875 44.328125 
Q 39.84375 48.1875 33.796875 48.1875 
Q 26.515625 48.1875 22.3125 43.546875 
Q 18.109375 38.921875 18.109375 30.90625 
L 18.109375 0 
L 9.078125 0 
L 9.078125 75.984375 
L 18.109375 75.984375 
L 18.109375 46.1875 
Q 21.34375 51.125 25.703125 53.5625 
Q 30.078125 56 35.796875 56 
Q 45.21875 56 50.046875 50.171875 
Q 54.890625 44.34375 54.890625 33.015625 
z
" id="DejaVuSans-68"/>
     <path d="M 11.71875 12.40625 
L 22.015625 12.40625 
L 22.015625 4 
L 14.015625 -11.625 
L 7.71875 -11.625 
L 11.71875 4 
z
" id="DejaVuSans-2c"/>
     <path d="M 18.109375 8.203125 
L 18.109375 -20.796875 
L 9.078125 -20.796875 
L 9.078125 54.6875 
L 18.109375 54.6875 
L 18.109375 46.390625 
Q 20.953125 51.265625 25.265625 53.625 
Q 29.59375 56 35.59375 56 
Q 45.5625 56 51.78125 48.09375 
Q 58.015625 40.1875 58.015625 27.296875 
Q 58.015625 14.40625 51.78125 6.484375 
Q 45.5625 -1.421875 35.59375 -1.421875 
Q 29.59375 -1.421875 25.265625 0.953125 
Q 20.953125 3.328125 18.109375 8.203125 
z
M 48.6875 27.296875 
Q 48.6875 37.203125 44.609375 42.84375 
Q 40.53125 48.484375 33.40625 48.484375 
Q 26.265625 48.484375 22.1875 42.84375 
Q 18.109375 37.203125 18.109375 27.296875 
Q 18.109375 17.390625 22.1875 11.75 
Q 26.265625 6.109375 33.40625 6.109375 
Q 40.53125 6.109375 44.609375 11.75 
Q 48.6875 17.390625 48.6875 27.296875 
z
" id="DejaVuSans-70"/>
     <path d="M 45.40625 46.390625 
L 45.40625 75.984375 
L 54.390625 75.984375 
L 54.390625 0 
L 45.40625 0 
L 45.40625 8.203125 
Q 42.578125 3.328125 38.25 0.953125 
Q 33.9375 -1.421875 27.875 -1.421875 
Q 17.96875 -1.421875 11.734375 6.484375 
Q 5.515625 14.40625 5.515625 27.296875 
Q 5.515625 40.1875 11.734375 48.09375 
Q 17.96875 56 27.875 56 
Q 33.9375 56 38.25 53.625 
Q 42.578125 51.265625 45.40625 46.390625 
z
M 14.796875 27.296875 
Q 14.796875 17.390625 18.875 11.75 
Q 22.953125 6.109375 30.078125 6.109375 
Q 37.203125 6.109375 41.296875 11.75 
Q 45.40625 17.390625 45.40625 27.296875 
Q 45.40625 37.203125 41.296875 42.84375 
Q 37.203125 48.484375 30.078125 48.484375 
Q 22.953125 48.484375 18.875 42.84375 
Q 14.796875 37.203125 14.796875 27.296875 
z
" id="DejaVuSans-64"/>
     <path d="M 48.78125 52.59375 
L 48.78125 44.1875 
Q 44.96875 46.296875 41.140625 47.34375 
Q 37.3125 48.390625 33.40625 48.390625 
Q 24.65625 48.390625 19.8125 42.84375 
Q 14.984375 37.3125 14.984375 27.296875 
Q 14.984375 17.28125 19.8125 11.734375 
Q 24.65625 6.203125 33.40625 6.203125 
Q 37.3125 6.203125 41.140625 7.25 
Q 44.96875 8.296875 48.78125 10.40625 
L 48.78125 2.09375 
Q 45.015625 0.34375 40.984375 -0.53125 
Q 36.96875 -1.421875 32.421875 -1.421875 
Q 20.0625 -1.421875 12.78125 6.34375 
Q 5.515625 14.109375 5.515625 27.296875 
Q 5.515625 40.671875 12.859375 48.328125 
Q 20.21875 56 33.015625 56 
Q 37.15625 56 41.109375 55.140625 
Q 45.0625 54.296875 48.78125 52.59375 
z
" id="DejaVuSans-63"/>
     <path d="M 17.921875 72.90625 
L 17.921875 45.796875 
L 9.625 45.796875 
L 9.625 72.90625 
z
M 36.375 72.90625 
L 36.375 45.796875 
L 28.078125 45.796875 
L 28.078125 72.90625 
z
" id="DejaVuSans-22"/>
     <path d="M 9.8125 72.90625 
L 55.90625 72.90625 
L 55.90625 64.59375 
L 19.671875 64.59375 
L 19.671875 43.015625 
L 54.390625 43.015625 
L 54.390625 34.71875 
L 19.671875 34.71875 
L 19.671875 8.296875 
L 56.78125 8.296875 
L 56.78125 0 
L 9.8125 0 
z
" id="DejaVuSans-45"/>
     <path d="M 9.421875 75.984375 
L 18.40625 75.984375 
L 18.40625 0 
L 9.421875 0 
z
" id="DejaVuSans-6c"/>
     <path d="M 32.171875 -5.078125 
Q 28.375 -14.84375 24.75 -17.8125 
Q 21.140625 -20.796875 15.09375 -20.796875 
L 7.90625 -20.796875 
L 7.90625 -13.28125 
L 13.1875 -13.28125 
Q 16.890625 -13.28125 18.9375 -11.515625 
Q 21 -9.765625 23.484375 -3.21875 
L 25.09375 0.875 
L 2.984375 54.6875 
L 12.5 54.6875 
L 29.59375 11.921875 
L 46.6875 54.6875 
L 56.203125 54.6875 
z
" id="DejaVuSans-79"/>
    </defs>
    <g transform="translate(7.2 18.14175)scale(0.144 -0.144)">
     <use xlink:href="#DejaVuSans-44"/>
     <use x="77.001953" xlink:href="#DejaVuSans-69"/>
     <use x="104.785156" xlink:href="#DejaVuSans-73"/>
     <use x="156.884766" xlink:href="#DejaVuSans-74"/>
     <use x="196.09375" xlink:href="#DejaVuSans-72"/>
     <use x="237.207031" xlink:href="#DejaVuSans-69"/>
     <use x="264.990234" xlink:href="#DejaVuSans-62"/>
     <use x="328.466797" xlink:href="#DejaVuSans-75"/>
     <use x="391.845703" xlink:href="#DejaVuSans-74"/>
     <use x="431.054688" xlink:href="#DejaVuSans-69"/>
     <use x="458.837891" xlink:href="#DejaVuSans-6f"/>
     <use x="520.019531" xlink:href="#DejaVuSans-6e"/>
     <use x="583.398438" xlink:href="#DejaVuSans-20"/>
     <use x="615.185547" xlink:href="#DejaVuSans-6f"/>
     <use x="676.367188" xlink:href="#DejaVuSans-66"/>
     <use x="711.572266" xlink:href="#DejaVuSans-20"/>
     <use x="743.359375" xlink:href="#DejaVuSans-61"/>
     <use x="804.638672" xlink:href="#DejaVuSans-76"/>
     <use x="863.818359" xlink:href="#DejaVuSans-65"/>
     <use x="925.341797" xlink:href="#DejaVuSans-72"/>
     <use x="966.455078" xlink:href="#DejaVuSans-61"/>
     <use x="1027.734375" xlink:href="#DejaVuSans-67"/>
     <use x="1091.210938" xlink:href="#DejaVuSans-65"/>
     <use x="1152.734375" xlink:href="#DejaVuSans-20"/>
     <use x="1184.521484" xlink:href="#DejaVuSans-6f"/>
     <use x="1245.703125" xlink:href="#DejaVuSans-66"/>
     <use x="1280.908203" xlink:href="#DejaVuSans-20"/>
     <use x="1312.695312" xlink:href="#DejaVuSans-74"/>
     <use x="1351.904297" xlink:href="#DejaVuSans-68"/>
     <use x="1415.283203" xlink:href="#DejaVuSans-65"/>
     <use x="1476.806641" xlink:href="#DejaVuSans-20"/>
     <use x="1508.59375" xlink:href="#DejaVuSans-73"/>
     <use x="1560.693359" xlink:href="#DejaVuSans-65"/>
     <use x="1622.216797" xlink:href="#DejaVuSans-6e"/>
     <use x="1685.595703" xlink:href="#DejaVuSans-74"/>
     <use x="1724.804688" xlink:href="#DejaVuSans-69"/>
     <use x="1752.587891" xlink:href="#DejaVuSans-6d"/>
     <use x="1850" xlink:href="#DejaVuSans-65"/>
     <use x="1911.523438" xlink:href="#DejaVuSans-6e"/>
     <use x="1974.902344" xlink:href="#DejaVuSans-74"/>
     <use x="2014.111328" xlink:href="#DejaVuSans-20"/>
     <use x="2045.898438" xlink:href="#DejaVuSans-6f"/>
     <use x="2107.080078" xlink:href="#DejaVuSans-66"/>
     <use x="2142.285156" xlink:href="#DejaVuSans-20"/>
     <use x="2174.072266" xlink:href="#DejaVuSans-74"/>
     <use x="2213.28125" xlink:href="#DejaVuSans-68"/>
     <use x="2276.660156" xlink:href="#DejaVuSans-65"/>
     <use x="2338.183594" xlink:href="#DejaVuSans-20"/>
     <use x="2369.970703" xlink:href="#DejaVuSans-72"/>
     <use x="2411.052734" xlink:href="#DejaVuSans-65"/>
     <use x="2472.576172" xlink:href="#DejaVuSans-76"/>
     <use x="2531.755859" xlink:href="#DejaVuSans-69"/>
     <use x="2559.539062" xlink:href="#DejaVuSans-65"/>
     <use x="2621.0625" xlink:href="#DejaVuSans-77"/>
     <use x="2702.849609" xlink:href="#DejaVuSans-73"/>
     <use x="2754.949219" xlink:href="#DejaVuSans-2c"/>
     <use x="2786.736328" xlink:href="#DejaVuSans-20"/>
     <use x="2818.523438" xlink:href="#DejaVuSans-70"/>
     <use x="2882" xlink:href="#DejaVuSans-65"/>
     <use x="2943.523438" xlink:href="#DejaVuSans-72"/>
     <use x="2984.636719" xlink:href="#DejaVuSans-20"/>
     <use x="3016.423828" xlink:href="#DejaVuSans-70"/>
     <use x="3079.900391" xlink:href="#DejaVuSans-72"/>
     <use x="3120.982422" xlink:href="#DejaVuSans-6f"/>
     <use x="3182.164062" xlink:href="#DejaVuSans-64"/>
     <use x="3245.640625" xlink:href="#DejaVuSans-75"/>
     <use x="3309.019531" xlink:href="#DejaVuSans-63"/>
     <use x="3364" xlink:href="#DejaVuSans-74"/>
     <use x="3403.208984" xlink:href="#DejaVuSans-20"/>
     <use x="3434.996094" xlink:href="#DejaVuSans-69"/>
     <use x="3462.779297" xlink:href="#DejaVuSans-6e"/>
     <use x="3526.158203" xlink:href="#DejaVuSans-20"/>
     <use x="3557.945312" xlink:href="#DejaVuSans-74"/>
     <use x="3597.154297" xlink:href="#DejaVuSans-68"/>
     <use x="3660.533203" xlink:href="#DejaVuSans-65"/>
     <use x="3722.056641" xlink:href="#DejaVuSans-20"/>
     <use x="3753.84375" xlink:href="#DejaVuSans-22"/>
     <use x="3799.839844" xlink:href="#DejaVuSans-45"/>
     <use x="3863.023438" xlink:href="#DejaVuSans-6c"/>
     <use x="3890.806641" xlink:href="#DejaVuSans-65"/>
     <use x="3952.330078" xlink:href="#DejaVuSans-63"/>
     <use x="4007.310547" xlink:href="#DejaVuSans-74"/>
     <use x="4046.519531" xlink:href="#DejaVuSans-72"/>
     <use x="4087.601562" xlink:href="#DejaVuSans-6f"/>
     <use x="4148.783203" xlink:href="#DejaVuSans-6e"/>
     <use x="4212.162109" xlink:href="#DejaVuSans-69"/>
     <use x="4239.945312" xlink:href="#DejaVuSans-63"/>
     <use x="4294.925781" xlink:href="#DejaVuSans-22"/>
     <use x="4340.921875" xlink:href="#DejaVuSans-20"/>
     <use x="4372.708984" xlink:href="#DejaVuSans-63"/>
     <use x="4427.689453" xlink:href="#DejaVuSans-61"/>
     <use x="4488.96875" xlink:href="#DejaVuSans-74"/>
     <use x="4528.177734" xlink:href="#DejaVuSans-65"/>
     <use x="4589.701172" xlink:href="#DejaVuSans-67"/>
     <use x="4653.177734" xlink:href="#DejaVuSans-6f"/>
     <use x="4714.359375" xlink:href="#DejaVuSans-72"/>
     <use x="4755.472656" xlink:href="#DejaVuSans-79"/>
    </g>
   </g>
  </g>
 </g>
 <defs>
  <clipPath id="p6be6a279bd">
   <rect height="326.16" width="558" x="74.853" y="24.14175"/>
  </clipPath>
 </defs>
</svg>
