<?xml version="1.0" encoding="utf-8" standalone="no"?>
<!DOCTYPE svg PUBLIC "-//W3C//DTD SVG 1.1//EN"
  "http://www.w3.org/Graphics/SVG/1.1/DTD/svg11.dtd">
<!-- Created with matplotlib (http://matplotlib.org/) -->
<svg height="267pt" version="1.1" viewBox="0 0 413 267" width="413pt" xmlns="http://www.w3.org/2000/svg" xmlns:xlink="http://www.w3.org/1999/xlink">
 <defs>
  <style type="text/css">
*{stroke-linecap:butt;stroke-linejoin:round;}
  </style>
 </defs>
 <g id="figure_1">
  <g id="patch_1">
   <path d="M 0 267.631875 
L 413.48875 267.631875 
L 413.48875 0 
L 0 0 
z
" style="fill:#ffffff;"/>
  </g>
  <g id="axes_1">
   <g id="patch_2">
    <path d="M 67.98875 228.14 
L 402.78875 228.14 
L 402.78875 10.7 
L 67.98875 10.7 
z
" style="fill:#e5e5e5;"/>
   </g>
   <g id="matplotlib.axis_1">
    <g id="xtick_1">
     <g id="line2d_1">
      <path clip-path="url(#p6e6c086417)" d="M 83.146047 228.14 
L 83.146047 10.7 
" style="fill:none;stroke:#ffffff;stroke-linecap:square;stroke-width:0.8;"/>
     </g>
     <g id="line2d_2">
      <defs>
       <path d="M 0 0 
L 0 3.5 
" id="m51caf4408f" style="stroke:#555555;stroke-width:0.8;"/>
      </defs>
      <g>
       <use style="fill:#555555;stroke:#555555;stroke-width:0.8;" x="83.146047" xlink:href="#m51caf4408f" y="228.14"/>
      </g>
     </g>
     <g id="text_1">
      <!-- 1.0 -->
      <defs>
       <path d="M 12.40625 8.296875 
L 28.515625 8.296875 
L 28.515625 63.921875 
L 10.984375 60.40625 
L 10.984375 69.390625 
L 28.421875 72.90625 
L 38.28125 72.90625 
L 38.28125 8.296875 
L 54.390625 8.296875 
L 54.390625 0 
L 12.40625 0 
z
" id="DejaVuSans-31"/>
       <path d="M 10.6875 12.40625 
L 21 12.40625 
L 21 0 
L 10.6875 0 
z
" id="DejaVuSans-2e"/>
       <path d="M 31.78125 66.40625 
Q 24.171875 66.40625 20.328125 58.90625 
Q 16.5 51.421875 16.5 36.375 
Q 16.5 21.390625 20.328125 13.890625 
Q 24.171875 6.390625 31.78125 6.390625 
Q 39.453125 6.390625 43.28125 13.890625 
Q 47.125 21.390625 47.125 36.375 
Q 47.125 51.421875 43.28125 58.90625 
Q 39.453125 66.40625 31.78125 66.40625 
z
M 31.78125 74.21875 
Q 44.046875 74.21875 50.515625 64.515625 
Q 56.984375 54.828125 56.984375 36.375 
Q 56.984375 17.96875 50.515625 8.265625 
Q 44.046875 -1.421875 31.78125 -1.421875 
Q 19.53125 -1.421875 13.0625 8.265625 
Q 6.59375 17.96875 6.59375 36.375 
Q 6.59375 54.828125 13.0625 64.515625 
Q 19.53125 74.21875 31.78125 74.21875 
z
" id="DejaVuSans-30"/>
      </defs>
      <g style="fill:#555555;" transform="translate(75.194484 242.738437)scale(0.1 -0.1)">
       <use xlink:href="#DejaVuSans-31"/>
       <use x="63.623047" xlink:href="#DejaVuSans-2e"/>
       <use x="95.410156" xlink:href="#DejaVuSans-30"/>
      </g>
     </g>
    </g>
    <g id="xtick_2">
     <g id="line2d_3">
      <path clip-path="url(#p6e6c086417)" d="M 121.199112 228.14 
L 121.199112 10.7 
" style="fill:none;stroke:#ffffff;stroke-linecap:square;stroke-width:0.8;"/>
     </g>
     <g id="line2d_4">
      <g>
       <use style="fill:#555555;stroke:#555555;stroke-width:0.8;" x="121.199112" xlink:href="#m51caf4408f" y="228.14"/>
      </g>
     </g>
     <g id="text_2">
      <!-- 1.5 -->
      <defs>
       <path d="M 10.796875 72.90625 
L 49.515625 72.90625 
L 49.515625 64.59375 
L 19.828125 64.59375 
L 19.828125 46.734375 
Q 21.96875 47.46875 24.109375 47.828125 
Q 26.265625 48.1875 28.421875 48.1875 
Q 40.625 48.1875 47.75 41.5 
Q 54.890625 34.8125 54.890625 23.390625 
Q 54.890625 11.625 47.5625 5.09375 
Q 40.234375 -1.421875 26.90625 -1.421875 
Q 22.3125 -1.421875 17.546875 -0.640625 
Q 12.796875 0.140625 7.71875 1.703125 
L 7.71875 11.625 
Q 12.109375 9.234375 16.796875 8.0625 
Q 21.484375 6.890625 26.703125 6.890625 
Q 35.15625 6.890625 40.078125 11.328125 
Q 45.015625 15.765625 45.015625 23.390625 
Q 45.015625 31 40.078125 35.4375 
Q 35.15625 39.890625 26.703125 39.890625 
Q 22.75 39.890625 18.8125 39.015625 
Q 14.890625 38.140625 10.796875 36.28125 
z
" id="DejaVuSans-35"/>
      </defs>
      <g style="fill:#555555;" transform="translate(113.24755 242.738437)scale(0.1 -0.1)">
       <use xlink:href="#DejaVuSans-31"/>
       <use x="63.623047" xlink:href="#DejaVuSans-2e"/>
       <use x="95.410156" xlink:href="#DejaVuSans-35"/>
      </g>
     </g>
    </g>
    <g id="xtick_3">
     <g id="line2d_5">
      <path clip-path="url(#p6e6c086417)" d="M 159.252177 228.14 
L 159.252177 10.7 
" style="fill:none;stroke:#ffffff;stroke-linecap:square;stroke-width:0.8;"/>
     </g>
     <g id="line2d_6">
      <g>
       <use style="fill:#555555;stroke:#555555;stroke-width:0.8;" x="159.252177" xlink:href="#m51caf4408f" y="228.14"/>
      </g>
     </g>
     <g id="text_3">
      <!-- 2.0 -->
      <defs>
       <path d="M 19.1875 8.296875 
L 53.609375 8.296875 
L 53.609375 0 
L 7.328125 0 
L 7.328125 8.296875 
Q 12.9375 14.109375 22.625 23.890625 
Q 32.328125 33.6875 34.8125 36.53125 
Q 39.546875 41.84375 41.421875 45.53125 
Q 43.3125 49.21875 43.3125 52.78125 
Q 43.3125 58.59375 39.234375 62.25 
Q 35.15625 65.921875 28.609375 65.921875 
Q 23.96875 65.921875 18.8125 64.3125 
Q 13.671875 62.703125 7.8125 59.421875 
L 7.8125 69.390625 
Q 13.765625 71.78125 18.9375 73 
Q 24.125 74.21875 28.421875 74.21875 
Q 39.75 74.21875 46.484375 68.546875 
Q 53.21875 62.890625 53.21875 53.421875 
Q 53.21875 48.921875 51.53125 44.890625 
Q 49.859375 40.875 45.40625 35.40625 
Q 44.1875 33.984375 37.640625 27.21875 
Q 31.109375 20.453125 19.1875 8.296875 
z
" id="DejaVuSans-32"/>
      </defs>
      <g style="fill:#555555;" transform="translate(151.300615 242.738437)scale(0.1 -0.1)">
       <use xlink:href="#DejaVuSans-32"/>
       <use x="63.623047" xlink:href="#DejaVuSans-2e"/>
       <use x="95.410156" xlink:href="#DejaVuSans-30"/>
      </g>
     </g>
    </g>
    <g id="xtick_4">
     <g id="line2d_7">
      <path clip-path="url(#p6e6c086417)" d="M 197.305242 228.14 
L 197.305242 10.7 
" style="fill:none;stroke:#ffffff;stroke-linecap:square;stroke-width:0.8;"/>
     </g>
     <g id="line2d_8">
      <g>
       <use style="fill:#555555;stroke:#555555;stroke-width:0.8;" x="197.305242" xlink:href="#m51caf4408f" y="228.14"/>
      </g>
     </g>
     <g id="text_4">
      <!-- 2.5 -->
      <g style="fill:#555555;" transform="translate(189.35368 242.738437)scale(0.1 -0.1)">
       <use xlink:href="#DejaVuSans-32"/>
       <use x="63.623047" xlink:href="#DejaVuSans-2e"/>
       <use x="95.410156" xlink:href="#DejaVuSans-35"/>
      </g>
     </g>
    </g>
    <g id="xtick_5">
     <g id="line2d_9">
      <path clip-path="url(#p6e6c086417)" d="M 235.358308 228.14 
L 235.358308 10.7 
" style="fill:none;stroke:#ffffff;stroke-linecap:square;stroke-width:0.8;"/>
     </g>
     <g id="line2d_10">
      <g>
       <use style="fill:#555555;stroke:#555555;stroke-width:0.8;" x="235.358308" xlink:href="#m51caf4408f" y="228.14"/>
      </g>
     </g>
     <g id="text_5">
      <!-- 3.0 -->
      <defs>
       <path d="M 40.578125 39.3125 
Q 47.65625 37.796875 51.625 33 
Q 55.609375 28.21875 55.609375 21.1875 
Q 55.609375 10.40625 48.1875 4.484375 
Q 40.765625 -1.421875 27.09375 -1.421875 
Q 22.515625 -1.421875 17.65625 -0.515625 
Q 12.796875 0.390625 7.625 2.203125 
L 7.625 11.71875 
Q 11.71875 9.328125 16.59375 8.109375 
Q 21.484375 6.890625 26.8125 6.890625 
Q 36.078125 6.890625 40.9375 10.546875 
Q 45.796875 14.203125 45.796875 21.1875 
Q 45.796875 27.640625 41.28125 31.265625 
Q 36.765625 34.90625 28.71875 34.90625 
L 20.21875 34.90625 
L 20.21875 43.015625 
L 29.109375 43.015625 
Q 36.375 43.015625 40.234375 45.921875 
Q 44.09375 48.828125 44.09375 54.296875 
Q 44.09375 59.90625 40.109375 62.90625 
Q 36.140625 65.921875 28.71875 65.921875 
Q 24.65625 65.921875 20.015625 65.03125 
Q 15.375 64.15625 9.8125 62.3125 
L 9.8125 71.09375 
Q 15.4375 72.65625 20.34375 73.4375 
Q 25.25 74.21875 29.59375 74.21875 
Q 40.828125 74.21875 47.359375 69.109375 
Q 53.90625 64.015625 53.90625 55.328125 
Q 53.90625 49.265625 50.4375 45.09375 
Q 46.96875 40.921875 40.578125 39.3125 
z
" id="DejaVuSans-33"/>
      </defs>
      <g style="fill:#555555;" transform="translate(227.406745 242.738437)scale(0.1 -0.1)">
       <use xlink:href="#DejaVuSans-33"/>
       <use x="63.623047" xlink:href="#DejaVuSans-2e"/>
       <use x="95.410156" xlink:href="#DejaVuSans-30"/>
      </g>
     </g>
    </g>
    <g id="xtick_6">
     <g id="line2d_11">
      <path clip-path="url(#p6e6c086417)" d="M 273.411373 228.14 
L 273.411373 10.7 
" style="fill:none;stroke:#ffffff;stroke-linecap:square;stroke-width:0.8;"/>
     </g>
     <g id="line2d_12">
      <g>
       <use style="fill:#555555;stroke:#555555;stroke-width:0.8;" x="273.411373" xlink:href="#m51caf4408f" y="228.14"/>
      </g>
     </g>
     <g id="text_6">
      <!-- 3.5 -->
      <g style="fill:#555555;" transform="translate(265.45981 242.738437)scale(0.1 -0.1)">
       <use xlink:href="#DejaVuSans-33"/>
       <use x="63.623047" xlink:href="#DejaVuSans-2e"/>
       <use x="95.410156" xlink:href="#DejaVuSans-35"/>
      </g>
     </g>
    </g>
    <g id="xtick_7">
     <g id="line2d_13">
      <path clip-path="url(#p6e6c086417)" d="M 311.464438 228.14 
L 311.464438 10.7 
" style="fill:none;stroke:#ffffff;stroke-linecap:square;stroke-width:0.8;"/>
     </g>
     <g id="line2d_14">
      <g>
       <use style="fill:#555555;stroke:#555555;stroke-width:0.8;" x="311.464438" xlink:href="#m51caf4408f" y="228.14"/>
      </g>
     </g>
     <g id="text_7">
      <!-- 4.0 -->
      <defs>
       <path d="M 37.796875 64.3125 
L 12.890625 25.390625 
L 37.796875 25.390625 
z
M 35.203125 72.90625 
L 47.609375 72.90625 
L 47.609375 25.390625 
L 58.015625 25.390625 
L 58.015625 17.1875 
L 47.609375 17.1875 
L 47.609375 0 
L 37.796875 0 
L 37.796875 17.1875 
L 4.890625 17.1875 
L 4.890625 26.703125 
z
" id="DejaVuSans-34"/>
      </defs>
      <g style="fill:#555555;" transform="translate(303.512875 242.738437)scale(0.1 -0.1)">
       <use xlink:href="#DejaVuSans-34"/>
       <use x="63.623047" xlink:href="#DejaVuSans-2e"/>
       <use x="95.410156" xlink:href="#DejaVuSans-30"/>
      </g>
     </g>
    </g>
    <g id="xtick_8">
     <g id="line2d_15">
      <path clip-path="url(#p6e6c086417)" d="M 349.517503 228.14 
L 349.517503 10.7 
" style="fill:none;stroke:#ffffff;stroke-linecap:square;stroke-width:0.8;"/>
     </g>
     <g id="line2d_16">
      <g>
       <use style="fill:#555555;stroke:#555555;stroke-width:0.8;" x="349.517503" xlink:href="#m51caf4408f" y="228.14"/>
      </g>
     </g>
     <g id="text_8">
      <!-- 4.5 -->
      <g style="fill:#555555;" transform="translate(341.565941 242.738437)scale(0.1 -0.1)">
       <use xlink:href="#DejaVuSans-34"/>
       <use x="63.623047" xlink:href="#DejaVuSans-2e"/>
       <use x="95.410156" xlink:href="#DejaVuSans-35"/>
      </g>
     </g>
    </g>
    <g id="xtick_9">
     <g id="line2d_17">
      <path clip-path="url(#p6e6c086417)" d="M 387.570568 228.14 
L 387.570568 10.7 
" style="fill:none;stroke:#ffffff;stroke-linecap:square;stroke-width:0.8;"/>
     </g>
     <g id="line2d_18">
      <g>
       <use style="fill:#555555;stroke:#555555;stroke-width:0.8;" x="387.570568" xlink:href="#m51caf4408f" y="228.14"/>
      </g>
     </g>
     <g id="text_9">
      <!-- 5.0 -->
      <g style="fill:#555555;" transform="translate(379.619006 242.738437)scale(0.1 -0.1)">
       <use xlink:href="#DejaVuSans-35"/>
       <use x="63.623047" xlink:href="#DejaVuSans-2e"/>
       <use x="95.410156" xlink:href="#DejaVuSans-30"/>
      </g>
     </g>
    </g>
    <g id="text_10">
     <!-- Review Sentiment -->
     <defs>
      <path d="M 44.390625 34.1875 
Q 47.5625 33.109375 50.5625 29.59375 
Q 53.5625 26.078125 56.59375 19.921875 
L 66.609375 0 
L 56 0 
L 46.6875 18.703125 
Q 43.0625 26.03125 39.671875 28.421875 
Q 36.28125 30.8125 30.421875 30.8125 
L 19.671875 30.8125 
L 19.671875 0 
L 9.8125 0 
L 9.8125 72.90625 
L 32.078125 72.90625 
Q 44.578125 72.90625 50.734375 67.671875 
Q 56.890625 62.453125 56.890625 51.90625 
Q 56.890625 45.015625 53.6875 40.46875 
Q 50.484375 35.9375 44.390625 34.1875 
z
M 19.671875 64.796875 
L 19.671875 38.921875 
L 32.078125 38.921875 
Q 39.203125 38.921875 42.84375 42.21875 
Q 46.484375 45.515625 46.484375 51.90625 
Q 46.484375 58.296875 42.84375 61.546875 
Q 39.203125 64.796875 32.078125 64.796875 
z
" id="DejaVuSans-52"/>
      <path d="M 56.203125 29.59375 
L 56.203125 25.203125 
L 14.890625 25.203125 
Q 15.484375 15.921875 20.484375 11.0625 
Q 25.484375 6.203125 34.421875 6.203125 
Q 39.59375 6.203125 44.453125 7.46875 
Q 49.3125 8.734375 54.109375 11.28125 
L 54.109375 2.78125 
Q 49.265625 0.734375 44.1875 -0.34375 
Q 39.109375 -1.421875 33.890625 -1.421875 
Q 20.796875 -1.421875 13.15625 6.1875 
Q 5.515625 13.8125 5.515625 26.8125 
Q 5.515625 40.234375 12.765625 48.109375 
Q 20.015625 56 32.328125 56 
Q 43.359375 56 49.78125 48.890625 
Q 56.203125 41.796875 56.203125 29.59375 
z
M 47.21875 32.234375 
Q 47.125 39.59375 43.09375 43.984375 
Q 39.0625 48.390625 32.421875 48.390625 
Q 24.90625 48.390625 20.390625 44.140625 
Q 15.875 39.890625 15.1875 32.171875 
z
" id="DejaVuSans-65"/>
      <path d="M 2.984375 54.6875 
L 12.5 54.6875 
L 29.59375 8.796875 
L 46.6875 54.6875 
L 56.203125 54.6875 
L 35.6875 0 
L 23.484375 0 
z
" id="DejaVuSans-76"/>
      <path d="M 9.421875 54.6875 
L 18.40625 54.6875 
L 18.40625 0 
L 9.421875 0 
z
M 9.421875 75.984375 
L 18.40625 75.984375 
L 18.40625 64.59375 
L 9.421875 64.59375 
z
" id="DejaVuSans-69"/>
      <path d="M 4.203125 54.6875 
L 13.1875 54.6875 
L 24.421875 12.015625 
L 35.59375 54.6875 
L 46.1875 54.6875 
L 57.421875 12.015625 
L 68.609375 54.6875 
L 77.59375 54.6875 
L 63.28125 0 
L 52.6875 0 
L 40.921875 44.828125 
L 29.109375 0 
L 18.5 0 
z
" id="DejaVuSans-77"/>
      <path id="DejaVuSans-20"/>
      <path d="M 53.515625 70.515625 
L 53.515625 60.890625 
Q 47.90625 63.578125 42.921875 64.890625 
Q 37.9375 66.21875 33.296875 66.21875 
Q 25.25 66.21875 20.875 63.09375 
Q 16.5 59.96875 16.5 54.203125 
Q 16.5 49.359375 19.40625 46.890625 
Q 22.3125 44.4375 30.421875 42.921875 
L 36.375 41.703125 
Q 47.40625 39.59375 52.65625 34.296875 
Q 57.90625 29 57.90625 20.125 
Q 57.90625 9.515625 50.796875 4.046875 
Q 43.703125 -1.421875 29.984375 -1.421875 
Q 24.8125 -1.421875 18.96875 -0.25 
Q 13.140625 0.921875 6.890625 3.21875 
L 6.890625 13.375 
Q 12.890625 10.015625 18.65625 8.296875 
Q 24.421875 6.59375 29.984375 6.59375 
Q 38.421875 6.59375 43.015625 9.90625 
Q 47.609375 13.234375 47.609375 19.390625 
Q 47.609375 24.75 44.3125 27.78125 
Q 41.015625 30.8125 33.5 32.328125 
L 27.484375 33.5 
Q 16.453125 35.6875 11.515625 40.375 
Q 6.59375 45.0625 6.59375 53.421875 
Q 6.59375 63.09375 13.40625 68.65625 
Q 20.21875 74.21875 32.171875 74.21875 
Q 37.3125 74.21875 42.625 73.28125 
Q 47.953125 72.359375 53.515625 70.515625 
z
" id="DejaVuSans-53"/>
      <path d="M 54.890625 33.015625 
L 54.890625 0 
L 45.90625 0 
L 45.90625 32.71875 
Q 45.90625 40.484375 42.875 44.328125 
Q 39.84375 48.1875 33.796875 48.1875 
Q 26.515625 48.1875 22.3125 43.546875 
Q 18.109375 38.921875 18.109375 30.90625 
L 18.109375 0 
L 9.078125 0 
L 9.078125 54.6875 
L 18.109375 54.6875 
L 18.109375 46.1875 
Q 21.34375 51.125 25.703125 53.5625 
Q 30.078125 56 35.796875 56 
Q 45.21875 56 50.046875 50.171875 
Q 54.890625 44.34375 54.890625 33.015625 
z
" id="DejaVuSans-6e"/>
      <path d="M 18.3125 70.21875 
L 18.3125 54.6875 
L 36.8125 54.6875 
L 36.8125 47.703125 
L 18.3125 47.703125 
L 18.3125 18.015625 
Q 18.3125 11.328125 20.140625 9.421875 
Q 21.96875 7.515625 27.59375 7.515625 
L 36.8125 7.515625 
L 36.8125 0 
L 27.59375 0 
Q 17.1875 0 13.234375 3.875 
Q 9.28125 7.765625 9.28125 18.015625 
L 9.28125 47.703125 
L 2.6875 47.703125 
L 2.6875 54.6875 
L 9.28125 54.6875 
L 9.28125 70.21875 
z
" id="DejaVuSans-74"/>
      <path d="M 52 44.1875 
Q 55.375 50.25 60.0625 53.125 
Q 64.75 56 71.09375 56 
Q 79.640625 56 84.28125 50.015625 
Q 88.921875 44.046875 88.921875 33.015625 
L 88.921875 0 
L 79.890625 0 
L 79.890625 32.71875 
Q 79.890625 40.578125 77.09375 44.375 
Q 74.3125 48.1875 68.609375 48.1875 
Q 61.625 48.1875 57.5625 43.546875 
Q 53.515625 38.921875 53.515625 30.90625 
L 53.515625 0 
L 44.484375 0 
L 44.484375 32.71875 
Q 44.484375 40.625 41.703125 44.40625 
Q 38.921875 48.1875 33.109375 48.1875 
Q 26.21875 48.1875 22.15625 43.53125 
Q 18.109375 38.875 18.109375 30.90625 
L 18.109375 0 
L 9.078125 0 
L 9.078125 54.6875 
L 18.109375 54.6875 
L 18.109375 46.1875 
Q 21.1875 51.21875 25.484375 53.609375 
Q 29.78125 56 35.6875 56 
Q 41.65625 56 45.828125 52.96875 
Q 50 49.953125 52 44.1875 
z
" id="DejaVuSans-6d"/>
     </defs>
     <g style="fill:#555555;" transform="translate(180.794375 257.93625)scale(0.12 -0.12)">
      <use xlink:href="#DejaVuSans-52"/>
      <use x="69.419922" xlink:href="#DejaVuSans-65"/>
      <use x="130.943359" xlink:href="#DejaVuSans-76"/>
      <use x="190.123047" xlink:href="#DejaVuSans-69"/>
      <use x="217.90625" xlink:href="#DejaVuSans-65"/>
      <use x="279.429688" xlink:href="#DejaVuSans-77"/>
      <use x="361.216797" xlink:href="#DejaVuSans-20"/>
      <use x="393.003906" xlink:href="#DejaVuSans-53"/>
      <use x="456.480469" xlink:href="#DejaVuSans-65"/>
      <use x="518.003906" xlink:href="#DejaVuSans-6e"/>
      <use x="581.382812" xlink:href="#DejaVuSans-74"/>
      <use x="620.591797" xlink:href="#DejaVuSans-69"/>
      <use x="648.375" xlink:href="#DejaVuSans-6d"/>
      <use x="745.787109" xlink:href="#DejaVuSans-65"/>
      <use x="807.310547" xlink:href="#DejaVuSans-6e"/>
      <use x="870.689453" xlink:href="#DejaVuSans-74"/>
     </g>
    </g>
   </g>
   <g id="matplotlib.axis_2">
    <g id="ytick_1">
     <g id="line2d_19">
      <path clip-path="url(#p6e6c086417)" d="M 67.98875 228.14 
L 402.78875 228.14 
" style="fill:none;stroke:#ffffff;stroke-linecap:square;stroke-width:0.8;"/>
     </g>
     <g id="line2d_20">
      <defs>
       <path d="M 0 0 
L -3.5 0 
" id="m32b159fb8a" style="stroke:#555555;stroke-width:0.8;"/>
      </defs>
      <g>
       <use style="fill:#555555;stroke:#555555;stroke-width:0.8;" x="67.98875" xlink:href="#m32b159fb8a" y="228.14"/>
      </g>
     </g>
     <g id="text_11">
      <!-- 0 -->
      <g style="fill:#555555;" transform="translate(54.62625 231.939219)scale(0.1 -0.1)">
       <use xlink:href="#DejaVuSans-30"/>
      </g>
     </g>
    </g>
    <g id="ytick_2">
     <g id="line2d_21">
      <path clip-path="url(#p6e6c086417)" d="M 67.98875 189.294725 
L 402.78875 189.294725 
" style="fill:none;stroke:#ffffff;stroke-linecap:square;stroke-width:0.8;"/>
     </g>
     <g id="line2d_22">
      <g>
       <use style="fill:#555555;stroke:#555555;stroke-width:0.8;" x="67.98875" xlink:href="#m32b159fb8a" y="189.294725"/>
      </g>
     </g>
     <g id="text_12">
      <!-- 50000 -->
      <g style="fill:#555555;" transform="translate(29.17625 193.093944)scale(0.1 -0.1)">
       <use xlink:href="#DejaVuSans-35"/>
       <use x="63.623047" xlink:href="#DejaVuSans-30"/>
       <use x="127.246094" xlink:href="#DejaVuSans-30"/>
       <use x="190.869141" xlink:href="#DejaVuSans-30"/>
       <use x="254.492188" xlink:href="#DejaVuSans-30"/>
      </g>
     </g>
    </g>
    <g id="ytick_3">
     <g id="line2d_23">
      <path clip-path="url(#p6e6c086417)" d="M 67.98875 150.44945 
L 402.78875 150.44945 
" style="fill:none;stroke:#ffffff;stroke-linecap:square;stroke-width:0.8;"/>
     </g>
     <g id="line2d_24">
      <g>
       <use style="fill:#555555;stroke:#555555;stroke-width:0.8;" x="67.98875" xlink:href="#m32b159fb8a" y="150.44945"/>
      </g>
     </g>
     <g id="text_13">
      <!-- 100000 -->
      <g style="fill:#555555;" transform="translate(22.81375 154.248669)scale(0.1 -0.1)">
       <use xlink:href="#DejaVuSans-31"/>
       <use x="63.623047" xlink:href="#DejaVuSans-30"/>
       <use x="127.246094" xlink:href="#DejaVuSans-30"/>
       <use x="190.869141" xlink:href="#DejaVuSans-30"/>
       <use x="254.492188" xlink:href="#DejaVuSans-30"/>
       <use x="318.115234" xlink:href="#DejaVuSans-30"/>
      </g>
     </g>
    </g>
    <g id="ytick_4">
     <g id="line2d_25">
      <path clip-path="url(#p6e6c086417)" d="M 67.98875 111.604175 
L 402.78875 111.604175 
" style="fill:none;stroke:#ffffff;stroke-linecap:square;stroke-width:0.8;"/>
     </g>
     <g id="line2d_26">
      <g>
       <use style="fill:#555555;stroke:#555555;stroke-width:0.8;" x="67.98875" xlink:href="#m32b159fb8a" y="111.604175"/>
      </g>
     </g>
     <g id="text_14">
      <!-- 150000 -->
      <g style="fill:#555555;" transform="translate(22.81375 115.403394)scale(0.1 -0.1)">
       <use xlink:href="#DejaVuSans-31"/>
       <use x="63.623047" xlink:href="#DejaVuSans-35"/>
       <use x="127.246094" xlink:href="#DejaVuSans-30"/>
       <use x="190.869141" xlink:href="#DejaVuSans-30"/>
       <use x="254.492188" xlink:href="#DejaVuSans-30"/>
       <use x="318.115234" xlink:href="#DejaVuSans-30"/>
      </g>
     </g>
    </g>
    <g id="ytick_5">
     <g id="line2d_27">
      <path clip-path="url(#p6e6c086417)" d="M 67.98875 72.7589 
L 402.78875 72.7589 
" style="fill:none;stroke:#ffffff;stroke-linecap:square;stroke-width:0.8;"/>
     </g>
     <g id="line2d_28">
      <g>
       <use style="fill:#555555;stroke:#555555;stroke-width:0.8;" x="67.98875" xlink:href="#m32b159fb8a" y="72.7589"/>
      </g>
     </g>
     <g id="text_15">
      <!-- 200000 -->
      <g style="fill:#555555;" transform="translate(22.81375 76.558119)scale(0.1 -0.1)">
       <use xlink:href="#DejaVuSans-32"/>
       <use x="63.623047" xlink:href="#DejaVuSans-30"/>
       <use x="127.246094" xlink:href="#DejaVuSans-30"/>
       <use x="190.869141" xlink:href="#DejaVuSans-30"/>
       <use x="254.492188" xlink:href="#DejaVuSans-30"/>
       <use x="318.115234" xlink:href="#DejaVuSans-30"/>
      </g>
     </g>
    </g>
    <g id="ytick_6">
     <g id="line2d_29">
      <path clip-path="url(#p6e6c086417)" d="M 67.98875 33.913626 
L 402.78875 33.913626 
" style="fill:none;stroke:#ffffff;stroke-linecap:square;stroke-width:0.8;"/>
     </g>
     <g id="line2d_30">
      <g>
       <use style="fill:#555555;stroke:#555555;stroke-width:0.8;" x="67.98875" xlink:href="#m32b159fb8a" y="33.913626"/>
      </g>
     </g>
     <g id="text_16">
      <!-- 250000 -->
      <g style="fill:#555555;" transform="translate(22.81375 37.712844)scale(0.1 -0.1)">
       <use xlink:href="#DejaVuSans-32"/>
       <use x="63.623047" xlink:href="#DejaVuSans-35"/>
       <use x="127.246094" xlink:href="#DejaVuSans-30"/>
       <use x="190.869141" xlink:href="#DejaVuSans-30"/>
       <use x="254.492188" xlink:href="#DejaVuSans-30"/>
       <use x="318.115234" xlink:href="#DejaVuSans-30"/>
      </g>
     </g>
    </g>
    <g id="text_17">
     <!-- Count -->
     <defs>
      <path d="M 64.40625 67.28125 
L 64.40625 56.890625 
Q 59.421875 61.53125 53.78125 63.8125 
Q 48.140625 66.109375 41.796875 66.109375 
Q 29.296875 66.109375 22.65625 58.46875 
Q 16.015625 50.828125 16.015625 36.375 
Q 16.015625 21.96875 22.65625 14.328125 
Q 29.296875 6.6875 41.796875 6.6875 
Q 48.140625 6.6875 53.78125 8.984375 
Q 59.421875 11.28125 64.40625 15.921875 
L 64.40625 5.609375 
Q 59.234375 2.09375 53.4375 0.328125 
Q 47.65625 -1.421875 41.21875 -1.421875 
Q 24.65625 -1.421875 15.125 8.703125 
Q 5.609375 18.84375 5.609375 36.375 
Q 5.609375 53.953125 15.125 64.078125 
Q 24.65625 74.21875 41.21875 74.21875 
Q 47.75 74.21875 53.53125 72.484375 
Q 59.328125 70.75 64.40625 67.28125 
z
" id="DejaVuSans-43"/>
      <path d="M 30.609375 48.390625 
Q 23.390625 48.390625 19.1875 42.75 
Q 14.984375 37.109375 14.984375 27.296875 
Q 14.984375 17.484375 19.15625 11.84375 
Q 23.34375 6.203125 30.609375 6.203125 
Q 37.796875 6.203125 41.984375 11.859375 
Q 46.1875 17.53125 46.1875 27.296875 
Q 46.1875 37.015625 41.984375 42.703125 
Q 37.796875 48.390625 30.609375 48.390625 
z
M 30.609375 56 
Q 42.328125 56 49.015625 48.375 
Q 55.71875 40.765625 55.71875 27.296875 
Q 55.71875 13.875 49.015625 6.21875 
Q 42.328125 -1.421875 30.609375 -1.421875 
Q 18.84375 -1.421875 12.171875 6.21875 
Q 5.515625 13.875 5.515625 27.296875 
Q 5.515625 40.765625 12.171875 48.375 
Q 18.84375 56 30.609375 56 
z
" id="DejaVuSans-6f"/>
      <path d="M 8.5 21.578125 
L 8.5 54.6875 
L 17.484375 54.6875 
L 17.484375 21.921875 
Q 17.484375 14.15625 20.5 10.265625 
Q 23.53125 6.390625 29.59375 6.390625 
Q 36.859375 6.390625 41.078125 11.03125 
Q 45.3125 15.671875 45.3125 23.6875 
L 45.3125 54.6875 
L 54.296875 54.6875 
L 54.296875 0 
L 45.3125 0 
L 45.3125 8.40625 
Q 42.046875 3.421875 37.71875 1 
Q 33.40625 -1.421875 27.6875 -1.421875 
Q 18.265625 -1.421875 13.375 4.4375 
Q 8.5 10.296875 8.5 21.578125 
z
M 31.109375 56 
z
" id="DejaVuSans-75"/>
     </defs>
     <g style="fill:#555555;" transform="translate(16.318125 137.238125)rotate(-90)scale(0.12 -0.12)">
      <use xlink:href="#DejaVuSans-43"/>
      <use x="69.824219" xlink:href="#DejaVuSans-6f"/>
      <use x="131.005859" xlink:href="#DejaVuSans-75"/>
      <use x="194.384766" xlink:href="#DejaVuSans-6e"/>
      <use x="257.763672" xlink:href="#DejaVuSans-74"/>
     </g>
    </g>
   </g>
   <g id="patch_3">
    <path clip-path="url(#p6e6c086417)" d="M 83.206932 228.14 
L 89.294205 228.14 
L 89.294205 224.384439 
L 83.206932 224.384439 
z
" style="fill:#f08080;opacity:0.4;"/>
   </g>
   <g id="patch_4">
    <path clip-path="url(#p6e6c086417)" d="M 89.294205 228.14 
L 95.381477 228.14 
L 95.381477 221.935633 
L 89.294205 221.935633 
z
" style="fill:#f08080;opacity:0.4;"/>
   </g>
   <g id="patch_5">
    <path clip-path="url(#p6e6c086417)" d="M 95.381477 228.14 
L 101.46875 228.14 
L 101.46875 221.250402 
L 95.381477 221.250402 
z
" style="fill:#f08080;opacity:0.4;"/>
   </g>
   <g id="patch_6">
    <path clip-path="url(#p6e6c086417)" d="M 101.46875 228.14 
L 107.556023 228.14 
L 107.556023 221.033645 
L 101.46875 221.033645 
z
" style="fill:#f08080;opacity:0.4;"/>
   </g>
   <g id="patch_7">
    <path clip-path="url(#p6e6c086417)" d="M 107.556023 228.14 
L 113.643295 228.14 
L 113.643295 220.875934 
L 107.556023 220.875934 
z
" style="fill:#f08080;opacity:0.4;"/>
   </g>
   <g id="patch_8">
    <path clip-path="url(#p6e6c086417)" d="M 113.643295 228.14 
L 119.730568 228.14 
L 119.730568 220.847965 
L 113.643295 220.847965 
z
" style="fill:#f08080;opacity:0.4;"/>
   </g>
   <g id="patch_9">
    <path clip-path="url(#p6e6c086417)" d="M 119.730568 228.14 
L 125.817841 228.14 
L 125.817841 220.666946 
L 119.730568 220.666946 
z
" style="fill:#f08080;opacity:0.4;"/>
   </g>
   <g id="patch_10">
    <path clip-path="url(#p6e6c086417)" d="M 125.817841 228.14 
L 131.905114 228.14 
L 131.905114 220.383376 
L 125.817841 220.383376 
z
" style="fill:#f08080;opacity:0.4;"/>
   </g>
   <g id="patch_11">
    <path clip-path="url(#p6e6c086417)" d="M 131.905114 228.14 
L 137.992386 228.14 
L 137.992386 220.98237 
L 131.905114 220.98237 
z
" style="fill:#f08080;opacity:0.4;"/>
   </g>
   <g id="patch_12">
    <path clip-path="url(#p6e6c086417)" d="M 137.992386 228.14 
L 144.079659 228.14 
L 144.079659 220.805235 
L 137.992386 220.805235 
z
" style="fill:#f08080;opacity:0.4;"/>
   </g>
   <g id="patch_13">
    <path clip-path="url(#p6e6c086417)" d="M 144.079659 228.14 
L 150.166932 228.14 
L 150.166932 219.088274 
L 144.079659 219.088274 
z
" style="fill:#f08080;opacity:0.4;"/>
   </g>
   <g id="patch_14">
    <path clip-path="url(#p6e6c086417)" d="M 150.166932 228.14 
L 156.254205 228.14 
L 156.254205 219.793704 
L 150.166932 219.793704 
z
" style="fill:#f08080;opacity:0.4;"/>
   </g>
   <g id="patch_15">
    <path clip-path="url(#p6e6c086417)" d="M 156.254205 228.14 
L 162.341477 228.14 
L 162.341477 221.063945 
L 156.254205 221.063945 
z
" style="fill:#f08080;opacity:0.4;"/>
   </g>
   <g id="patch_16">
    <path clip-path="url(#p6e6c086417)" d="M 162.341477 228.14 
L 168.42875 228.14 
L 168.42875 219.452643 
L 162.341477 219.452643 
z
" style="fill:#f08080;opacity:0.4;"/>
   </g>
   <g id="patch_17">
    <path clip-path="url(#p6e6c086417)" d="M 168.42875 228.14 
L 174.516023 228.14 
L 174.516023 219.305031 
L 168.42875 219.305031 
z
" style="fill:#f08080;opacity:0.4;"/>
   </g>
   <g id="patch_18">
    <path clip-path="url(#p6e6c086417)" d="M 174.516023 228.14 
L 180.603295 228.14 
L 180.603295 220.804458 
L 174.516023 220.804458 
z
" style="fill:#f08080;opacity:0.4;"/>
   </g>
   <g id="patch_19">
    <path clip-path="url(#p6e6c086417)" d="M 180.603295 228.14 
L 186.690568 228.14 
L 186.690568 220.611009 
L 180.603295 220.611009 
z
" style="fill:#f08080;opacity:0.4;"/>
   </g>
   <g id="patch_20">
    <path clip-path="url(#p6e6c086417)" d="M 186.690568 228.14 
L 192.777841 228.14 
L 192.777841 218.011483 
L 186.690568 218.011483 
z
" style="fill:#f08080;opacity:0.4;"/>
   </g>
   <g id="patch_21">
    <path clip-path="url(#p6e6c086417)" d="M 192.777841 228.14 
L 198.865114 228.14 
L 198.865114 218.811696 
L 192.777841 218.811696 
z
" style="fill:#f08080;opacity:0.4;"/>
   </g>
   <g id="patch_22">
    <path clip-path="url(#p6e6c086417)" d="M 198.865114 228.14 
L 204.952386 228.14 
L 204.952386 220.174388 
L 198.865114 220.174388 
z
" style="fill:#f08080;opacity:0.4;"/>
   </g>
   <g id="patch_23">
    <path clip-path="url(#p6e6c086417)" d="M 204.952386 228.14 
L 211.039659 228.14 
L 211.039659 221.606225 
L 204.952386 221.606225 
z
" style="fill:#f08080;opacity:0.4;"/>
   </g>
   <g id="patch_24">
    <path clip-path="url(#p6e6c086417)" d="M 211.039659 228.14 
L 217.126932 228.14 
L 217.126932 220.068729 
L 211.039659 220.068729 
z
" style="fill:#f08080;opacity:0.4;"/>
   </g>
   <g id="patch_25">
    <path clip-path="url(#p6e6c086417)" d="M 217.126932 228.14 
L 223.214205 228.14 
L 223.214205 220.931871 
L 217.126932 220.931871 
z
" style="fill:#f08080;opacity:0.4;"/>
   </g>
   <g id="patch_26">
    <path clip-path="url(#p6e6c086417)" d="M 223.214205 228.14 
L 229.301477 228.14 
L 229.301477 220.534095 
L 223.214205 220.534095 
z
" style="fill:#f08080;opacity:0.4;"/>
   </g>
   <g id="patch_27">
    <path clip-path="url(#p6e6c086417)" d="M 229.301477 228.14 
L 235.38875 228.14 
L 235.38875 190.421238 
L 229.301477 190.421238 
z
" style="fill:#f08080;opacity:0.4;"/>
   </g>
   <g id="patch_28">
    <path clip-path="url(#p6e6c086417)" d="M 235.38875 228.14 
L 241.476023 228.14 
L 241.476023 221.784136 
L 235.38875 221.784136 
z
" style="fill:#f08080;opacity:0.4;"/>
   </g>
   <g id="patch_29">
    <path clip-path="url(#p6e6c086417)" d="M 241.476023 228.14 
L 247.563295 228.14 
L 247.563295 218.769743 
L 241.476023 218.769743 
z
" style="fill:#f08080;opacity:0.4;"/>
   </g>
   <g id="patch_30">
    <path clip-path="url(#p6e6c086417)" d="M 247.563295 228.14 
L 253.650568 228.14 
L 253.650568 220.322 
L 247.563295 220.322 
z
" style="fill:#f08080;opacity:0.4;"/>
   </g>
   <g id="patch_31">
    <path clip-path="url(#p6e6c086417)" d="M 253.650568 228.14 
L 259.737841 228.14 
L 259.737841 217.887955 
L 253.650568 217.887955 
z
" style="fill:#f08080;opacity:0.4;"/>
   </g>
   <g id="patch_32">
    <path clip-path="url(#p6e6c086417)" d="M 259.737841 228.14 
L 265.825114 228.14 
L 265.825114 218.13268 
L 259.737841 218.13268 
z
" style="fill:#f08080;opacity:0.4;"/>
   </g>
   <g id="patch_33">
    <path clip-path="url(#p6e6c086417)" d="M 265.825114 228.14 
L 271.912386 228.14 
L 271.912386 212.614321 
L 265.825114 212.614321 
z
" style="fill:#f08080;opacity:0.4;"/>
   </g>
   <g id="patch_34">
    <path clip-path="url(#p6e6c086417)" d="M 271.912386 228.14 
L 277.999659 228.14 
L 277.999659 213.407541 
L 271.912386 213.407541 
z
" style="fill:#f08080;opacity:0.4;"/>
   </g>
   <g id="patch_35">
    <path clip-path="url(#p6e6c086417)" d="M 277.999659 228.14 
L 284.086932 228.14 
L 284.086932 213.574576 
L 277.999659 213.574576 
z
" style="fill:#f08080;opacity:0.4;"/>
   </g>
   <g id="patch_36">
    <path clip-path="url(#p6e6c086417)" d="M 284.086932 228.14 
L 290.174205 228.14 
L 290.174205 215.077888 
L 284.086932 215.077888 
z
" style="fill:#f08080;opacity:0.4;"/>
   </g>
   <g id="patch_37">
    <path clip-path="url(#p6e6c086417)" d="M 290.174205 228.14 
L 296.261477 228.14 
L 296.261477 208.877405 
L 290.174205 208.877405 
z
" style="fill:#f08080;opacity:0.4;"/>
   </g>
   <g id="patch_38">
    <path clip-path="url(#p6e6c086417)" d="M 296.261477 228.14 
L 302.34875 228.14 
L 302.34875 209.043663 
L 296.261477 209.043663 
z
" style="fill:#f08080;opacity:0.4;"/>
   </g>
   <g id="patch_39">
    <path clip-path="url(#p6e6c086417)" d="M 302.34875 228.14 
L 308.436023 228.14 
L 308.436023 200.155864 
L 302.34875 200.155864 
z
" style="fill:#f08080;opacity:0.4;"/>
   </g>
   <g id="patch_40">
    <path clip-path="url(#p6e6c086417)" d="M 308.436023 228.14 
L 314.523295 228.14 
L 314.523295 206.980979 
L 308.436023 206.980979 
z
" style="fill:#f08080;opacity:0.4;"/>
   </g>
   <g id="patch_41">
    <path clip-path="url(#p6e6c086417)" d="M 314.523295 228.14 
L 320.610568 228.14 
L 320.610568 205.940702 
L 314.523295 205.940702 
z
" style="fill:#f08080;opacity:0.4;"/>
   </g>
   <g id="patch_42">
    <path clip-path="url(#p6e6c086417)" d="M 320.610568 228.14 
L 326.697841 228.14 
L 326.697841 199.335452 
L 320.610568 199.335452 
z
" style="fill:#f08080;opacity:0.4;"/>
   </g>
   <g id="patch_43">
    <path clip-path="url(#p6e6c086417)" d="M 326.697841 228.14 
L 332.785114 228.14 
L 332.785114 187.855896 
L 326.697841 187.855896 
z
" style="fill:#f08080;opacity:0.4;"/>
   </g>
   <g id="patch_44">
    <path clip-path="url(#p6e6c086417)" d="M 332.785114 228.14 
L 338.872386 228.14 
L 338.872386 194.559814 
L 332.785114 194.559814 
z
" style="fill:#f08080;opacity:0.4;"/>
   </g>
   <g id="patch_45">
    <path clip-path="url(#p6e6c086417)" d="M 338.872386 228.14 
L 344.959659 228.14 
L 344.959659 186.145927 
L 338.872386 186.145927 
z
" style="fill:#f08080;opacity:0.4;"/>
   </g>
   <g id="patch_46">
    <path clip-path="url(#p6e6c086417)" d="M 344.959659 228.14 
L 351.046932 228.14 
L 351.046932 181.635991 
L 344.959659 181.635991 
z
" style="fill:#f08080;opacity:0.4;"/>
   </g>
   <g id="patch_47">
    <path clip-path="url(#p6e6c086417)" d="M 351.046932 228.14 
L 357.134205 228.14 
L 357.134205 167.975661 
L 351.046932 167.975661 
z
" style="fill:#f08080;opacity:0.4;"/>
   </g>
   <g id="patch_48">
    <path clip-path="url(#p6e6c086417)" d="M 357.134205 228.14 
L 363.221477 228.14 
L 363.221477 158.928597 
L 357.134205 158.928597 
z
" style="fill:#f08080;opacity:0.4;"/>
   </g>
   <g id="patch_49">
    <path clip-path="url(#p6e6c086417)" d="M 363.221477 228.14 
L 369.30875 228.14 
L 369.30875 138.153367 
L 363.221477 138.153367 
z
" style="fill:#f08080;opacity:0.4;"/>
   </g>
   <g id="patch_50">
    <path clip-path="url(#p6e6c086417)" d="M 369.30875 228.14 
L 375.396023 228.14 
L 375.396023 113.475741 
L 369.30875 113.475741 
z
" style="fill:#f08080;opacity:0.4;"/>
   </g>
   <g id="patch_51">
    <path clip-path="url(#p6e6c086417)" d="M 375.396023 228.14 
L 381.483295 228.14 
L 381.483295 79.125641 
L 375.396023 79.125641 
z
" style="fill:#f08080;opacity:0.4;"/>
   </g>
   <g id="patch_52">
    <path clip-path="url(#p6e6c086417)" d="M 381.483295 228.14 
L 387.570568 228.14 
L 387.570568 21.054286 
L 381.483295 21.054286 
z
" style="fill:#f08080;opacity:0.4;"/>
   </g>
   <g id="patch_53">
    <path d="M 67.98875 228.14 
L 67.98875 10.7 
" style="fill:none;stroke:#ffffff;stroke-linecap:square;stroke-linejoin:miter;"/>
   </g>
   <g id="patch_54">
    <path d="M 402.78875 228.14 
L 402.78875 10.7 
" style="fill:none;stroke:#ffffff;stroke-linecap:square;stroke-linejoin:miter;"/>
   </g>
   <g id="patch_55">
    <path d="M 67.98875 228.14 
L 402.78875 228.14 
" style="fill:none;stroke:#ffffff;stroke-linecap:square;stroke-linejoin:miter;"/>
   </g>
   <g id="patch_56">
    <path d="M 67.98875 10.7 
L 402.78875 10.7 
" style="fill:none;stroke:#ffffff;stroke-linecap:square;stroke-linejoin:miter;"/>
   </g>
  </g>
 </g>
 <defs>
  <clipPath id="p6e6c086417">
   <rect height="217.44" width="334.8" x="67.98875" y="10.7"/>
  </clipPath>
 </defs>
</svg>
