<?xml version="1.0" encoding="utf-8" standalone="no"?>
<!DOCTYPE svg PUBLIC "-//W3C//DTD SVG 1.1//EN"
  "http://www.w3.org/Graphics/SVG/1.1/DTD/svg11.dtd">
<!-- Created with matplotlib (http://matplotlib.org/) -->
<svg height="267pt" version="1.1" viewBox="0 0 400 267" width="400pt" xmlns="http://www.w3.org/2000/svg" xmlns:xlink="http://www.w3.org/1999/xlink">
 <defs>
  <style type="text/css">
*{stroke-linecap:butt;stroke-linejoin:round;}
  </style>
 </defs>
 <g id="figure_1">
  <g id="patch_1">
   <path d="M 0 267.631875 
L 400.76375 267.631875 
L 400.76375 0 
L 0 0 
z
" style="fill:#ffffff;"/>
  </g>
  <g id="axes_1">
   <g id="patch_2">
    <path d="M 55.26375 228.14 
L 390.06375 228.14 
L 390.06375 10.7 
L 55.26375 10.7 
z
" style="fill:#e5e5e5;"/>
   </g>
   <g id="matplotlib.axis_1">
    <g id="xtick_1">
     <g id="line2d_1">
      <path clip-path="url(#pdb25be3cf3)" d="M 83.012822 228.14 
L 83.012822 10.7 
" style="fill:none;stroke:#ffffff;stroke-linecap:square;stroke-width:0.8;"/>
     </g>
     <g id="line2d_2">
      <defs>
       <path d="M 0 0 
L 0 3.5 
" id="m9bb26d4a40" style="stroke:#555555;stroke-width:0.8;"/>
      </defs>
      <g>
       <use style="fill:#555555;stroke:#555555;stroke-width:0.8;" x="83.012822" xlink:href="#m9bb26d4a40" y="228.14"/>
      </g>
     </g>
     <g id="text_1">
      <!-- 1.5 -->
      <defs>
       <path d="M 12.40625 8.296875 
L 28.515625 8.296875 
L 28.515625 63.921875 
L 10.984375 60.40625 
L 10.984375 69.390625 
L 28.421875 72.90625 
L 38.28125 72.90625 
L 38.28125 8.296875 
L 54.390625 8.296875 
L 54.390625 0 
L 12.40625 0 
z
" id="DejaVuSans-31"/>
       <path d="M 10.6875 12.40625 
L 21 12.40625 
L 21 0 
L 10.6875 0 
z
" id="DejaVuSans-2e"/>
       <path d="M 10.796875 72.90625 
L 49.515625 72.90625 
L 49.515625 64.59375 
L 19.828125 64.59375 
L 19.828125 46.734375 
Q 21.96875 47.46875 24.109375 47.828125 
Q 26.265625 48.1875 28.421875 48.1875 
Q 40.625 48.1875 47.75 41.5 
Q 54.890625 34.8125 54.890625 23.390625 
Q 54.890625 11.625 47.5625 5.09375 
Q 40.234375 -1.421875 26.90625 -1.421875 
Q 22.3125 -1.421875 17.546875 -0.640625 
Q 12.796875 0.140625 7.71875 1.703125 
L 7.71875 11.625 
Q 12.109375 9.234375 16.796875 8.0625 
Q 21.484375 6.890625 26.703125 6.890625 
Q 35.15625 6.890625 40.078125 11.328125 
Q 45.015625 15.765625 45.015625 23.390625 
Q 45.015625 31 40.078125 35.4375 
Q 35.15625 39.890625 26.703125 39.890625 
Q 22.75 39.890625 18.8125 39.015625 
Q 14.890625 38.140625 10.796875 36.28125 
z
" id="DejaVuSans-35"/>
      </defs>
      <g style="fill:#555555;" transform="translate(75.06126 242.738437)scale(0.1 -0.1)">
       <use xlink:href="#DejaVuSans-31"/>
       <use x="63.623047" xlink:href="#DejaVuSans-2e"/>
       <use x="95.410156" xlink:href="#DejaVuSans-35"/>
      </g>
     </g>
    </g>
    <g id="xtick_2">
     <g id="line2d_3">
      <path clip-path="url(#pdb25be3cf3)" d="M 124.782458 228.14 
L 124.782458 10.7 
" style="fill:none;stroke:#ffffff;stroke-linecap:square;stroke-width:0.8;"/>
     </g>
     <g id="line2d_4">
      <g>
       <use style="fill:#555555;stroke:#555555;stroke-width:0.8;" x="124.782458" xlink:href="#m9bb26d4a40" y="228.14"/>
      </g>
     </g>
     <g id="text_2">
      <!-- 2.0 -->
      <defs>
       <path d="M 19.1875 8.296875 
L 53.609375 8.296875 
L 53.609375 0 
L 7.328125 0 
L 7.328125 8.296875 
Q 12.9375 14.109375 22.625 23.890625 
Q 32.328125 33.6875 34.8125 36.53125 
Q 39.546875 41.84375 41.421875 45.53125 
Q 43.3125 49.21875 43.3125 52.78125 
Q 43.3125 58.59375 39.234375 62.25 
Q 35.15625 65.921875 28.609375 65.921875 
Q 23.96875 65.921875 18.8125 64.3125 
Q 13.671875 62.703125 7.8125 59.421875 
L 7.8125 69.390625 
Q 13.765625 71.78125 18.9375 73 
Q 24.125 74.21875 28.421875 74.21875 
Q 39.75 74.21875 46.484375 68.546875 
Q 53.21875 62.890625 53.21875 53.421875 
Q 53.21875 48.921875 51.53125 44.890625 
Q 49.859375 40.875 45.40625 35.40625 
Q 44.1875 33.984375 37.640625 27.21875 
Q 31.109375 20.453125 19.1875 8.296875 
z
" id="DejaVuSans-32"/>
       <path d="M 31.78125 66.40625 
Q 24.171875 66.40625 20.328125 58.90625 
Q 16.5 51.421875 16.5 36.375 
Q 16.5 21.390625 20.328125 13.890625 
Q 24.171875 6.390625 31.78125 6.390625 
Q 39.453125 6.390625 43.28125 13.890625 
Q 47.125 21.390625 47.125 36.375 
Q 47.125 51.421875 43.28125 58.90625 
Q 39.453125 66.40625 31.78125 66.40625 
z
M 31.78125 74.21875 
Q 44.046875 74.21875 50.515625 64.515625 
Q 56.984375 54.828125 56.984375 36.375 
Q 56.984375 17.96875 50.515625 8.265625 
Q 44.046875 -1.421875 31.78125 -1.421875 
Q 19.53125 -1.421875 13.0625 8.265625 
Q 6.59375 17.96875 6.59375 36.375 
Q 6.59375 54.828125 13.0625 64.515625 
Q 19.53125 74.21875 31.78125 74.21875 
z
" id="DejaVuSans-30"/>
      </defs>
      <g style="fill:#555555;" transform="translate(116.830895 242.738437)scale(0.1 -0.1)">
       <use xlink:href="#DejaVuSans-32"/>
       <use x="63.623047" xlink:href="#DejaVuSans-2e"/>
       <use x="95.410156" xlink:href="#DejaVuSans-30"/>
      </g>
     </g>
    </g>
    <g id="xtick_3">
     <g id="line2d_5">
      <path clip-path="url(#pdb25be3cf3)" d="M 166.552093 228.14 
L 166.552093 10.7 
" style="fill:none;stroke:#ffffff;stroke-linecap:square;stroke-width:0.8;"/>
     </g>
     <g id="line2d_6">
      <g>
       <use style="fill:#555555;stroke:#555555;stroke-width:0.8;" x="166.552093" xlink:href="#m9bb26d4a40" y="228.14"/>
      </g>
     </g>
     <g id="text_3">
      <!-- 2.5 -->
      <g style="fill:#555555;" transform="translate(158.60053 242.738437)scale(0.1 -0.1)">
       <use xlink:href="#DejaVuSans-32"/>
       <use x="63.623047" xlink:href="#DejaVuSans-2e"/>
       <use x="95.410156" xlink:href="#DejaVuSans-35"/>
      </g>
     </g>
    </g>
    <g id="xtick_4">
     <g id="line2d_7">
      <path clip-path="url(#pdb25be3cf3)" d="M 208.321728 228.14 
L 208.321728 10.7 
" style="fill:none;stroke:#ffffff;stroke-linecap:square;stroke-width:0.8;"/>
     </g>
     <g id="line2d_8">
      <g>
       <use style="fill:#555555;stroke:#555555;stroke-width:0.8;" x="208.321728" xlink:href="#m9bb26d4a40" y="228.14"/>
      </g>
     </g>
     <g id="text_4">
      <!-- 3.0 -->
      <defs>
       <path d="M 40.578125 39.3125 
Q 47.65625 37.796875 51.625 33 
Q 55.609375 28.21875 55.609375 21.1875 
Q 55.609375 10.40625 48.1875 4.484375 
Q 40.765625 -1.421875 27.09375 -1.421875 
Q 22.515625 -1.421875 17.65625 -0.515625 
Q 12.796875 0.390625 7.625 2.203125 
L 7.625 11.71875 
Q 11.71875 9.328125 16.59375 8.109375 
Q 21.484375 6.890625 26.8125 6.890625 
Q 36.078125 6.890625 40.9375 10.546875 
Q 45.796875 14.203125 45.796875 21.1875 
Q 45.796875 27.640625 41.28125 31.265625 
Q 36.765625 34.90625 28.71875 34.90625 
L 20.21875 34.90625 
L 20.21875 43.015625 
L 29.109375 43.015625 
Q 36.375 43.015625 40.234375 45.921875 
Q 44.09375 48.828125 44.09375 54.296875 
Q 44.09375 59.90625 40.109375 62.90625 
Q 36.140625 65.921875 28.71875 65.921875 
Q 24.65625 65.921875 20.015625 65.03125 
Q 15.375 64.15625 9.8125 62.3125 
L 9.8125 71.09375 
Q 15.4375 72.65625 20.34375 73.4375 
Q 25.25 74.21875 29.59375 74.21875 
Q 40.828125 74.21875 47.359375 69.109375 
Q 53.90625 64.015625 53.90625 55.328125 
Q 53.90625 49.265625 50.4375 45.09375 
Q 46.96875 40.921875 40.578125 39.3125 
z
" id="DejaVuSans-33"/>
      </defs>
      <g style="fill:#555555;" transform="translate(200.370166 242.738437)scale(0.1 -0.1)">
       <use xlink:href="#DejaVuSans-33"/>
       <use x="63.623047" xlink:href="#DejaVuSans-2e"/>
       <use x="95.410156" xlink:href="#DejaVuSans-30"/>
      </g>
     </g>
    </g>
    <g id="xtick_5">
     <g id="line2d_9">
      <path clip-path="url(#pdb25be3cf3)" d="M 250.091363 228.14 
L 250.091363 10.7 
" style="fill:none;stroke:#ffffff;stroke-linecap:square;stroke-width:0.8;"/>
     </g>
     <g id="line2d_10">
      <g>
       <use style="fill:#555555;stroke:#555555;stroke-width:0.8;" x="250.091363" xlink:href="#m9bb26d4a40" y="228.14"/>
      </g>
     </g>
     <g id="text_5">
      <!-- 3.5 -->
      <g style="fill:#555555;" transform="translate(242.139801 242.738437)scale(0.1 -0.1)">
       <use xlink:href="#DejaVuSans-33"/>
       <use x="63.623047" xlink:href="#DejaVuSans-2e"/>
       <use x="95.410156" xlink:href="#DejaVuSans-35"/>
      </g>
     </g>
    </g>
    <g id="xtick_6">
     <g id="line2d_11">
      <path clip-path="url(#pdb25be3cf3)" d="M 291.860998 228.14 
L 291.860998 10.7 
" style="fill:none;stroke:#ffffff;stroke-linecap:square;stroke-width:0.8;"/>
     </g>
     <g id="line2d_12">
      <g>
       <use style="fill:#555555;stroke:#555555;stroke-width:0.8;" x="291.860998" xlink:href="#m9bb26d4a40" y="228.14"/>
      </g>
     </g>
     <g id="text_6">
      <!-- 4.0 -->
      <defs>
       <path d="M 37.796875 64.3125 
L 12.890625 25.390625 
L 37.796875 25.390625 
z
M 35.203125 72.90625 
L 47.609375 72.90625 
L 47.609375 25.390625 
L 58.015625 25.390625 
L 58.015625 17.1875 
L 47.609375 17.1875 
L 47.609375 0 
L 37.796875 0 
L 37.796875 17.1875 
L 4.890625 17.1875 
L 4.890625 26.703125 
z
" id="DejaVuSans-34"/>
      </defs>
      <g style="fill:#555555;" transform="translate(283.909436 242.738437)scale(0.1 -0.1)">
       <use xlink:href="#DejaVuSans-34"/>
       <use x="63.623047" xlink:href="#DejaVuSans-2e"/>
       <use x="95.410156" xlink:href="#DejaVuSans-30"/>
      </g>
     </g>
    </g>
    <g id="xtick_7">
     <g id="line2d_13">
      <path clip-path="url(#pdb25be3cf3)" d="M 333.630634 228.14 
L 333.630634 10.7 
" style="fill:none;stroke:#ffffff;stroke-linecap:square;stroke-width:0.8;"/>
     </g>
     <g id="line2d_14">
      <g>
       <use style="fill:#555555;stroke:#555555;stroke-width:0.8;" x="333.630634" xlink:href="#m9bb26d4a40" y="228.14"/>
      </g>
     </g>
     <g id="text_7">
      <!-- 4.5 -->
      <g style="fill:#555555;" transform="translate(325.679071 242.738437)scale(0.1 -0.1)">
       <use xlink:href="#DejaVuSans-34"/>
       <use x="63.623047" xlink:href="#DejaVuSans-2e"/>
       <use x="95.410156" xlink:href="#DejaVuSans-35"/>
      </g>
     </g>
    </g>
    <g id="xtick_8">
     <g id="line2d_15">
      <path clip-path="url(#pdb25be3cf3)" d="M 375.400269 228.14 
L 375.400269 10.7 
" style="fill:none;stroke:#ffffff;stroke-linecap:square;stroke-width:0.8;"/>
     </g>
     <g id="line2d_16">
      <g>
       <use style="fill:#555555;stroke:#555555;stroke-width:0.8;" x="375.400269" xlink:href="#m9bb26d4a40" y="228.14"/>
      </g>
     </g>
     <g id="text_8">
      <!-- 5.0 -->
      <g style="fill:#555555;" transform="translate(367.448706 242.738437)scale(0.1 -0.1)">
       <use xlink:href="#DejaVuSans-35"/>
       <use x="63.623047" xlink:href="#DejaVuSans-2e"/>
       <use x="95.410156" xlink:href="#DejaVuSans-30"/>
      </g>
     </g>
    </g>
    <g id="text_9">
     <!-- Review Sentiment -->
     <defs>
      <path d="M 44.390625 34.1875 
Q 47.5625 33.109375 50.5625 29.59375 
Q 53.5625 26.078125 56.59375 19.921875 
L 66.609375 0 
L 56 0 
L 46.6875 18.703125 
Q 43.0625 26.03125 39.671875 28.421875 
Q 36.28125 30.8125 30.421875 30.8125 
L 19.671875 30.8125 
L 19.671875 0 
L 9.8125 0 
L 9.8125 72.90625 
L 32.078125 72.90625 
Q 44.578125 72.90625 50.734375 67.671875 
Q 56.890625 62.453125 56.890625 51.90625 
Q 56.890625 45.015625 53.6875 40.46875 
Q 50.484375 35.9375 44.390625 34.1875 
z
M 19.671875 64.796875 
L 19.671875 38.921875 
L 32.078125 38.921875 
Q 39.203125 38.921875 42.84375 42.21875 
Q 46.484375 45.515625 46.484375 51.90625 
Q 46.484375 58.296875 42.84375 61.546875 
Q 39.203125 64.796875 32.078125 64.796875 
z
" id="DejaVuSans-52"/>
      <path d="M 56.203125 29.59375 
L 56.203125 25.203125 
L 14.890625 25.203125 
Q 15.484375 15.921875 20.484375 11.0625 
Q 25.484375 6.203125 34.421875 6.203125 
Q 39.59375 6.203125 44.453125 7.46875 
Q 49.3125 8.734375 54.109375 11.28125 
L 54.109375 2.78125 
Q 49.265625 0.734375 44.1875 -0.34375 
Q 39.109375 -1.421875 33.890625 -1.421875 
Q 20.796875 -1.421875 13.15625 6.1875 
Q 5.515625 13.8125 5.515625 26.8125 
Q 5.515625 40.234375 12.765625 48.109375 
Q 20.015625 56 32.328125 56 
Q 43.359375 56 49.78125 48.890625 
Q 56.203125 41.796875 56.203125 29.59375 
z
M 47.21875 32.234375 
Q 47.125 39.59375 43.09375 43.984375 
Q 39.0625 48.390625 32.421875 48.390625 
Q 24.90625 48.390625 20.390625 44.140625 
Q 15.875 39.890625 15.1875 32.171875 
z
" id="DejaVuSans-65"/>
      <path d="M 2.984375 54.6875 
L 12.5 54.6875 
L 29.59375 8.796875 
L 46.6875 54.6875 
L 56.203125 54.6875 
L 35.6875 0 
L 23.484375 0 
z
" id="DejaVuSans-76"/>
      <path d="M 9.421875 54.6875 
L 18.40625 54.6875 
L 18.40625 0 
L 9.421875 0 
z
M 9.421875 75.984375 
L 18.40625 75.984375 
L 18.40625 64.59375 
L 9.421875 64.59375 
z
" id="DejaVuSans-69"/>
      <path d="M 4.203125 54.6875 
L 13.1875 54.6875 
L 24.421875 12.015625 
L 35.59375 54.6875 
L 46.1875 54.6875 
L 57.421875 12.015625 
L 68.609375 54.6875 
L 77.59375 54.6875 
L 63.28125 0 
L 52.6875 0 
L 40.921875 44.828125 
L 29.109375 0 
L 18.5 0 
z
" id="DejaVuSans-77"/>
      <path id="DejaVuSans-20"/>
      <path d="M 53.515625 70.515625 
L 53.515625 60.890625 
Q 47.90625 63.578125 42.921875 64.890625 
Q 37.9375 66.21875 33.296875 66.21875 
Q 25.25 66.21875 20.875 63.09375 
Q 16.5 59.96875 16.5 54.203125 
Q 16.5 49.359375 19.40625 46.890625 
Q 22.3125 44.4375 30.421875 42.921875 
L 36.375 41.703125 
Q 47.40625 39.59375 52.65625 34.296875 
Q 57.90625 29 57.90625 20.125 
Q 57.90625 9.515625 50.796875 4.046875 
Q 43.703125 -1.421875 29.984375 -1.421875 
Q 24.8125 -1.421875 18.96875 -0.25 
Q 13.140625 0.921875 6.890625 3.21875 
L 6.890625 13.375 
Q 12.890625 10.015625 18.65625 8.296875 
Q 24.421875 6.59375 29.984375 6.59375 
Q 38.421875 6.59375 43.015625 9.90625 
Q 47.609375 13.234375 47.609375 19.390625 
Q 47.609375 24.75 44.3125 27.78125 
Q 41.015625 30.8125 33.5 32.328125 
L 27.484375 33.5 
Q 16.453125 35.6875 11.515625 40.375 
Q 6.59375 45.0625 6.59375 53.421875 
Q 6.59375 63.09375 13.40625 68.65625 
Q 20.21875 74.21875 32.171875 74.21875 
Q 37.3125 74.21875 42.625 73.28125 
Q 47.953125 72.359375 53.515625 70.515625 
z
" id="DejaVuSans-53"/>
      <path d="M 54.890625 33.015625 
L 54.890625 0 
L 45.90625 0 
L 45.90625 32.71875 
Q 45.90625 40.484375 42.875 44.328125 
Q 39.84375 48.1875 33.796875 48.1875 
Q 26.515625 48.1875 22.3125 43.546875 
Q 18.109375 38.921875 18.109375 30.90625 
L 18.109375 0 
L 9.078125 0 
L 9.078125 54.6875 
L 18.109375 54.6875 
L 18.109375 46.1875 
Q 21.34375 51.125 25.703125 53.5625 
Q 30.078125 56 35.796875 56 
Q 45.21875 56 50.046875 50.171875 
Q 54.890625 44.34375 54.890625 33.015625 
z
" id="DejaVuSans-6e"/>
      <path d="M 18.3125 70.21875 
L 18.3125 54.6875 
L 36.8125 54.6875 
L 36.8125 47.703125 
L 18.3125 47.703125 
L 18.3125 18.015625 
Q 18.3125 11.328125 20.140625 9.421875 
Q 21.96875 7.515625 27.59375 7.515625 
L 36.8125 7.515625 
L 36.8125 0 
L 27.59375 0 
Q 17.1875 0 13.234375 3.875 
Q 9.28125 7.765625 9.28125 18.015625 
L 9.28125 47.703125 
L 2.6875 47.703125 
L 2.6875 54.6875 
L 9.28125 54.6875 
L 9.28125 70.21875 
z
" id="DejaVuSans-74"/>
      <path d="M 52 44.1875 
Q 55.375 50.25 60.0625 53.125 
Q 64.75 56 71.09375 56 
Q 79.640625 56 84.28125 50.015625 
Q 88.921875 44.046875 88.921875 33.015625 
L 88.921875 0 
L 79.890625 0 
L 79.890625 32.71875 
Q 79.890625 40.578125 77.09375 44.375 
Q 74.3125 48.1875 68.609375 48.1875 
Q 61.625 48.1875 57.5625 43.546875 
Q 53.515625 38.921875 53.515625 30.90625 
L 53.515625 0 
L 44.484375 0 
L 44.484375 32.71875 
Q 44.484375 40.625 41.703125 44.40625 
Q 38.921875 48.1875 33.109375 48.1875 
Q 26.21875 48.1875 22.15625 43.53125 
Q 18.109375 38.875 18.109375 30.90625 
L 18.109375 0 
L 9.078125 0 
L 9.078125 54.6875 
L 18.109375 54.6875 
L 18.109375 46.1875 
Q 21.1875 51.21875 25.484375 53.609375 
Q 29.78125 56 35.6875 56 
Q 41.65625 56 45.828125 52.96875 
Q 50 49.953125 52 44.1875 
z
" id="DejaVuSans-6d"/>
     </defs>
     <g style="fill:#555555;" transform="translate(168.069375 257.93625)scale(0.12 -0.12)">
      <use xlink:href="#DejaVuSans-52"/>
      <use x="69.419922" xlink:href="#DejaVuSans-65"/>
      <use x="130.943359" xlink:href="#DejaVuSans-76"/>
      <use x="190.123047" xlink:href="#DejaVuSans-69"/>
      <use x="217.90625" xlink:href="#DejaVuSans-65"/>
      <use x="279.429688" xlink:href="#DejaVuSans-77"/>
      <use x="361.216797" xlink:href="#DejaVuSans-20"/>
      <use x="393.003906" xlink:href="#DejaVuSans-53"/>
      <use x="456.480469" xlink:href="#DejaVuSans-65"/>
      <use x="518.003906" xlink:href="#DejaVuSans-6e"/>
      <use x="581.382812" xlink:href="#DejaVuSans-74"/>
      <use x="620.591797" xlink:href="#DejaVuSans-69"/>
      <use x="648.375" xlink:href="#DejaVuSans-6d"/>
      <use x="745.787109" xlink:href="#DejaVuSans-65"/>
      <use x="807.310547" xlink:href="#DejaVuSans-6e"/>
      <use x="870.689453" xlink:href="#DejaVuSans-74"/>
     </g>
    </g>
   </g>
   <g id="matplotlib.axis_2">
    <g id="ytick_1">
     <g id="line2d_17">
      <path clip-path="url(#pdb25be3cf3)" d="M 55.26375 228.14 
L 390.06375 228.14 
" style="fill:none;stroke:#ffffff;stroke-linecap:square;stroke-width:0.8;"/>
     </g>
     <g id="line2d_18">
      <defs>
       <path d="M 0 0 
L -3.5 0 
" id="mdef9320e29" style="stroke:#555555;stroke-width:0.8;"/>
      </defs>
      <g>
       <use style="fill:#555555;stroke:#555555;stroke-width:0.8;" x="55.26375" xlink:href="#mdef9320e29" y="228.14"/>
      </g>
     </g>
     <g id="text_10">
      <!-- 0 -->
      <g style="fill:#555555;" transform="translate(41.90125 231.939219)scale(0.1 -0.1)">
       <use xlink:href="#DejaVuSans-30"/>
      </g>
     </g>
    </g>
    <g id="ytick_2">
     <g id="line2d_19">
      <path clip-path="url(#pdb25be3cf3)" d="M 55.26375 180.686812 
L 390.06375 180.686812 
" style="fill:none;stroke:#ffffff;stroke-linecap:square;stroke-width:0.8;"/>
     </g>
     <g id="line2d_20">
      <g>
       <use style="fill:#555555;stroke:#555555;stroke-width:0.8;" x="55.26375" xlink:href="#mdef9320e29" y="180.686812"/>
      </g>
     </g>
     <g id="text_11">
      <!-- 1000 -->
      <g style="fill:#555555;" transform="translate(22.81375 184.48603)scale(0.1 -0.1)">
       <use xlink:href="#DejaVuSans-31"/>
       <use x="63.623047" xlink:href="#DejaVuSans-30"/>
       <use x="127.246094" xlink:href="#DejaVuSans-30"/>
       <use x="190.869141" xlink:href="#DejaVuSans-30"/>
      </g>
     </g>
    </g>
    <g id="ytick_3">
     <g id="line2d_21">
      <path clip-path="url(#pdb25be3cf3)" d="M 55.26375 133.233623 
L 390.06375 133.233623 
" style="fill:none;stroke:#ffffff;stroke-linecap:square;stroke-width:0.8;"/>
     </g>
     <g id="line2d_22">
      <g>
       <use style="fill:#555555;stroke:#555555;stroke-width:0.8;" x="55.26375" xlink:href="#mdef9320e29" y="133.233623"/>
      </g>
     </g>
     <g id="text_12">
      <!-- 2000 -->
      <g style="fill:#555555;" transform="translate(22.81375 137.032842)scale(0.1 -0.1)">
       <use xlink:href="#DejaVuSans-32"/>
       <use x="63.623047" xlink:href="#DejaVuSans-30"/>
       <use x="127.246094" xlink:href="#DejaVuSans-30"/>
       <use x="190.869141" xlink:href="#DejaVuSans-30"/>
      </g>
     </g>
    </g>
    <g id="ytick_4">
     <g id="line2d_23">
      <path clip-path="url(#pdb25be3cf3)" d="M 55.26375 85.780435 
L 390.06375 85.780435 
" style="fill:none;stroke:#ffffff;stroke-linecap:square;stroke-width:0.8;"/>
     </g>
     <g id="line2d_24">
      <g>
       <use style="fill:#555555;stroke:#555555;stroke-width:0.8;" x="55.26375" xlink:href="#mdef9320e29" y="85.780435"/>
      </g>
     </g>
     <g id="text_13">
      <!-- 3000 -->
      <g style="fill:#555555;" transform="translate(22.81375 89.579653)scale(0.1 -0.1)">
       <use xlink:href="#DejaVuSans-33"/>
       <use x="63.623047" xlink:href="#DejaVuSans-30"/>
       <use x="127.246094" xlink:href="#DejaVuSans-30"/>
       <use x="190.869141" xlink:href="#DejaVuSans-30"/>
      </g>
     </g>
    </g>
    <g id="ytick_5">
     <g id="line2d_25">
      <path clip-path="url(#pdb25be3cf3)" d="M 55.26375 38.327246 
L 390.06375 38.327246 
" style="fill:none;stroke:#ffffff;stroke-linecap:square;stroke-width:0.8;"/>
     </g>
     <g id="line2d_26">
      <g>
       <use style="fill:#555555;stroke:#555555;stroke-width:0.8;" x="55.26375" xlink:href="#mdef9320e29" y="38.327246"/>
      </g>
     </g>
     <g id="text_14">
      <!-- 4000 -->
      <g style="fill:#555555;" transform="translate(22.81375 42.126465)scale(0.1 -0.1)">
       <use xlink:href="#DejaVuSans-34"/>
       <use x="63.623047" xlink:href="#DejaVuSans-30"/>
       <use x="127.246094" xlink:href="#DejaVuSans-30"/>
       <use x="190.869141" xlink:href="#DejaVuSans-30"/>
      </g>
     </g>
    </g>
    <g id="text_15">
     <!-- Count -->
     <defs>
      <path d="M 64.40625 67.28125 
L 64.40625 56.890625 
Q 59.421875 61.53125 53.78125 63.8125 
Q 48.140625 66.109375 41.796875 66.109375 
Q 29.296875 66.109375 22.65625 58.46875 
Q 16.015625 50.828125 16.015625 36.375 
Q 16.015625 21.96875 22.65625 14.328125 
Q 29.296875 6.6875 41.796875 6.6875 
Q 48.140625 6.6875 53.78125 8.984375 
Q 59.421875 11.28125 64.40625 15.921875 
L 64.40625 5.609375 
Q 59.234375 2.09375 53.4375 0.328125 
Q 47.65625 -1.421875 41.21875 -1.421875 
Q 24.65625 -1.421875 15.125 8.703125 
Q 5.609375 18.84375 5.609375 36.375 
Q 5.609375 53.953125 15.125 64.078125 
Q 24.65625 74.21875 41.21875 74.21875 
Q 47.75 74.21875 53.53125 72.484375 
Q 59.328125 70.75 64.40625 67.28125 
z
" id="DejaVuSans-43"/>
      <path d="M 30.609375 48.390625 
Q 23.390625 48.390625 19.1875 42.75 
Q 14.984375 37.109375 14.984375 27.296875 
Q 14.984375 17.484375 19.15625 11.84375 
Q 23.34375 6.203125 30.609375 6.203125 
Q 37.796875 6.203125 41.984375 11.859375 
Q 46.1875 17.53125 46.1875 27.296875 
Q 46.1875 37.015625 41.984375 42.703125 
Q 37.796875 48.390625 30.609375 48.390625 
z
M 30.609375 56 
Q 42.328125 56 49.015625 48.375 
Q 55.71875 40.765625 55.71875 27.296875 
Q 55.71875 13.875 49.015625 6.21875 
Q 42.328125 -1.421875 30.609375 -1.421875 
Q 18.84375 -1.421875 12.171875 6.21875 
Q 5.515625 13.875 5.515625 27.296875 
Q 5.515625 40.765625 12.171875 48.375 
Q 18.84375 56 30.609375 56 
z
" id="DejaVuSans-6f"/>
      <path d="M 8.5 21.578125 
L 8.5 54.6875 
L 17.484375 54.6875 
L 17.484375 21.921875 
Q 17.484375 14.15625 20.5 10.265625 
Q 23.53125 6.390625 29.59375 6.390625 
Q 36.859375 6.390625 41.078125 11.03125 
Q 45.3125 15.671875 45.3125 23.6875 
L 45.3125 54.6875 
L 54.296875 54.6875 
L 54.296875 0 
L 45.3125 0 
L 45.3125 8.40625 
Q 42.046875 3.421875 37.71875 1 
Q 33.40625 -1.421875 27.6875 -1.421875 
Q 18.265625 -1.421875 13.375 4.4375 
Q 8.5 10.296875 8.5 21.578125 
z
M 31.109375 56 
z
" id="DejaVuSans-75"/>
     </defs>
     <g style="fill:#555555;" transform="translate(16.318125 137.238125)rotate(-90)scale(0.12 -0.12)">
      <use xlink:href="#DejaVuSans-43"/>
      <use x="69.824219" xlink:href="#DejaVuSans-6f"/>
      <use x="131.005859" xlink:href="#DejaVuSans-75"/>
      <use x="194.384766" xlink:href="#DejaVuSans-6e"/>
      <use x="257.763672" xlink:href="#DejaVuSans-74"/>
     </g>
    </g>
   </g>
   <g id="patch_3">
    <path clip-path="url(#pdb25be3cf3)" d="M 70.481932 228.14 
L 76.569205 228.14 
L 76.569205 228.092547 
L 70.481932 228.092547 
z
" style="fill:#e24a33;opacity:0.4;"/>
   </g>
   <g id="patch_4">
    <path clip-path="url(#pdb25be3cf3)" d="M 76.569205 228.14 
L 82.656477 228.14 
L 82.656477 228.14 
L 76.569205 228.14 
z
" style="fill:#e24a33;opacity:0.4;"/>
   </g>
   <g id="patch_5">
    <path clip-path="url(#pdb25be3cf3)" d="M 82.656477 228.14 
L 88.74375 228.14 
L 88.74375 228.092547 
L 82.656477 228.092547 
z
" style="fill:#e24a33;opacity:0.4;"/>
   </g>
   <g id="patch_6">
    <path clip-path="url(#pdb25be3cf3)" d="M 88.74375 228.14 
L 94.831023 228.14 
L 94.831023 228.14 
L 88.74375 228.14 
z
" style="fill:#e24a33;opacity:0.4;"/>
   </g>
   <g id="patch_7">
    <path clip-path="url(#pdb25be3cf3)" d="M 94.831023 228.14 
L 100.918295 228.14 
L 100.918295 228.14 
L 94.831023 228.14 
z
" style="fill:#e24a33;opacity:0.4;"/>
   </g>
   <g id="patch_8">
    <path clip-path="url(#pdb25be3cf3)" d="M 100.918295 228.14 
L 107.005568 228.14 
L 107.005568 228.14 
L 100.918295 228.14 
z
" style="fill:#e24a33;opacity:0.4;"/>
   </g>
   <g id="patch_9">
    <path clip-path="url(#pdb25be3cf3)" d="M 107.005568 228.14 
L 113.092841 228.14 
L 113.092841 228.14 
L 107.005568 228.14 
z
" style="fill:#e24a33;opacity:0.4;"/>
   </g>
   <g id="patch_10">
    <path clip-path="url(#pdb25be3cf3)" d="M 113.092841 228.14 
L 119.180114 228.14 
L 119.180114 228.092547 
L 113.092841 228.092547 
z
" style="fill:#e24a33;opacity:0.4;"/>
   </g>
   <g id="patch_11">
    <path clip-path="url(#pdb25be3cf3)" d="M 119.180114 228.14 
L 125.267386 228.14 
L 125.267386 227.902734 
L 119.180114 227.902734 
z
" style="fill:#e24a33;opacity:0.4;"/>
   </g>
   <g id="patch_12">
    <path clip-path="url(#pdb25be3cf3)" d="M 125.267386 228.14 
L 131.354659 228.14 
L 131.354659 227.950187 
L 125.267386 227.950187 
z
" style="fill:#e24a33;opacity:0.4;"/>
   </g>
   <g id="patch_13">
    <path clip-path="url(#pdb25be3cf3)" d="M 131.354659 228.14 
L 137.441932 228.14 
L 137.441932 227.99764 
L 131.354659 227.99764 
z
" style="fill:#e24a33;opacity:0.4;"/>
   </g>
   <g id="patch_14">
    <path clip-path="url(#pdb25be3cf3)" d="M 137.441932 228.14 
L 143.529205 228.14 
L 143.529205 227.760374 
L 137.441932 227.760374 
z
" style="fill:#e24a33;opacity:0.4;"/>
   </g>
   <g id="patch_15">
    <path clip-path="url(#pdb25be3cf3)" d="M 143.529205 228.14 
L 149.616477 228.14 
L 149.616477 227.665468 
L 143.529205 227.665468 
z
" style="fill:#e24a33;opacity:0.4;"/>
   </g>
   <g id="patch_16">
    <path clip-path="url(#pdb25be3cf3)" d="M 149.616477 228.14 
L 155.70375 228.14 
L 155.70375 227.380749 
L 149.616477 227.380749 
z
" style="fill:#e24a33;opacity:0.4;"/>
   </g>
   <g id="patch_17">
    <path clip-path="url(#pdb25be3cf3)" d="M 155.70375 228.14 
L 161.791023 228.14 
L 161.791023 227.190936 
L 155.70375 227.190936 
z
" style="fill:#e24a33;opacity:0.4;"/>
   </g>
   <g id="patch_18">
    <path clip-path="url(#pdb25be3cf3)" d="M 161.791023 228.14 
L 167.878295 228.14 
L 167.878295 226.716404 
L 161.791023 226.716404 
z
" style="fill:#e24a33;opacity:0.4;"/>
   </g>
   <g id="patch_19">
    <path clip-path="url(#pdb25be3cf3)" d="M 167.878295 228.14 
L 173.965568 228.14 
L 173.965568 226.336779 
L 167.878295 226.336779 
z
" style="fill:#e24a33;opacity:0.4;"/>
   </g>
   <g id="patch_20">
    <path clip-path="url(#pdb25be3cf3)" d="M 173.965568 228.14 
L 180.052841 228.14 
L 180.052841 225.482621 
L 173.965568 225.482621 
z
" style="fill:#e24a33;opacity:0.4;"/>
   </g>
   <g id="patch_21">
    <path clip-path="url(#pdb25be3cf3)" d="M 180.052841 228.14 
L 186.140114 228.14 
L 186.140114 223.631947 
L 180.052841 223.631947 
z
" style="fill:#e24a33;opacity:0.4;"/>
   </g>
   <g id="patch_22">
    <path clip-path="url(#pdb25be3cf3)" d="M 186.140114 228.14 
L 192.227386 228.14 
L 192.227386 222.967602 
L 186.140114 222.967602 
z
" style="fill:#e24a33;opacity:0.4;"/>
   </g>
   <g id="patch_23">
    <path clip-path="url(#pdb25be3cf3)" d="M 192.227386 228.14 
L 198.314659 228.14 
L 198.314659 222.208351 
L 192.227386 222.208351 
z
" style="fill:#e24a33;opacity:0.4;"/>
   </g>
   <g id="patch_24">
    <path clip-path="url(#pdb25be3cf3)" d="M 198.314659 228.14 
L 204.401932 228.14 
L 204.401932 220.40513 
L 198.314659 220.40513 
z
" style="fill:#e24a33;opacity:0.4;"/>
   </g>
   <g id="patch_25">
    <path clip-path="url(#pdb25be3cf3)" d="M 204.401932 228.14 
L 210.489205 228.14 
L 210.489205 217.368126 
L 204.401932 217.368126 
z
" style="fill:#e24a33;opacity:0.4;"/>
   </g>
   <g id="patch_26">
    <path clip-path="url(#pdb25be3cf3)" d="M 210.489205 228.14 
L 216.576477 228.14 
L 216.576477 215.137826 
L 210.489205 215.137826 
z
" style="fill:#e24a33;opacity:0.4;"/>
   </g>
   <g id="patch_27">
    <path clip-path="url(#pdb25be3cf3)" d="M 216.576477 228.14 
L 222.66375 228.14 
L 222.66375 208.49438 
L 216.576477 208.49438 
z
" style="fill:#e24a33;opacity:0.4;"/>
   </g>
   <g id="patch_28">
    <path clip-path="url(#pdb25be3cf3)" d="M 222.66375 228.14 
L 228.751023 228.14 
L 228.751023 203.511795 
L 222.66375 203.511795 
z
" style="fill:#e24a33;opacity:0.4;"/>
   </g>
   <g id="patch_29">
    <path clip-path="url(#pdb25be3cf3)" d="M 228.751023 228.14 
L 234.838295 228.14 
L 234.838295 195.966738 
L 228.751023 195.966738 
z
" style="fill:#e24a33;opacity:0.4;"/>
   </g>
   <g id="patch_30">
    <path clip-path="url(#pdb25be3cf3)" d="M 234.838295 228.14 
L 240.925568 228.14 
L 240.925568 189.323292 
L 234.838295 189.323292 
z
" style="fill:#e24a33;opacity:0.4;"/>
   </g>
   <g id="patch_31">
    <path clip-path="url(#pdb25be3cf3)" d="M 240.925568 228.14 
L 247.012841 228.14 
L 247.012841 176.653291 
L 240.925568 176.653291 
z
" style="fill:#e24a33;opacity:0.4;"/>
   </g>
   <g id="patch_32">
    <path clip-path="url(#pdb25be3cf3)" d="M 247.012841 228.14 
L 253.100114 228.14 
L 253.100114 163.556211 
L 247.012841 163.556211 
z
" style="fill:#e24a33;opacity:0.4;"/>
   </g>
   <g id="patch_33">
    <path clip-path="url(#pdb25be3cf3)" d="M 253.100114 228.14 
L 259.187386 228.14 
L 259.187386 147.32722 
L 253.100114 147.32722 
z
" style="fill:#e24a33;opacity:0.4;"/>
   </g>
   <g id="patch_34">
    <path clip-path="url(#pdb25be3cf3)" d="M 259.187386 228.14 
L 265.274659 228.14 
L 265.274659 130.338979 
L 259.187386 130.338979 
z
" style="fill:#e24a33;opacity:0.4;"/>
   </g>
   <g id="patch_35">
    <path clip-path="url(#pdb25be3cf3)" d="M 265.274659 228.14 
L 271.361932 228.14 
L 271.361932 112.828752 
L 265.274659 112.828752 
z
" style="fill:#e24a33;opacity:0.4;"/>
   </g>
   <g id="patch_36">
    <path clip-path="url(#pdb25be3cf3)" d="M 271.361932 228.14 
L 277.449205 228.14 
L 277.449205 84.926277 
L 271.361932 84.926277 
z
" style="fill:#e24a33;opacity:0.4;"/>
   </g>
   <g id="patch_37">
    <path clip-path="url(#pdb25be3cf3)" d="M 277.449205 228.14 
L 283.536477 228.14 
L 283.536477 64.141781 
L 277.449205 64.141781 
z
" style="fill:#e24a33;opacity:0.4;"/>
   </g>
   <g id="patch_38">
    <path clip-path="url(#pdb25be3cf3)" d="M 283.536477 228.14 
L 289.62375 228.14 
L 289.62375 47.533165 
L 283.536477 47.533165 
z
" style="fill:#e24a33;opacity:0.4;"/>
   </g>
   <g id="patch_39">
    <path clip-path="url(#pdb25be3cf3)" d="M 289.62375 228.14 
L 295.711023 228.14 
L 295.711023 41.648969 
L 289.62375 41.648969 
z
" style="fill:#e24a33;opacity:0.4;"/>
   </g>
   <g id="patch_40">
    <path clip-path="url(#pdb25be3cf3)" d="M 295.711023 228.14 
L 301.798295 228.14 
L 301.798295 32.253238 
L 295.711023 32.253238 
z
" style="fill:#e24a33;opacity:0.4;"/>
   </g>
   <g id="patch_41">
    <path clip-path="url(#pdb25be3cf3)" d="M 301.798295 228.14 
L 307.885568 228.14 
L 307.885568 28.551889 
L 301.798295 28.551889 
z
" style="fill:#e24a33;opacity:0.4;"/>
   </g>
   <g id="patch_42">
    <path clip-path="url(#pdb25be3cf3)" d="M 307.885568 228.14 
L 313.972841 228.14 
L 313.972841 28.314624 
L 307.885568 28.314624 
z
" style="fill:#e24a33;opacity:0.4;"/>
   </g>
   <g id="patch_43">
    <path clip-path="url(#pdb25be3cf3)" d="M 313.972841 228.14 
L 320.060114 228.14 
L 320.060114 21.054286 
L 313.972841 21.054286 
z
" style="fill:#e24a33;opacity:0.4;"/>
   </g>
   <g id="patch_44">
    <path clip-path="url(#pdb25be3cf3)" d="M 320.060114 228.14 
L 326.147386 228.14 
L 326.147386 41.174438 
L 320.060114 41.174438 
z
" style="fill:#e24a33;opacity:0.4;"/>
   </g>
   <g id="patch_45">
    <path clip-path="url(#pdb25be3cf3)" d="M 326.147386 228.14 
L 332.234659 228.14 
L 332.234659 59.728634 
L 326.147386 59.728634 
z
" style="fill:#e24a33;opacity:0.4;"/>
   </g>
   <g id="patch_46">
    <path clip-path="url(#pdb25be3cf3)" d="M 332.234659 228.14 
L 338.321932 228.14 
L 338.321932 79.61152 
L 332.234659 79.61152 
z
" style="fill:#e24a33;opacity:0.4;"/>
   </g>
   <g id="patch_47">
    <path clip-path="url(#pdb25be3cf3)" d="M 338.321932 228.14 
L 344.409205 228.14 
L 344.409205 102.578863 
L 338.321932 102.578863 
z
" style="fill:#e24a33;opacity:0.4;"/>
   </g>
   <g id="patch_48">
    <path clip-path="url(#pdb25be3cf3)" d="M 344.409205 228.14 
L 350.496477 228.14 
L 350.496477 125.119128 
L 344.409205 125.119128 
z
" style="fill:#e24a33;opacity:0.4;"/>
   </g>
   <g id="patch_49">
    <path clip-path="url(#pdb25be3cf3)" d="M 350.496477 228.14 
L 356.58375 228.14 
L 356.58375 146.805235 
L 350.496477 146.805235 
z
" style="fill:#e24a33;opacity:0.4;"/>
   </g>
   <g id="patch_50">
    <path clip-path="url(#pdb25be3cf3)" d="M 356.58375 228.14 
L 362.671023 228.14 
L 362.671023 166.783027 
L 356.58375 166.783027 
z
" style="fill:#e24a33;opacity:0.4;"/>
   </g>
   <g id="patch_51">
    <path clip-path="url(#pdb25be3cf3)" d="M 362.671023 228.14 
L 368.758295 228.14 
L 368.758295 188.611494 
L 362.671023 188.611494 
z
" style="fill:#e24a33;opacity:0.4;"/>
   </g>
   <g id="patch_52">
    <path clip-path="url(#pdb25be3cf3)" d="M 368.758295 228.14 
L 374.845568 228.14 
L 374.845568 211.483931 
L 368.758295 211.483931 
z
" style="fill:#e24a33;opacity:0.4;"/>
   </g>
   <g id="patch_53">
    <path d="M 55.26375 228.14 
L 55.26375 10.7 
" style="fill:none;stroke:#ffffff;stroke-linecap:square;stroke-linejoin:miter;"/>
   </g>
   <g id="patch_54">
    <path d="M 390.06375 228.14 
L 390.06375 10.7 
" style="fill:none;stroke:#ffffff;stroke-linecap:square;stroke-linejoin:miter;"/>
   </g>
   <g id="patch_55">
    <path d="M 55.26375 228.14 
L 390.06375 228.14 
" style="fill:none;stroke:#ffffff;stroke-linecap:square;stroke-linejoin:miter;"/>
   </g>
   <g id="patch_56">
    <path d="M 55.26375 10.7 
L 390.06375 10.7 
" style="fill:none;stroke:#ffffff;stroke-linecap:square;stroke-linejoin:miter;"/>
   </g>
  </g>
 </g>
 <defs>
  <clipPath id="pdb25be3cf3">
   <rect height="217.44" width="334.8" x="55.26375" y="10.7"/>
  </clipPath>
 </defs>
</svg>
